<ttFont>
    <TTGlyph name=".notdef" xMin="85" yMin="240" xMax="233" yMax="370">
      <contour>
        <pt x="85" y="240" on="1"/>
        <pt x="108" y="370" on="1"/>
        <pt x="233" y="370" on="1"/>
        <pt x="210" y="240" on="1"/>
      </contour>
    </TTGlyph>
    <TTGlyph name="A" xMin="-43" yMin="0" xMax="521" yMax="700">
      <contour>
        <pt x="388" y="0" on="1"/>
        <pt x="367" y="169" on="1"/>
        <pt x="171" y="169" on="1"/>
        <pt x="90" y="0" on="1"/>
        <pt x="-43" y="0" on="1"/>
        <pt x="304" y="700" on="1"/>
        <pt x="421" y="700" on="1"/>
        <pt x="521" y="0" on="1"/>
      </contour>
      <contour>
        <pt x="326" y="498" on="1"/>
        <pt x="237" y="293" on="1"/>
        <pt x="344" y="293" on="1"/>
      </contour>
    </TTGlyph>
    <TTGlyph name="A.sc" xMin="-44" yMin="0" xMax="463" yMax="581">
      <contour>
        <pt x="337" y="0" on="1"/>
        <pt x="316" y="131" on="1"/>
        <pt x="149" y="131" on="1"/>
        <pt x="83" y="0" on="1"/>
        <pt x="-44" y="0" on="1"/>
        <pt x="257" y="581" on="1"/>
        <pt x="367" y="581" on="1"/>
        <pt x="463" y="0" on="1"/>
      </contour>
      <contour>
        <pt x="276" y="382" on="1"/>
        <pt x="214" y="251" on="1"/>
        <pt x="294" y="251" on="1"/>
      </contour>
    </TTGlyph>
    <TTGlyph name="AE" xMin="-56" yMin="0" xMax="823" yMax="700">
      <contour>
        <pt x="439" y="0" on="1"/>
        <pt x="315" y="0" on="1"/>
        <pt x="344" y="169" on="1"/>
        <pt x="178" y="169" on="1"/>
        <pt x="79" y="0" on="1"/>
        <pt x="-56" y="0" on="1"/>
        <pt x="374" y="700" on="1"/>
        <pt x="823" y="700" on="1"/>
        <pt x="801" y="576" on="1"/>
        <pt x="541" y="576" on="1"/>
        <pt x="514" y="427" on="1"/>
        <pt x="715" y="427" on="1"/>
        <pt x="693" y="303" on="1"/>
        <pt x="493" y="303" on="1"/>
        <pt x="461" y="124" on="1"/>
        <pt x="729" y="124" on="1"/>
        <pt x="707" y="0" on="1"/>
      </contour>
      <contour>
        <pt x="416" y="573" on="1"/>
        <pt x="259" y="293" on="1"/>
        <pt x="366" y="293" on="1"/>
      </contour>
    </TTGlyph>
    <TTGlyph name="AE.sc" xMin="-57" yMin="0" xMax="722" yMax="581">
      <contour>
        <pt x="394" y="0" on="1"/>
        <pt x="276" y="0" on="1"/>
        <pt x="300" y="135" on="1"/>
        <pt x="157" y="135" on="1"/>
        <pt x="74" y="0" on="1"/>
        <pt x="-57" y="0" on="1"/>
        <pt x="319" y="581" on="1"/>
        <pt x="722" y="581" on="1"/>
        <pt x="701" y="461" on="1"/>
        <pt x="473" y="461" on="1"/>
        <pt x="456" y="362" on="1"/>
        <pt x="631" y="362" on="1"/>
        <pt x="610" y="243" on="1"/>
        <pt x="435" y="243" on="1"/>
        <pt x="413" y="120" on="1"/>
        <pt x="648" y="120" on="1"/>
        <pt x="627" y="0" on="1"/>
      </contour>
      <contour>
        <pt x="357" y="459" on="1"/>
        <pt x="234" y="253" on="1"/>
        <pt x="321" y="253" on="1"/>
      </contour>
    </TTGlyph>
    <TTGlyph name="Aacute" xMin="-43" yMin="0" xMax="521" yMax="950">
      <component glyphName="A" x="0" y="0" flags="0x204"/>
      <component glyphName="acute" x="134" y="200" flags="0x4"/>
    </TTGlyph>
    <TTGlyph name="Acircumflex" xMin="-43" yMin="0" xMax="522" yMax="950">
      <component glyphName="A" x="0" y="0" flags="0x204"/>
      <component glyphName="circumflex" x="68" y="200" flags="0x4"/>
    </TTGlyph>
    <TTGlyph name="Adieresis" xMin="-43" yMin="0" xMax="521" yMax="900">
      <component glyphName="A" x="0" y="0" flags="0x204"/>
      <component glyphName="dieresis" x="78" y="200" flags="0x4"/>
    </TTGlyph>
    <TTGlyph name="Agrave" xMin="-43" yMin="0" xMax="521" yMax="950">
      <component glyphName="A" x="0" y="0" flags="0x204"/>
      <component glyphName="grave" x="134" y="200" flags="0x4"/>
    </TTGlyph>
    <TTGlyph name="Aring" xMin="-43" yMin="0" xMax="521" yMax="955">
      <component glyphName="A" x="0" y="0" flags="0x204"/>
      <component glyphName="ring" x="139" y="200" flags="0x4"/>
    </TTGlyph>
    <TTGlyph name="Atilde" xMin="-43" yMin="0" xMax="572" yMax="921">
      <component glyphName="A" x="0" y="0" flags="0x204"/>
      <component glyphName="tilde" x="28" y="200" flags="0x4"/>
    </TTGlyph>
    <TTGlyph name="B" xMin="26" yMin="0" xMax="549" yMax="700">
      <contour>
        <pt x="26" y="0" on="1"/>
        <pt x="149" y="700" on="1"/>
        <pt x="332" y="700" on="1"/>
        <pt x="380" y="700" on="0"/>
        <pt x="459" y="690" on="0"/>
        <pt x="516" y="660" on="0"/>
        <pt x="547" y="605" on="0"/>
        <pt x="547" y="560" on="1"/>
        <pt x="547" y="497" on="0"/>
        <pt x="499" y="406" on="0"/>
        <pt x="463" y="374" on="1"/>
        <pt x="503" y="354" on="0"/>
        <pt x="549" y="290" on="0"/>
        <pt x="549" y="239" on="1"/>
        <pt x="549" y="169" on="0"/>
        <pt x="499" y="77" on="0"/>
        <pt x="421" y="22" on="0"/>
        <pt x="326" y="0" on="0"/>
        <pt x="281" y="0" on="1"/>
        <pt x="155" y="0" on="1"/>
      </contour>
      <contour>
        <pt x="258" y="591" on="1"/>
        <pt x="228" y="419" on="1"/>
        <pt x="343" y="419" on="1"/>
        <pt x="354" y="419" on="0"/>
        <pt x="383" y="428" on="0"/>
        <pt x="410" y="452" on="0"/>
        <pt x="428" y="495" on="0"/>
        <pt x="428" y="530" on="1"/>
        <pt x="428" y="566" on="0"/>
        <pt x="397" y="591" on="0"/>
        <pt x="369" y="591" on="1"/>
      </contour>
      <contour>
        <pt x="210" y="318" on="1"/>
        <pt x="173" y="109" on="1"/>
        <pt x="297" y="109" on="1"/>
        <pt x="354" y="109" on="0"/>
        <pt x="418" y="167" on="0"/>
        <pt x="418" y="237" on="1"/>
        <pt x="418" y="283" on="0"/>
        <pt x="365" y="318" on="0"/>
        <pt x="324" y="318" on="1"/>
      </contour>
    </TTGlyph>
    <TTGlyph name="B.sc" xMin="20" yMin="0" xMax="494" yMax="581">
      <contour>
        <pt x="20" y="0" on="1"/>
        <pt x="122" y="581" on="1"/>
        <pt x="292" y="581" on="1"/>
        <pt x="335" y="581" on="0"/>
        <pt x="406" y="572" on="0"/>
        <pt x="458" y="546" on="0"/>
        <pt x="487" y="499" on="0"/>
        <pt x="487" y="461" on="1"/>
        <pt x="487" y="434" on="0"/>
        <pt x="474" y="387" on="0"/>
        <pt x="453" y="348" on="0"/>
        <pt x="427" y="319" on="0"/>
        <pt x="414" y="311" on="1"/>
        <pt x="449" y="296" on="0"/>
        <pt x="494" y="243" on="0"/>
        <pt x="494" y="197" on="1"/>
        <pt x="494" y="142" on="0"/>
        <pt x="449" y="67" on="0"/>
        <pt x="379" y="20" on="0"/>
        <pt x="294" y="0" on="0"/>
        <pt x="254" y="0" on="1"/>
        <pt x="141" y="0" on="1"/>
      </contour>
      <contour>
        <pt x="227" y="480" on="1"/>
        <pt x="204" y="352" on="1"/>
        <pt x="309" y="352" on="1"/>
        <pt x="316" y="352" on="0"/>
        <pt x="339" y="360" on="0"/>
        <pt x="360" y="379" on="0"/>
        <pt x="375" y="409" on="0"/>
        <pt x="375" y="431" on="1"/>
        <pt x="375" y="457" on="0"/>
        <pt x="353" y="480" on="0"/>
        <pt x="331" y="480" on="1"/>
      </contour>
      <contour>
        <pt x="189" y="262" on="1"/>
        <pt x="160" y="101" on="1"/>
        <pt x="278" y="101" on="1"/>
        <pt x="321" y="101" on="0"/>
        <pt x="369" y="151" on="0"/>
        <pt x="369" y="199" on="1"/>
        <pt x="369" y="234" on="0"/>
        <pt x="324" y="262" on="0"/>
        <pt x="286" y="262" on="1"/>
      </contour>
    </TTGlyph>
    <TTGlyph name="C" xMin="42" yMin="-14" xMax="597" yMax="714">
      <contour>
        <pt x="294" y="-14" on="1"/>
        <pt x="236" y="-14" on="0"/>
        <pt x="143" y="27" on="0"/>
        <pt x="77" y="104" on="0"/>
        <pt x="42" y="212" on="0"/>
        <pt x="42" y="278" on="1"/>
        <pt x="42" y="374" on="0"/>
        <pt x="103" y="534" on="0"/>
        <pt x="206" y="649" on="0"/>
        <pt x="345" y="714" on="0"/>
        <pt x="423" y="714" on="1"/>
        <pt x="473" y="714" on="0"/>
        <pt x="565" y="692" on="0"/>
        <pt x="597" y="673" on="1"/>
        <pt x="561" y="551" on="1"/>
        <pt x="524" y="568" on="0"/>
        <pt x="451" y="591" on="0"/>
        <pt x="401" y="591" on="1"/>
        <pt x="348" y="591" on="0"/>
        <pt x="267" y="541" on="0"/>
        <pt x="212" y="457" on="0"/>
        <pt x="183" y="347" on="0"/>
        <pt x="183" y="287" on="1"/>
        <pt x="183" y="248" on="0"/>
        <pt x="199" y="183" on="0"/>
        <pt x="232" y="135" on="0"/>
        <pt x="281" y="109" on="0"/>
        <pt x="315" y="109" on="1"/>
        <pt x="366" y="109" on="0"/>
        <pt x="447" y="132" on="0"/>
        <pt x="490" y="149" on="1"/>
        <pt x="483" y="27" on="1"/>
        <pt x="445" y="8" on="0"/>
        <pt x="345" y="-14" on="0"/>
      </contour>
    </TTGlyph>
    <TTGlyph name="C.sc" xMin="31" yMin="-12" xMax="522" yMax="593">
      <contour>
        <pt x="258" y="-12" on="1"/>
        <pt x="206" y="-12" on="0"/>
        <pt x="122" y="23" on="0"/>
        <pt x="63" y="88" on="0"/>
        <pt x="31" y="179" on="0"/>
        <pt x="31" y="235" on="1"/>
        <pt x="31" y="313" on="0"/>
        <pt x="84" y="444" on="0"/>
        <pt x="175" y="540" on="0"/>
        <pt x="297" y="593" on="0"/>
        <pt x="365" y="593" on="1"/>
        <pt x="410" y="593" on="0"/>
        <pt x="493" y="575" on="0"/>
        <pt x="522" y="559" on="1"/>
        <pt x="487" y="442" on="1"/>
        <pt x="454" y="458" on="0"/>
        <pt x="389" y="474" on="0"/>
        <pt x="344" y="474" on="1"/>
        <pt x="300" y="474" on="0"/>
        <pt x="233" y="437" on="0"/>
        <pt x="188" y="374" on="0"/>
        <pt x="166" y="291" on="0"/>
        <pt x="166" y="244" on="1"/>
        <pt x="166" y="182" on="0"/>
        <pt x="220" y="107" on="0"/>
        <pt x="277" y="107" on="1"/>
        <pt x="324" y="107" on="0"/>
        <pt x="395" y="123" on="0"/>
        <pt x="434" y="139" on="1"/>
        <pt x="428" y="23" on="1"/>
        <pt x="394" y="6" on="0"/>
        <pt x="303" y="-12" on="0"/>
      </contour>
    </TTGlyph>
    <TTGlyph name="Ccaron" xMin="42" yMin="-14" xMax="597" yMax="950">
      <component glyphName="C" x="0" y="0" flags="0x204"/>
      <component glyphName="caron" x="103" y="200" flags="0x4"/>
    </TTGlyph>
    <TTGlyph name="Ccedilla" xMin="42" yMin="-194" xMax="597" yMax="714">
      <component glyphName="C" x="0" y="0" flags="0x204"/>
      <component glyphName="cedilla" x="23" y="0" flags="0x4"/>
    </TTGlyph>
    <TTGlyph name="D" xMin="26" yMin="0" xMax="642" yMax="700">
      <contour>
        <pt x="26" y="0" on="1"/>
        <pt x="149" y="700" on="1"/>
        <pt x="386" y="700" on="1"/>
        <pt x="444" y="700" on="0"/>
        <pt x="539" y="662" on="0"/>
        <pt x="606" y="590" on="0"/>
        <pt x="642" y="486" on="0"/>
        <pt x="642" y="420" on="1"/>
        <pt x="642" y="324" on="0"/>
        <pt x="582" y="169" on="0"/>
        <pt x="478" y="59" on="0"/>
        <pt x="341" y="0" on="0"/>
        <pt x="263" y="0" on="1"/>
        <pt x="154" y="0" on="1"/>
      </contour>
      <contour>
        <pt x="256" y="577" on="1"/>
        <pt x="176" y="123" on="1"/>
        <pt x="285" y="123" on="1"/>
        <pt x="338" y="123" on="0"/>
        <pt x="419" y="167" on="0"/>
        <pt x="473" y="245" on="0"/>
        <pt x="501" y="349" on="0"/>
        <pt x="501" y="409" on="1"/>
        <pt x="501" y="487" on="0"/>
        <pt x="434" y="577" on="0"/>
        <pt x="365" y="577" on="1"/>
      </contour>
    </TTGlyph>
    <TTGlyph name="D.sc" xMin="20" yMin="0" xMax="565" yMax="581">
      <contour>
        <pt x="20" y="0" on="1"/>
        <pt x="122" y="581" on="1"/>
        <pt x="336" y="581" on="1"/>
        <pt x="388" y="581" on="0"/>
        <pt x="472" y="549" on="0"/>
        <pt x="532" y="488" on="0"/>
        <pt x="565" y="401" on="0"/>
        <pt x="565" y="346" on="1"/>
        <pt x="565" y="266" on="0"/>
        <pt x="512" y="138" on="0"/>
        <pt x="422" y="48" on="0"/>
        <pt x="301" y="0" on="0"/>
        <pt x="233" y="0" on="1"/>
        <pt x="140" y="0" on="1"/>
      </contour>
      <contour>
        <pt x="224" y="462" on="1"/>
        <pt x="163" y="119" on="1"/>
        <pt x="254" y="119" on="1"/>
        <pt x="299" y="119" on="0"/>
        <pt x="365" y="151" on="0"/>
        <pt x="409" y="209" on="0"/>
        <pt x="430" y="287" on="0"/>
        <pt x="430" y="334" on="1"/>
        <pt x="430" y="394" on="0"/>
        <pt x="374" y="462" on="0"/>
        <pt x="315" y="462" on="1"/>
      </contour>
    </TTGlyph>
    <TTGlyph name="E" xMin="26" yMin="0" xMax="561" yMax="700">
      <contour>
        <pt x="157" y="0" on="1"/>
        <pt x="26" y="0" on="1"/>
        <pt x="149" y="700" on="1"/>
        <pt x="561" y="700" on="1"/>
        <pt x="539" y="576" on="1"/>
        <pt x="259" y="576" on="1"/>
        <pt x="233" y="427" on="1"/>
        <pt x="448" y="427" on="1"/>
        <pt x="426" y="303" on="1"/>
        <pt x="211" y="303" on="1"/>
        <pt x="180" y="124" on="1"/>
        <pt x="469" y="124" on="1"/>
        <pt x="447" y="0" on="1"/>
      </contour>
    </TTGlyph>
    <TTGlyph name="E.sc" xMin="20" yMin="0" xMax="495" yMax="581">
      <contour>
        <pt x="148" y="0" on="1"/>
        <pt x="20" y="0" on="1"/>
        <pt x="122" y="581" on="1"/>
        <pt x="495" y="581" on="1"/>
        <pt x="474" y="461" on="1"/>
        <pt x="228" y="461" on="1"/>
        <pt x="211" y="362" on="1"/>
        <pt x="398" y="362" on="1"/>
        <pt x="377" y="243" on="1"/>
        <pt x="190" y="243" on="1"/>
        <pt x="168" y="120" on="1"/>
        <pt x="422" y="120" on="1"/>
        <pt x="401" y="0" on="1"/>
      </contour>
    </TTGlyph>
    <TTGlyph name="Eacute" xMin="26" yMin="0" xMax="561" yMax="950">
      <component glyphName="E" x="0" y="0" flags="0x204"/>
      <component glyphName="acute" x="98" y="200" flags="0x4"/>
    </TTGlyph>
    <TTGlyph name="Ecircumflex" xMin="26" yMin="0" xMax="561" yMax="950">
      <component glyphName="E" x="0" y="0" flags="0x204"/>
      <component glyphName="circumflex" x="33" y="200" flags="0x4"/>
    </TTGlyph>
    <TTGlyph name="Edieresis" xMin="26" yMin="0" xMax="561" yMax="900">
      <component glyphName="E" x="0" y="0" flags="0x204"/>
      <component glyphName="dieresis" x="44" y="200" flags="0x4"/>
    </TTGlyph>
    <TTGlyph name="Egrave" xMin="26" yMin="0" xMax="561" yMax="950">
      <component glyphName="E" x="0" y="0" flags="0x204"/>
      <component glyphName="grave" x="98" y="200" flags="0x4"/>
    </TTGlyph>
    <TTGlyph name="Eth" xMin="4" yMin="0" xMax="650" yMax="700">
      <contour>
        <pt x="32" y="0" on="1"/>
        <pt x="85" y="299" on="1"/>
        <pt x="4" y="299" on="1"/>
        <pt x="21" y="393" on="1"/>
        <pt x="101" y="393" on="1"/>
        <pt x="156" y="700" on="1"/>
        <pt x="394" y="700" on="1"/>
        <pt x="452" y="700" on="0"/>
        <pt x="547" y="662" on="0"/>
        <pt x="614" y="590" on="0"/>
        <pt x="650" y="486" on="0"/>
        <pt x="650" y="420" on="1"/>
        <pt x="650" y="324" on="0"/>
        <pt x="590" y="169" on="0"/>
        <pt x="486" y="59" on="0"/>
        <pt x="348" y="0" on="0"/>
        <pt x="270" y="0" on="1"/>
        <pt x="163" y="0" on="1"/>
      </contour>
      <contour>
        <pt x="264" y="577" on="1"/>
        <pt x="231" y="393" on="1"/>
        <pt x="337" y="393" on="1"/>
        <pt x="320" y="299" on="1"/>
        <pt x="215" y="299" on="1"/>
        <pt x="184" y="123" on="1"/>
        <pt x="292" y="123" on="1"/>
        <pt x="345" y="123" on="0"/>
        <pt x="426" y="167" on="0"/>
        <pt x="481" y="244" on="0"/>
        <pt x="509" y="349" on="0"/>
        <pt x="509" y="409" on="1"/>
        <pt x="509" y="487" on="0"/>
        <pt x="441" y="577" on="0"/>
        <pt x="372" y="577" on="1"/>
      </contour>
    </TTGlyph>
    <TTGlyph name="Euro" xMin="17" yMin="17" xMax="652" yMax="683">
      <contour>
        <pt x="376" y="17" on="1"/>
        <pt x="285" y="17" on="0"/>
        <pt x="164" y="118" on="0"/>
        <pt x="148" y="209" on="1"/>
        <pt x="17" y="209" on="1"/>
        <pt x="61" y="295" on="1"/>
        <pt x="142" y="295" on="1"/>
        <pt x="143" y="307" on="0"/>
        <pt x="148" y="345" on="0"/>
        <pt x="150" y="358" on="1"/>
        <pt x="66" y="358" on="1"/>
        <pt x="112" y="445" on="1"/>
        <pt x="176" y="445" on="1"/>
        <pt x="198" y="500" on="0"/>
        <pt x="264" y="588" on="0"/>
        <pt x="347" y="650" on="0"/>
        <pt x="443" y="683" on="0"/>
        <pt x="494" y="683" on="1"/>
        <pt x="538" y="683" on="0"/>
        <pt x="620" y="665" on="0"/>
        <pt x="652" y="646" on="1"/>
        <pt x="619" y="533" on="1"/>
        <pt x="585" y="550" on="0"/>
        <pt x="518" y="573" on="0"/>
        <pt x="474" y="573" on="1"/>
        <pt x="413" y="573" on="0"/>
        <pt x="328" y="504" on="0"/>
        <pt x="302" y="445" on="1"/>
        <pt x="525" y="445" on="1"/>
        <pt x="479" y="358" on="1"/>
        <pt x="274" y="358" on="1"/>
        <pt x="272" y="344" on="0"/>
        <pt x="266" y="306" on="0"/>
        <pt x="266" y="295" on="1"/>
        <pt x="482" y="295" on="1"/>
        <pt x="438" y="209" on="1"/>
        <pt x="279" y="209" on="1"/>
        <pt x="290" y="170" on="0"/>
        <pt x="347" y="127" on="0"/>
        <pt x="396" y="127" on="1"/>
        <pt x="440" y="127" on="0"/>
        <pt x="514" y="150" on="0"/>
        <pt x="554" y="167" on="1"/>
        <pt x="548" y="54" on="1"/>
        <pt x="510" y="35" on="0"/>
        <pt x="421" y="17" on="0"/>
      </contour>
    </TTGlyph>
    <TTGlyph name="F" xMin="26" yMin="0" xMax="539" yMax="700">
      <contour>
        <pt x="256" y="576" on="1"/>
        <pt x="229" y="427" on="1"/>
        <pt x="431" y="427" on="1"/>
        <pt x="409" y="303" on="1"/>
        <pt x="207" y="303" on="1"/>
        <pt x="154" y="0" on="1"/>
        <pt x="26" y="0" on="1"/>
        <pt x="149" y="700" on="1"/>
        <pt x="539" y="700" on="1"/>
        <pt x="517" y="576" on="1"/>
      </contour>
    </TTGlyph>
    <TTGlyph name="F.sc" xMin="20" yMin="0" xMax="472" yMax="581">
      <contour>
        <pt x="224" y="461" on="1"/>
        <pt x="206" y="362" on="1"/>
        <pt x="381" y="362" on="1"/>
        <pt x="360" y="243" on="1"/>
        <pt x="185" y="243" on="1"/>
        <pt x="142" y="0" on="1"/>
        <pt x="20" y="0" on="1"/>
        <pt x="122" y="581" on="1"/>
        <pt x="472" y="581" on="1"/>
        <pt x="451" y="461" on="1"/>
      </contour>
    </TTGlyph>
    <TTGlyph name="G" xMin="42" yMin="-14" xMax="610" yMax="714">
      <contour>
        <pt x="293" y="-14" on="1"/>
        <pt x="236" y="-14" on="0"/>
        <pt x="143" y="27" on="0"/>
        <pt x="78" y="104" on="0"/>
        <pt x="42" y="212" on="0"/>
        <pt x="42" y="279" on="1"/>
        <pt x="42" y="374" on="0"/>
        <pt x="102" y="534" on="0"/>
        <pt x="206" y="649" on="0"/>
        <pt x="347" y="714" on="0"/>
        <pt x="427" y="714" on="1"/>
        <pt x="450" y="714" on="0"/>
        <pt x="501" y="708" on="0"/>
        <pt x="551" y="698" on="0"/>
        <pt x="595" y="682" on="0"/>
        <pt x="610" y="673" on="1"/>
        <pt x="574" y="551" on="1"/>
        <pt x="558" y="559" on="0"/>
        <pt x="517" y="574" on="0"/>
        <pt x="474" y="585" on="0"/>
        <pt x="429" y="591" on="0"/>
        <pt x="408" y="591" on="1"/>
        <pt x="351" y="591" on="0"/>
        <pt x="267" y="541" on="0"/>
        <pt x="211" y="458" on="0"/>
        <pt x="184" y="350" on="0"/>
        <pt x="184" y="293" on="1"/>
        <pt x="184" y="212" on="0"/>
        <pt x="254" y="109" on="0"/>
        <pt x="325" y="109" on="1"/>
        <pt x="345" y="109" on="0"/>
        <pt x="382" y="115" on="0"/>
        <pt x="405" y="120" on="1"/>
        <pt x="427" y="245" on="1"/>
        <pt x="371" y="245" on="1"/>
        <pt x="389" y="351" on="1"/>
        <pt x="574" y="351" on="1"/>
        <pt x="555" y="243" on="1"/>
        <pt x="519" y="39" on="1"/>
        <pt x="500" y="28" on="0"/>
        <pt x="445" y="9" on="0"/>
        <pt x="383" y="-6" on="0"/>
        <pt x="320" y="-14" on="0"/>
      </contour>
    </TTGlyph>
    <TTGlyph name="G.sc" xMin="31" yMin="-12" xMax="534" yMax="593">
      <contour>
        <pt x="259" y="-12" on="1"/>
        <pt x="207" y="-12" on="0"/>
        <pt x="123" y="24" on="0"/>
        <pt x="63" y="88" on="0"/>
        <pt x="31" y="179" on="0"/>
        <pt x="31" y="235" on="1"/>
        <pt x="31" y="313" on="0"/>
        <pt x="84" y="444" on="0"/>
        <pt x="175" y="540" on="0"/>
        <pt x="298" y="593" on="0"/>
        <pt x="369" y="593" on="1"/>
        <pt x="390" y="593" on="0"/>
        <pt x="436" y="588" on="0"/>
        <pt x="481" y="579" on="0"/>
        <pt x="520" y="566" on="0"/>
        <pt x="534" y="558" on="1"/>
        <pt x="498" y="439" on="1"/>
        <pt x="470" y="454" on="0"/>
        <pt x="388" y="474" on="0"/>
        <pt x="351" y="474" on="1"/>
        <pt x="304" y="474" on="0"/>
        <pt x="235" y="437" on="0"/>
        <pt x="189" y="376" on="0"/>
        <pt x="167" y="295" on="0"/>
        <pt x="167" y="250" on="1"/>
        <pt x="167" y="186" on="0"/>
        <pt x="225" y="107" on="0"/>
        <pt x="285" y="107" on="1"/>
        <pt x="302" y="107" on="0"/>
        <pt x="331" y="111" on="0"/>
        <pt x="351" y="113" on="1"/>
        <pt x="366" y="194" on="1"/>
        <pt x="324" y="194" on="1"/>
        <pt x="341" y="291" on="1"/>
        <pt x="505" y="291" on="1"/>
        <pt x="488" y="193" on="1"/>
        <pt x="459" y="32" on="1"/>
        <pt x="443" y="23" on="0"/>
        <pt x="395" y="7" on="0"/>
        <pt x="339" y="-5" on="0"/>
        <pt x="283" y="-12" on="0"/>
      </contour>
    </TTGlyph>
    <TTGlyph name="H" xMin="26" yMin="0" xMax="677" yMax="700">
      <contour>
        <pt x="425" y="0" on="1"/>
        <pt x="479" y="303" on="1"/>
        <pt x="207" y="303" on="1"/>
        <pt x="154" y="0" on="1"/>
        <pt x="26" y="0" on="1"/>
        <pt x="149" y="700" on="1"/>
        <pt x="277" y="700" on="1"/>
        <pt x="229" y="427" on="1"/>
        <pt x="501" y="427" on="1"/>
        <pt x="549" y="700" on="1"/>
        <pt x="677" y="700" on="1"/>
        <pt x="553" y="0" on="1"/>
      </contour>
    </TTGlyph>
    <TTGlyph name="H.sc" xMin="20" yMin="0" xMax="594" yMax="581">
      <contour>
        <pt x="368" y="0" on="1"/>
        <pt x="411" y="243" on="1"/>
        <pt x="185" y="243" on="1"/>
        <pt x="142" y="0" on="1"/>
        <pt x="20" y="0" on="1"/>
        <pt x="122" y="581" on="1"/>
        <pt x="245" y="581" on="1"/>
        <pt x="206" y="362" on="1"/>
        <pt x="432" y="362" on="1"/>
        <pt x="470" y="581" on="1"/>
        <pt x="594" y="581" on="1"/>
        <pt x="491" y="0" on="1"/>
      </contour>
    </TTGlyph>
    <TTGlyph name="I" xMin="26" yMin="0" xMax="277" yMax="700">
      <contour>
        <pt x="26" y="0" on="1"/>
        <pt x="149" y="700" on="1"/>
        <pt x="277" y="700" on="1"/>
        <pt x="154" y="0" on="1"/>
      </contour>
    </TTGlyph>
    <TTGlyph name="I.sc" xMin="20" yMin="0" xMax="245" yMax="581">
      <contour>
        <pt x="20" y="0" on="1"/>
        <pt x="122" y="581" on="1"/>
        <pt x="245" y="581" on="1"/>
        <pt x="142" y="0" on="1"/>
      </contour>
    </TTGlyph>
    <TTGlyph name="Iacute" xMin="26" yMin="0" xMax="343" yMax="950">
      <component glyphName="I" x="0" y="0" flags="0x204"/>
      <component glyphName="acute" x="-13" y="200" flags="0x4"/>
    </TTGlyph>
    <TTGlyph name="Icircumflex" xMin="26" yMin="0" xMax="375" yMax="950">
      <component glyphName="I" x="0" y="0" flags="0x204"/>
      <component glyphName="circumflex" x="-79" y="200" flags="0x4"/>
    </TTGlyph>
    <TTGlyph name="Idieresis" xMin="26" yMin="0" xMax="362" yMax="900">
      <component glyphName="I" x="0" y="0" flags="0x204"/>
      <component glyphName="dieresis" x="-68" y="200" flags="0x4"/>
    </TTGlyph>
    <TTGlyph name="Igrave" xMin="26" yMin="0" xMax="327" yMax="950">
      <component glyphName="I" x="0" y="0" flags="0x204"/>
      <component glyphName="grave" x="-14" y="200" flags="0x4"/>
    </TTGlyph>
    <TTGlyph name="J" xMin="-70" yMin="-172" xMax="269" yMax="700">
      <contour>
        <pt x="-70" y="-172" on="1"/>
        <pt x="-62" y="-76" on="1"/>
        <pt x="-28" y="-76" on="1"/>
        <pt x="2" y="-76" on="0"/>
        <pt x="17" y="4" on="1"/>
        <pt x="140" y="700" on="1"/>
        <pt x="269" y="700" on="1"/>
        <pt x="141" y="-24" on="1"/>
        <pt x="127" y="-99" on="0"/>
        <pt x="33" y="-172" on="0"/>
        <pt x="-30" y="-172" on="1"/>
      </contour>
    </TTGlyph>
    <TTGlyph name="J.sc" xMin="-57" yMin="-143" xMax="239" yMax="581">
      <contour>
        <pt x="-57" y="-143" on="1"/>
        <pt x="-48" y="-45" on="1"/>
        <pt x="-13" y="-45" on="1"/>
        <pt x="6" y="-45" on="0"/>
        <pt x="15" y="6" on="1"/>
        <pt x="116" y="581" on="1"/>
        <pt x="239" y="581" on="1"/>
        <pt x="134" y="-16" on="1"/>
        <pt x="128" y="-49" on="0"/>
        <pt x="100" y="-97" on="0"/>
        <pt x="60" y="-128" on="0"/>
        <pt x="11" y="-143" on="0"/>
        <pt x="-16" y="-143" on="1"/>
      </contour>
    </TTGlyph>
    <TTGlyph name="K" xMin="26" yMin="0" xMax="655" yMax="700">
      <contour>
        <pt x="385" y="0" on="1"/>
        <pt x="236" y="370" on="1"/>
        <pt x="508" y="700" on="1"/>
        <pt x="655" y="700" on="1"/>
        <pt x="383" y="370" on="1"/>
        <pt x="532" y="0" on="1"/>
      </contour>
      <contour>
        <pt x="26" y="0" on="1"/>
        <pt x="149" y="700" on="1"/>
        <pt x="277" y="700" on="1"/>
        <pt x="154" y="0" on="1"/>
      </contour>
    </TTGlyph>
    <TTGlyph name="K.sc" xMin="20" yMin="0" xMax="585" yMax="581">
      <contour>
        <pt x="342" y="0" on="1"/>
        <pt x="209" y="307" on="1"/>
        <pt x="444" y="581" on="1"/>
        <pt x="585" y="581" on="1"/>
        <pt x="350" y="307" on="1"/>
        <pt x="482" y="0" on="1"/>
      </contour>
      <contour>
        <pt x="20" y="0" on="1"/>
        <pt x="122" y="581" on="1"/>
        <pt x="245" y="581" on="1"/>
        <pt x="142" y="0" on="1"/>
      </contour>
    </TTGlyph>
    <TTGlyph name="L" xMin="26" yMin="0" xMax="422" yMax="700">
      <contour>
        <pt x="26" y="0" on="1"/>
        <pt x="149" y="700" on="1"/>
        <pt x="277" y="700" on="1"/>
        <pt x="176" y="124" on="1"/>
        <pt x="422" y="124" on="1"/>
        <pt x="400" y="0" on="1"/>
      </contour>
    </TTGlyph>
    <TTGlyph name="L.sc" xMin="20" yMin="0" xMax="375" yMax="581">
      <contour>
        <pt x="20" y="0" on="1"/>
        <pt x="122" y="581" on="1"/>
        <pt x="245" y="581" on="1"/>
        <pt x="163" y="120" on="1"/>
        <pt x="375" y="120" on="1"/>
        <pt x="354" y="0" on="1"/>
      </contour>
    </TTGlyph>
    <TTGlyph name="M" xMin="-8" yMin="0" xMax="704" yMax="700">
      <contour>
        <pt x="541" y="0" on="1"/>
        <pt x="568" y="469" on="1"/>
        <pt x="359" y="147" on="1"/>
        <pt x="263" y="468" on="1"/>
        <pt x="125" y="0" on="1"/>
        <pt x="-8" y="0" on="1"/>
        <pt x="208" y="700" on="1"/>
        <pt x="312" y="700" on="1"/>
        <pt x="400" y="381" on="1"/>
        <pt x="601" y="700" on="1"/>
        <pt x="704" y="700" on="1"/>
        <pt x="674" y="0" on="1"/>
      </contour>
    </TTGlyph>
    <TTGlyph name="M.sc" xMin="-9" yMin="0" xMax="629" yMax="581">
      <contour>
        <pt x="480" y="0" on="1"/>
        <pt x="499" y="362" on="1"/>
        <pt x="318" y="113" on="1"/>
        <pt x="225" y="361" on="1"/>
        <pt x="118" y="0" on="1"/>
        <pt x="-9" y="0" on="1"/>
        <pt x="173" y="581" on="1"/>
        <pt x="271" y="581" on="1"/>
        <pt x="357" y="329" on="1"/>
        <pt x="530" y="581" on="1"/>
        <pt x="629" y="581" on="1"/>
        <pt x="607" y="0" on="1"/>
      </contour>
    </TTGlyph>
    <TTGlyph name="N" xMin="26" yMin="0" xMax="651" yMax="700">
      <contour>
        <pt x="423" y="0" on="1"/>
        <pt x="239" y="480" on="1"/>
        <pt x="154" y="0" on="1"/>
        <pt x="26" y="0" on="1"/>
        <pt x="149" y="700" on="1"/>
        <pt x="272" y="700" on="1"/>
        <pt x="443" y="248" on="1"/>
        <pt x="523" y="700" on="1"/>
        <pt x="651" y="700" on="1"/>
        <pt x="527" y="0" on="1"/>
      </contour>
    </TTGlyph>
    <TTGlyph name="N.sc" xMin="20" yMin="0" xMax="573" yMax="581">
      <contour>
        <pt x="370" y="0" on="1"/>
        <pt x="207" y="366" on="1"/>
        <pt x="142" y="0" on="1"/>
        <pt x="20" y="0" on="1"/>
        <pt x="122" y="581" on="1"/>
        <pt x="237" y="581" on="1"/>
        <pt x="390" y="238" on="1"/>
        <pt x="451" y="581" on="1"/>
        <pt x="573" y="581" on="1"/>
        <pt x="470" y="0" on="1"/>
      </contour>
    </TTGlyph>
    <TTGlyph name="Ntilde" xMin="26" yMin="0" xMax="651" yMax="921">
      <component glyphName="N" x="0" y="0" flags="0x204"/>
      <component glyphName="tilde" x="66" y="200" flags="0x4"/>
    </TTGlyph>
    <TTGlyph name="O" xMin="42" yMin="-14" xMax="679" yMax="714">
      <contour>
        <pt x="296" y="-14" on="1"/>
        <pt x="238" y="-14" on="0"/>
        <pt x="144" y="28" on="0"/>
        <pt x="78" y="104" on="0"/>
        <pt x="42" y="212" on="0"/>
        <pt x="42" y="278" on="1"/>
        <pt x="42" y="374" on="0"/>
        <pt x="103" y="534" on="0"/>
        <pt x="208" y="649" on="0"/>
        <pt x="347" y="714" on="0"/>
        <pt x="425" y="714" on="1"/>
        <pt x="483" y="714" on="0"/>
        <pt x="577" y="672" on="0"/>
        <pt x="643" y="596" on="0"/>
        <pt x="679" y="488" on="0"/>
        <pt x="679" y="422" on="1"/>
        <pt x="679" y="326" on="0"/>
        <pt x="618" y="166" on="0"/>
        <pt x="513" y="51" on="0"/>
        <pt x="374" y="-14" on="0"/>
      </contour>
      <contour>
        <pt x="403" y="591" on="1"/>
        <pt x="350" y="591" on="0"/>
        <pt x="269" y="542" on="0"/>
        <pt x="212" y="458" on="0"/>
        <pt x="183" y="349" on="0"/>
        <pt x="183" y="289" on="1"/>
        <pt x="183" y="250" on="0"/>
        <pt x="199" y="184" on="0"/>
        <pt x="233" y="136" on="0"/>
        <pt x="283" y="109" on="0"/>
        <pt x="318" y="109" on="1"/>
        <pt x="370" y="109" on="0"/>
        <pt x="452" y="158" on="0"/>
        <pt x="509" y="242" on="0"/>
        <pt x="538" y="351" on="0"/>
        <pt x="538" y="411" on="1"/>
        <pt x="538" y="450" on="0"/>
        <pt x="522" y="516" on="0"/>
        <pt x="488" y="564" on="0"/>
        <pt x="437" y="591" on="0"/>
      </contour>
    </TTGlyph>
    <TTGlyph name="O.sc" xMin="31" yMin="-12" xMax="597" yMax="593">
      <contour>
        <pt x="262" y="-12" on="1"/>
        <pt x="209" y="-12" on="0"/>
        <pt x="124" y="24" on="0"/>
        <pt x="64" y="89" on="0"/>
        <pt x="31" y="180" on="0"/>
        <pt x="31" y="236" on="1"/>
        <pt x="31" y="314" on="0"/>
        <pt x="85" y="445" on="0"/>
        <pt x="177" y="540" on="0"/>
        <pt x="299" y="593" on="0"/>
        <pt x="368" y="593" on="1"/>
        <pt x="420" y="593" on="0"/>
        <pt x="505" y="557" on="0"/>
        <pt x="565" y="493" on="0"/>
        <pt x="597" y="402" on="0"/>
        <pt x="597" y="347" on="1"/>
        <pt x="597" y="269" on="0"/>
        <pt x="544" y="137" on="0"/>
        <pt x="453" y="41" on="0"/>
        <pt x="331" y="-12" on="0"/>
      </contour>
      <contour>
        <pt x="347" y="474" on="1"/>
        <pt x="303" y="474" on="0"/>
        <pt x="236" y="438" on="0"/>
        <pt x="190" y="376" on="0"/>
        <pt x="166" y="293" on="0"/>
        <pt x="166" y="246" on="1"/>
        <pt x="166" y="183" on="0"/>
        <pt x="223" y="107" on="0"/>
        <pt x="283" y="107" on="1"/>
        <pt x="327" y="107" on="0"/>
        <pt x="394" y="143" on="0"/>
        <pt x="439" y="205" on="0"/>
        <pt x="462" y="289" on="0"/>
        <pt x="462" y="336" on="1"/>
        <pt x="462" y="398" on="0"/>
        <pt x="406" y="474" on="0"/>
      </contour>
    </TTGlyph>
    <TTGlyph name="OE" xMin="42" yMin="-14" xMax="998" yMax="714">
      <contour>
        <pt x="619" y="0" on="1"/>
        <pt x="480" y="0" on="1"/>
        <pt x="490" y="55" on="1"/>
        <pt x="455" y="22" on="0"/>
        <pt x="355" y="-14" on="0"/>
        <pt x="299" y="-14" on="1"/>
        <pt x="240" y="-14" on="0"/>
        <pt x="146" y="28" on="0"/>
        <pt x="78" y="104" on="0"/>
        <pt x="42" y="213" on="0"/>
        <pt x="42" y="279" on="1"/>
        <pt x="42" y="375" on="0"/>
        <pt x="104" y="534" on="0"/>
        <pt x="209" y="650" on="0"/>
        <pt x="349" y="714" on="0"/>
        <pt x="427" y="714" on="1"/>
        <pt x="484" y="714" on="0"/>
        <pt x="571" y="678" on="0"/>
        <pt x="594" y="645" on="1"/>
        <pt x="604" y="700" on="1"/>
        <pt x="998" y="700" on="1"/>
        <pt x="976" y="576" on="1"/>
        <pt x="715" y="576" on="1"/>
        <pt x="689" y="427" on="1"/>
        <pt x="890" y="427" on="1"/>
        <pt x="869" y="303" on="1"/>
        <pt x="667" y="303" on="1"/>
        <pt x="636" y="124" on="1"/>
        <pt x="905" y="124" on="1"/>
        <pt x="883" y="0" on="1"/>
      </contour>
      <contour>
        <pt x="406" y="591" on="1"/>
        <pt x="353" y="591" on="0"/>
        <pt x="271" y="542" on="0"/>
        <pt x="215" y="459" on="0"/>
        <pt x="185" y="349" on="0"/>
        <pt x="185" y="289" on="1"/>
        <pt x="185" y="250" on="0"/>
        <pt x="202" y="184" on="0"/>
        <pt x="235" y="136" on="0"/>
        <pt x="286" y="109" on="0"/>
        <pt x="321" y="109" on="1"/>
        <pt x="373" y="109" on="0"/>
        <pt x="455" y="158" on="0"/>
        <pt x="512" y="241" on="0"/>
        <pt x="542" y="351" on="0"/>
        <pt x="542" y="411" on="1"/>
        <pt x="542" y="450" on="0"/>
        <pt x="525" y="516" on="0"/>
        <pt x="492" y="564" on="0"/>
        <pt x="440" y="591" on="0"/>
      </contour>
    </TTGlyph>
    <TTGlyph name="OE.sc" xMin="31" yMin="-12" xMax="880" yMax="593">
      <contour>
        <pt x="547" y="0" on="1"/>
        <pt x="419" y="0" on="1"/>
        <pt x="425" y="33" on="1"/>
        <pt x="402" y="15" on="0"/>
        <pt x="315" y="-12" on="0"/>
        <pt x="265" y="-12" on="1"/>
        <pt x="212" y="-12" on="0"/>
        <pt x="125" y="24" on="0"/>
        <pt x="64" y="89" on="0"/>
        <pt x="31" y="180" on="0"/>
        <pt x="31" y="236" on="1"/>
        <pt x="31" y="314" on="0"/>
        <pt x="85" y="446" on="0"/>
        <pt x="178" y="540" on="0"/>
        <pt x="302" y="593" on="0"/>
        <pt x="372" y="593" on="1"/>
        <pt x="422" y="593" on="0"/>
        <pt x="499" y="566" on="0"/>
        <pt x="516" y="548" on="1"/>
        <pt x="522" y="581" on="1"/>
        <pt x="880" y="581" on="1"/>
        <pt x="859" y="461" on="1"/>
        <pt x="629" y="461" on="1"/>
        <pt x="612" y="362" on="1"/>
        <pt x="788" y="362" on="1"/>
        <pt x="767" y="243" on="1"/>
        <pt x="591" y="243" on="1"/>
        <pt x="569" y="120" on="1"/>
        <pt x="806" y="120" on="1"/>
        <pt x="785" y="0" on="1"/>
      </contour>
      <contour>
        <pt x="351" y="474" on="1"/>
        <pt x="308" y="474" on="0"/>
        <pt x="240" y="439" on="0"/>
        <pt x="194" y="377" on="0"/>
        <pt x="169" y="295" on="0"/>
        <pt x="169" y="248" on="1"/>
        <pt x="169" y="185" on="0"/>
        <pt x="226" y="107" on="0"/>
        <pt x="286" y="107" on="1"/>
        <pt x="329" y="107" on="0"/>
        <pt x="398" y="143" on="0"/>
        <pt x="444" y="204" on="0"/>
        <pt x="469" y="286" on="0"/>
        <pt x="469" y="333" on="1"/>
        <pt x="469" y="396" on="0"/>
        <pt x="411" y="474" on="0"/>
      </contour>
    </TTGlyph>
    <TTGlyph name="Oacute" xMin="42" yMin="-14" xMax="679" yMax="950">
      <component glyphName="O" x="0" y="0" flags="0x204"/>
      <component glyphName="acute" x="194" y="200" flags="0x4"/>
    </TTGlyph>
    <TTGlyph name="Ocircumflex" xMin="42" yMin="-14" xMax="679" yMax="950">
      <component glyphName="O" x="0" y="0" flags="0x204"/>
      <component glyphName="circumflex" x="129" y="200" flags="0x4"/>
    </TTGlyph>
    <TTGlyph name="Odieresis" xMin="42" yMin="-14" xMax="679" yMax="900">
      <component glyphName="O" x="0" y="0" flags="0x204"/>
      <component glyphName="dieresis" x="139" y="200" flags="0x4"/>
    </TTGlyph>
    <TTGlyph name="Ograve" xMin="42" yMin="-14" xMax="679" yMax="950">
      <component glyphName="O" x="0" y="0" flags="0x204"/>
      <component glyphName="grave" x="194" y="200" flags="0x4"/>
    </TTGlyph>
    <TTGlyph name="Oslash" xMin="-7" yMin="-31" xMax="721" yMax="716">
      <contour>
        <pt x="302" y="-14" on="1"/>
        <pt x="262" y="-14" on="0"/>
        <pt x="193" y="5" on="0"/>
        <pt x="169" y="22" on="1"/>
        <pt x="130" y="-31" on="1"/>
        <pt x="-7" y="-31" on="1"/>
        <pt x="90" y="87" on="1"/>
        <pt x="69" y="121" on="0"/>
        <pt x="47" y="221" on="0"/>
        <pt x="47" y="276" on="1"/>
        <pt x="47" y="372" on="0"/>
        <pt x="108" y="533" on="0"/>
        <pt x="213" y="649" on="0"/>
        <pt x="352" y="714" on="0"/>
        <pt x="430" y="714" on="1"/>
        <pt x="509" y="714" on="0"/>
        <pt x="558" y="680" on="1"/>
        <pt x="584" y="716" on="1"/>
        <pt x="721" y="716" on="1"/>
        <pt x="638" y="615" on="1"/>
        <pt x="660" y="581" on="0"/>
        <pt x="684" y="480" on="0"/>
        <pt x="684" y="423" on="1"/>
        <pt x="684" y="327" on="0"/>
        <pt x="623" y="166" on="0"/>
        <pt x="519" y="51" on="0"/>
        <pt x="380" y="-14" on="0"/>
      </contour>
      <contour>
        <pt x="259" y="126" on="1"/>
        <pt x="267" y="118" on="0"/>
        <pt x="301" y="109" on="0"/>
        <pt x="323" y="109" on="1"/>
        <pt x="375" y="109" on="0"/>
        <pt x="458" y="158" on="0"/>
        <pt x="515" y="243" on="0"/>
        <pt x="545" y="356" on="0"/>
        <pt x="545" y="419" on="1"/>
        <pt x="545" y="440" on="0"/>
        <pt x="542" y="487" on="0"/>
        <pt x="539" y="502" on="1"/>
      </contour>
      <contour>
        <pt x="408" y="591" on="1"/>
        <pt x="355" y="591" on="0"/>
        <pt x="273" y="542" on="0"/>
        <pt x="216" y="456" on="0"/>
        <pt x="186" y="342" on="0"/>
        <pt x="186" y="278" on="1"/>
        <pt x="186" y="259" on="0"/>
        <pt x="188" y="216" on="0"/>
        <pt x="190" y="202" on="1"/>
        <pt x="467" y="575" on="1"/>
        <pt x="459" y="583" on="0"/>
        <pt x="428" y="591" on="0"/>
      </contour>
    </TTGlyph>
    <TTGlyph name="Otilde" xMin="42" yMin="-14" xMax="679" yMax="921">
      <component glyphName="O" x="0" y="0" flags="0x204"/>
      <component glyphName="tilde" x="89" y="200" flags="0x4"/>
    </TTGlyph>
    <TTGlyph name="P" xMin="26" yMin="0" xMax="577" yMax="700">
      <contour>
        <pt x="193" y="230" on="1"/>
        <pt x="152" y="0" on="1"/>
        <pt x="26" y="0" on="1"/>
        <pt x="149" y="700" on="1"/>
        <pt x="318" y="700" on="1"/>
        <pt x="382" y="700" on="0"/>
        <pt x="479" y="688" on="0"/>
        <pt x="544" y="653" on="0"/>
        <pt x="577" y="589" on="0"/>
        <pt x="577" y="537" on="1"/>
        <pt x="577" y="444" on="0"/>
        <pt x="518" y="324" on="0"/>
        <pt x="432" y="256" on="0"/>
        <pt x="334" y="230" on="0"/>
        <pt x="295" y="230" on="1"/>
      </contour>
      <contour>
        <pt x="257" y="593" on="1"/>
        <pt x="214" y="350" on="1"/>
        <pt x="301" y="350" on="1"/>
        <pt x="344" y="350" on="0"/>
        <pt x="400" y="371" on="0"/>
        <pt x="433" y="412" on="0"/>
        <pt x="446" y="473" on="0"/>
        <pt x="446" y="514" on="1"/>
        <pt x="446" y="554" on="0"/>
        <pt x="405" y="593" on="0"/>
        <pt x="351" y="593" on="1"/>
      </contour>
    </TTGlyph>
    <TTGlyph name="P.sc" xMin="20" yMin="0" xMax="514" yMax="581">
      <contour>
        <pt x="172" y="184" on="1"/>
        <pt x="140" y="0" on="1"/>
        <pt x="20" y="0" on="1"/>
        <pt x="122" y="581" on="1"/>
        <pt x="266" y="581" on="1"/>
        <pt x="329" y="581" on="0"/>
        <pt x="422" y="571" on="0"/>
        <pt x="484" y="541" on="0"/>
        <pt x="514" y="487" on="0"/>
        <pt x="514" y="442" on="1"/>
        <pt x="514" y="362" on="0"/>
        <pt x="460" y="261" on="0"/>
        <pt x="381" y="204" on="0"/>
        <pt x="291" y="184" on="0"/>
        <pt x="256" y="184" on="1"/>
      </contour>
      <contour>
        <pt x="225" y="482" on="1"/>
        <pt x="193" y="299" on="1"/>
        <pt x="263" y="299" on="1"/>
        <pt x="300" y="299" on="0"/>
        <pt x="349" y="311" on="0"/>
        <pt x="378" y="339" on="0"/>
        <pt x="389" y="386" on="0"/>
        <pt x="389" y="421" on="1"/>
        <pt x="389" y="451" on="0"/>
        <pt x="355" y="482" on="0"/>
        <pt x="308" y="482" on="1"/>
      </contour>
    </TTGlyph>
    <TTGlyph name="Q" xMin="42" yMin="-14" xMax="679" yMax="714">
      <contour>
        <pt x="537" y="-10" on="1"/>
        <pt x="483" y="47" on="1"/>
        <pt x="445" y="17" on="0"/>
        <pt x="348" y="-14" on="0"/>
        <pt x="296" y="-14" on="1"/>
        <pt x="238" y="-14" on="0"/>
        <pt x="144" y="28" on="0"/>
        <pt x="78" y="104" on="0"/>
        <pt x="42" y="212" on="0"/>
        <pt x="42" y="278" on="1"/>
        <pt x="42" y="374" on="0"/>
        <pt x="103" y="534" on="0"/>
        <pt x="208" y="649" on="0"/>
        <pt x="347" y="714" on="0"/>
        <pt x="425" y="714" on="1"/>
        <pt x="483" y="714" on="0"/>
        <pt x="577" y="672" on="0"/>
        <pt x="643" y="596" on="0"/>
        <pt x="679" y="488" on="0"/>
        <pt x="679" y="422" on="1"/>
        <pt x="679" y="335" on="0"/>
        <pt x="623" y="190" on="0"/>
        <pt x="581" y="130" on="1"/>
        <pt x="629" y="79" on="1"/>
      </contour>
      <contour>
        <pt x="403" y="591" on="1"/>
        <pt x="351" y="591" on="0"/>
        <pt x="270" y="542" on="0"/>
        <pt x="213" y="459" on="0"/>
        <pt x="183" y="349" on="0"/>
        <pt x="183" y="289" on="1"/>
        <pt x="183" y="250" on="0"/>
        <pt x="200" y="184" on="0"/>
        <pt x="233" y="136" on="0"/>
        <pt x="284" y="109" on="0"/>
        <pt x="318" y="109" on="1"/>
        <pt x="343" y="109" on="0"/>
        <pt x="376" y="121" on="0"/>
        <pt x="392" y="132" on="1"/>
        <pt x="337" y="203" on="1"/>
        <pt x="428" y="292" on="1"/>
        <pt x="488" y="218" on="1"/>
        <pt x="494" y="237" on="0"/>
        <pt x="511" y="278" on="0"/>
        <pt x="525" y="326" on="0"/>
        <pt x="535" y="381" on="0"/>
        <pt x="535" y="414" on="1"/>
        <pt x="535" y="453" on="0"/>
        <pt x="519" y="518" on="0"/>
        <pt x="486" y="565" on="0"/>
        <pt x="437" y="591" on="0"/>
      </contour>
    </TTGlyph>
    <TTGlyph name="Q.sc" xMin="31" yMin="-14" xMax="597" yMax="593">
      <contour>
        <pt x="473" y="-14" on="1"/>
        <pt x="424" y="35" on="1"/>
        <pt x="392" y="12" on="0"/>
        <pt x="307" y="-12" on="0"/>
        <pt x="262" y="-12" on="1"/>
        <pt x="209" y="-12" on="0"/>
        <pt x="124" y="24" on="0"/>
        <pt x="64" y="89" on="0"/>
        <pt x="31" y="180" on="0"/>
        <pt x="31" y="236" on="1"/>
        <pt x="31" y="314" on="0"/>
        <pt x="85" y="445" on="0"/>
        <pt x="177" y="540" on="0"/>
        <pt x="299" y="593" on="0"/>
        <pt x="368" y="593" on="1"/>
        <pt x="420" y="593" on="0"/>
        <pt x="505" y="557" on="0"/>
        <pt x="565" y="493" on="0"/>
        <pt x="597" y="402" on="0"/>
        <pt x="597" y="347" on="1"/>
        <pt x="597" y="276" on="0"/>
        <pt x="550" y="158" on="0"/>
        <pt x="518" y="116" on="1"/>
        <pt x="562" y="73" on="1"/>
      </contour>
      <contour>
        <pt x="347" y="474" on="1"/>
        <pt x="303" y="474" on="0"/>
        <pt x="236" y="438" on="0"/>
        <pt x="190" y="376" on="0"/>
        <pt x="166" y="293" on="0"/>
        <pt x="166" y="246" on="1"/>
        <pt x="166" y="183" on="0"/>
        <pt x="223" y="107" on="0"/>
        <pt x="283" y="107" on="1"/>
        <pt x="303" y="107" on="0"/>
        <pt x="324" y="115" on="0"/>
        <pt x="334" y="119" on="1"/>
        <pt x="287" y="172" on="1"/>
        <pt x="376" y="258" on="1"/>
        <pt x="427" y="205" on="1"/>
        <pt x="428" y="213" on="0"/>
        <pt x="438" y="237" on="0"/>
        <pt x="448" y="270" on="0"/>
        <pt x="457" y="312" on="0"/>
        <pt x="457" y="339" on="1"/>
        <pt x="457" y="399" on="0"/>
        <pt x="404" y="474" on="0"/>
      </contour>
    </TTGlyph>
    <TTGlyph name="R" xMin="26" yMin="0" xMax="577" yMax="700">
      <contour>
        <pt x="389" y="0" on="1"/>
        <pt x="308" y="260" on="1"/>
        <pt x="198" y="260" on="1"/>
        <pt x="152" y="0" on="1"/>
        <pt x="26" y="0" on="1"/>
        <pt x="149" y="700" on="1"/>
        <pt x="391" y="700" on="1"/>
        <pt x="430" y="700" on="0"/>
        <pt x="497" y="683" on="0"/>
        <pt x="548" y="646" on="0"/>
        <pt x="577" y="584" on="0"/>
        <pt x="577" y="539" on="1"/>
        <pt x="577" y="490" on="0"/>
        <pt x="552" y="415" on="0"/>
        <pt x="512" y="357" on="0"/>
        <pt x="460" y="313" on="0"/>
        <pt x="432" y="294" on="1"/>
        <pt x="521" y="0" on="1"/>
      </contour>
      <contour>
        <pt x="257" y="593" on="1"/>
        <pt x="219" y="380" on="1"/>
        <pt x="282" y="380" on="1"/>
        <pt x="330" y="380" on="0"/>
        <pt x="392" y="397" on="0"/>
        <pt x="427" y="432" on="0"/>
        <pt x="440" y="485" on="0"/>
        <pt x="440" y="520" on="1"/>
        <pt x="440" y="554" on="0"/>
        <pt x="397" y="593" on="0"/>
        <pt x="335" y="593" on="1"/>
      </contour>
    </TTGlyph>
    <TTGlyph name="R.sc" xMin="20" yMin="0" xMax="512" yMax="581">
      <contour>
        <pt x="345" y="0" on="1"/>
        <pt x="272" y="210" on="1"/>
        <pt x="177" y="210" on="1"/>
        <pt x="140" y="0" on="1"/>
        <pt x="20" y="0" on="1"/>
        <pt x="122" y="581" on="1"/>
        <pt x="346" y="581" on="1"/>
        <pt x="380" y="581" on="0"/>
        <pt x="441" y="567" on="0"/>
        <pt x="486" y="535" on="0"/>
        <pt x="512" y="483" on="0"/>
        <pt x="512" y="446" on="1"/>
        <pt x="512" y="402" on="0"/>
        <pt x="491" y="339" on="0"/>
        <pt x="456" y="293" on="0"/>
        <pt x="412" y="258" on="0"/>
        <pt x="388" y="242" on="1"/>
        <pt x="470" y="0" on="1"/>
      </contour>
      <contour>
        <pt x="224" y="479" on="1"/>
        <pt x="197" y="322" on="1"/>
        <pt x="238" y="322" on="1"/>
        <pt x="287" y="322" on="0"/>
        <pt x="345" y="338" on="0"/>
        <pt x="373" y="366" on="0"/>
        <pt x="381" y="404" on="0"/>
        <pt x="381" y="426" on="1"/>
        <pt x="381" y="451" on="0"/>
        <pt x="345" y="479" on="0"/>
        <pt x="288" y="479" on="1"/>
      </contour>
    </TTGlyph>
    <TTGlyph name="S" xMin="5" yMin="-14" xMax="536" yMax="714">
      <contour>
        <pt x="206" y="-14" on="1"/>
        <pt x="128" y="-14" on="0"/>
        <pt x="25" y="17" on="0"/>
        <pt x="5" y="37" on="1"/>
        <pt x="45" y="181" on="1"/>
        <pt x="52" y="168" on="0"/>
        <pt x="83" y="143" on="0"/>
        <pt x="130" y="122" on="0"/>
        <pt x="191" y="109" on="0"/>
        <pt x="230" y="109" on="1"/>
        <pt x="279" y="109" on="0"/>
        <pt x="342" y="148" on="0"/>
        <pt x="342" y="198" on="1"/>
        <pt x="342" y="221" on="0"/>
        <pt x="320" y="255" on="0"/>
        <pt x="285" y="281" on="0"/>
        <pt x="243" y="301" on="0"/>
        <pt x="223" y="310" on="1"/>
        <pt x="202" y="319" on="0"/>
        <pt x="151" y="345" on="0"/>
        <pt x="106" y="384" on="0"/>
        <pt x="76" y="438" on="0"/>
        <pt x="76" y="477" on="1"/>
        <pt x="76" y="496" on="0"/>
        <pt x="84" y="546" on="0"/>
        <pt x="106" y="599" on="0"/>
        <pt x="144" y="650" on="0"/>
        <pt x="204" y="690" on="0"/>
        <pt x="288" y="714" on="0"/>
        <pt x="345" y="714" on="1"/>
        <pt x="381" y="714" on="0"/>
        <pt x="443" y="704" on="0"/>
        <pt x="493" y="688" on="0"/>
        <pt x="528" y="669" on="0"/>
        <pt x="536" y="660" on="1"/>
        <pt x="502" y="529" on="1"/>
        <pt x="458" y="560" on="0"/>
        <pt x="375" y="592" on="0"/>
        <pt x="326" y="592" on="1"/>
        <pt x="312" y="592" on="0"/>
        <pt x="271" y="585" on="0"/>
        <pt x="234" y="566" on="0"/>
        <pt x="207" y="533" on="0"/>
        <pt x="207" y="507" on="1"/>
        <pt x="207" y="489" on="0"/>
        <pt x="224" y="461" on="0"/>
        <pt x="253" y="440" on="0"/>
        <pt x="292" y="424" on="0"/>
        <pt x="313" y="416" on="1"/>
        <pt x="339" y="406" on="0"/>
        <pt x="401" y="380" on="0"/>
        <pt x="454" y="336" on="0"/>
        <pt x="489" y="272" on="0"/>
        <pt x="489" y="224" on="1"/>
        <pt x="489" y="181" on="0"/>
        <pt x="467" y="96" on="0"/>
        <pt x="406" y="28" on="0"/>
        <pt x="295" y="-14" on="0"/>
      </contour>
    </TTGlyph>
    <TTGlyph name="S.sc" xMin="2" yMin="-12" xMax="470" yMax="593">
      <contour>
        <pt x="183" y="-12" on="1"/>
        <pt x="117" y="-12" on="0"/>
        <pt x="22" y="16" on="0"/>
        <pt x="2" y="33" on="1"/>
        <pt x="40" y="170" on="1"/>
        <pt x="55" y="146" on="0"/>
        <pt x="138" y="107" on="0"/>
        <pt x="207" y="107" on="1"/>
        <pt x="256" y="107" on="0"/>
        <pt x="292" y="133" on="0"/>
        <pt x="292" y="166" on="1"/>
        <pt x="292" y="184" on="0"/>
        <pt x="274" y="210" on="0"/>
        <pt x="244" y="229" on="0"/>
        <pt x="206" y="245" on="0"/>
        <pt x="187" y="252" on="1"/>
        <pt x="165" y="260" on="0"/>
        <pt x="120" y="281" on="0"/>
        <pt x="83" y="313" on="0"/>
        <pt x="60" y="358" on="0"/>
        <pt x="60" y="390" on="1"/>
        <pt x="60" y="422" on="0"/>
        <pt x="87" y="493" on="0"/>
        <pt x="144" y="553" on="0"/>
        <pt x="235" y="593" on="0"/>
        <pt x="298" y="593" on="1"/>
        <pt x="328" y="593" on="0"/>
        <pt x="383" y="584" on="0"/>
        <pt x="428" y="570" on="0"/>
        <pt x="462" y="553" on="0"/>
        <pt x="470" y="545" on="1"/>
        <pt x="437" y="423" on="1"/>
        <pt x="393" y="451" on="0"/>
        <pt x="317" y="475" on="0"/>
        <pt x="278" y="475" on="1"/>
        <pt x="265" y="475" on="0"/>
        <pt x="232" y="472" on="0"/>
        <pt x="204" y="461" on="0"/>
        <pt x="184" y="439" on="0"/>
        <pt x="184" y="420" on="1"/>
        <pt x="184" y="406" on="0"/>
        <pt x="200" y="385" on="0"/>
        <pt x="226" y="369" on="0"/>
        <pt x="261" y="356" on="0"/>
        <pt x="279" y="350" on="1"/>
        <pt x="304" y="341" on="0"/>
        <pt x="359" y="319" on="0"/>
        <pt x="404" y="283" on="0"/>
        <pt x="433" y="230" on="0"/>
        <pt x="433" y="191" on="1"/>
        <pt x="433" y="178" on="0"/>
        <pt x="428" y="137" on="0"/>
        <pt x="411" y="92" on="0"/>
        <pt x="379" y="47" on="0"/>
        <pt x="323" y="11" on="0"/>
        <pt x="241" y="-12" on="0"/>
      </contour>
    </TTGlyph>
    <TTGlyph name="Scaron" xMin="5" yMin="-14" xMax="536" yMax="950">
      <component glyphName="S" x="0" y="0" flags="0x204"/>
      <component glyphName="caron" x="47" y="200" flags="0x4"/>
    </TTGlyph>
    <TTGlyph name="T" xMin="79" yMin="0" xMax="581" yMax="700">
      <contour>
        <pt x="383" y="576" on="1"/>
        <pt x="281" y="0" on="1"/>
        <pt x="153" y="0" on="1"/>
        <pt x="255" y="576" on="1"/>
        <pt x="79" y="576" on="1"/>
        <pt x="101" y="700" on="1"/>
        <pt x="581" y="700" on="1"/>
        <pt x="559" y="576" on="1"/>
      </contour>
    </TTGlyph>
    <TTGlyph name="T.sc" xMin="52" yMin="0" xMax="507" yMax="581">
      <contour>
        <pt x="330" y="461" on="1"/>
        <pt x="249" y="0" on="1"/>
        <pt x="126" y="0" on="1"/>
        <pt x="207" y="461" on="1"/>
        <pt x="52" y="461" on="1"/>
        <pt x="73" y="581" on="1"/>
        <pt x="507" y="581" on="1"/>
        <pt x="486" y="461" on="1"/>
      </contour>
    </TTGlyph>
    <TTGlyph name="Thorn" xMin="26" yMin="0" xMax="557" yMax="700">
      <contour>
        <pt x="172" y="114" on="1"/>
        <pt x="152" y="0" on="1"/>
        <pt x="26" y="0" on="1"/>
        <pt x="149" y="700" on="1"/>
        <pt x="275" y="700" on="1"/>
        <pt x="255" y="584" on="1"/>
        <pt x="297" y="584" on="1"/>
        <pt x="361" y="584" on="0"/>
        <pt x="458" y="572" on="0"/>
        <pt x="524" y="537" on="0"/>
        <pt x="557" y="473" on="0"/>
        <pt x="557" y="421" on="1"/>
        <pt x="557" y="328" on="0"/>
        <pt x="498" y="208" on="0"/>
        <pt x="412" y="140" on="0"/>
        <pt x="313" y="114" on="0"/>
        <pt x="274" y="114" on="1"/>
      </contour>
      <contour>
        <pt x="236" y="477" on="1"/>
        <pt x="193" y="234" on="1"/>
        <pt x="280" y="234" on="1"/>
        <pt x="323" y="234" on="0"/>
        <pt x="379" y="255" on="0"/>
        <pt x="412" y="296" on="0"/>
        <pt x="425" y="357" on="0"/>
        <pt x="425" y="398" on="1"/>
        <pt x="425" y="438" on="0"/>
        <pt x="384" y="477" on="0"/>
        <pt x="330" y="477" on="1"/>
      </contour>
    </TTGlyph>
    <TTGlyph name="U" xMin="63" yMin="-14" xMax="665" yMax="700">
      <contour>
        <pt x="277" y="-14" on="1"/>
        <pt x="167" y="-14" on="0"/>
        <pt x="63" y="104" on="0"/>
        <pt x="63" y="207" on="1"/>
        <pt x="63" y="250" on="0"/>
        <pt x="72" y="300" on="1"/>
        <pt x="143" y="700" on="1"/>
        <pt x="270" y="700" on="1"/>
        <pt x="207" y="343" on="1"/>
        <pt x="202" y="314" on="0"/>
        <pt x="196" y="261" on="0"/>
        <pt x="196" y="237" on="1"/>
        <pt x="196" y="208" on="0"/>
        <pt x="206" y="161" on="0"/>
        <pt x="230" y="128" on="0"/>
        <pt x="270" y="109" on="0"/>
        <pt x="299" y="109" on="1"/>
        <pt x="340" y="109" on="0"/>
        <pt x="398" y="146" on="0"/>
        <pt x="438" y="209" on="0"/>
        <pt x="464" y="294" on="0"/>
        <pt x="473" y="343" on="1"/>
        <pt x="536" y="700" on="1"/>
        <pt x="665" y="700" on="1"/>
        <pt x="594" y="300" on="1"/>
        <pt x="581" y="229" on="0"/>
        <pt x="529" y="113" on="0"/>
        <pt x="449" y="31" on="0"/>
        <pt x="343" y="-14" on="0"/>
      </contour>
    </TTGlyph>
    <TTGlyph name="U.sc" xMin="51" yMin="-12" xMax="581" yMax="581">
      <contour>
        <pt x="244" y="-12" on="1"/>
        <pt x="144" y="-12" on="0"/>
        <pt x="51" y="92" on="0"/>
        <pt x="51" y="179" on="1"/>
        <pt x="51" y="196" on="0"/>
        <pt x="54" y="231" on="0"/>
        <pt x="58" y="250" on="1"/>
        <pt x="116" y="581" on="1"/>
        <pt x="238" y="581" on="1"/>
        <pt x="186" y="285" on="1"/>
        <pt x="182" y="263" on="0"/>
        <pt x="177" y="224" on="0"/>
        <pt x="177" y="206" on="1"/>
        <pt x="177" y="160" on="0"/>
        <pt x="216" y="107" on="0"/>
        <pt x="265" y="107" on="1"/>
        <pt x="298" y="107" on="0"/>
        <pt x="346" y="133" on="0"/>
        <pt x="379" y="180" on="0"/>
        <pt x="400" y="246" on="0"/>
        <pt x="407" y="285" on="1"/>
        <pt x="459" y="581" on="1"/>
        <pt x="581" y="581" on="1"/>
        <pt x="523" y="250" on="1"/>
        <pt x="513" y="191" on="0"/>
        <pt x="468" y="95" on="0"/>
        <pt x="398" y="26" on="0"/>
        <pt x="304" y="-12" on="0"/>
      </contour>
    </TTGlyph>
    <TTGlyph name="Uacute" xMin="63" yMin="-14" xMax="665" yMax="950">
      <component glyphName="U" x="0" y="0" flags="0x204"/>
      <component glyphName="acute" x="175" y="200" flags="0x4"/>
    </TTGlyph>
    <TTGlyph name="Ucircumflex" xMin="63" yMin="-14" xMax="665" yMax="950">
      <component glyphName="U" x="0" y="0" flags="0x204"/>
      <component glyphName="circumflex" x="111" y="200" flags="0x4"/>
    </TTGlyph>
    <TTGlyph name="Udieresis" xMin="63" yMin="-14" xMax="665" yMax="900">
      <component glyphName="U" x="0" y="0" flags="0x204"/>
      <component glyphName="dieresis" x="121" y="200" flags="0x4"/>
    </TTGlyph>
    <TTGlyph name="Ugrave" xMin="63" yMin="-14" xMax="665" yMax="950">
      <component glyphName="U" x="0" y="0" flags="0x204"/>
      <component glyphName="grave" x="176" y="200" flags="0x4"/>
    </TTGlyph>
    <TTGlyph name="V" xMin="70" yMin="0" xMax="666" yMax="700">
      <contour>
        <pt x="329" y="0" on="1"/>
        <pt x="167" y="0" on="1"/>
        <pt x="70" y="700" on="1"/>
        <pt x="203" y="700" on="1"/>
        <pt x="276" y="169" on="1"/>
        <pt x="534" y="700" on="1"/>
        <pt x="666" y="700" on="1"/>
      </contour>
    </TTGlyph>
    <TTGlyph name="V.sc" xMin="51" yMin="0" xMax="587" yMax="581">
      <contour>
        <pt x="300" y="0" on="1"/>
        <pt x="142" y="0" on="1"/>
        <pt x="51" y="581" on="1"/>
        <pt x="178" y="581" on="1"/>
        <pt x="249" y="167" on="1"/>
        <pt x="462" y="581" on="1"/>
        <pt x="587" y="581" on="1"/>
      </contour>
    </TTGlyph>
    <TTGlyph name="W" xMin="87" yMin="0" xMax="996" yMax="700">
      <contour>
        <pt x="676" y="0" on="1"/>
        <pt x="566" y="0" on="1"/>
        <pt x="500" y="467" on="1"/>
        <pt x="271" y="0" on="1"/>
        <pt x="153" y="0" on="1"/>
        <pt x="87" y="700" on="1"/>
        <pt x="220" y="700" on="1"/>
        <pt x="264" y="203" on="1"/>
        <pt x="499" y="700" on="1"/>
        <pt x="585" y="700" on="1"/>
        <pt x="652" y="216" on="1"/>
        <pt x="863" y="700" on="1"/>
        <pt x="996" y="700" on="1"/>
      </contour>
    </TTGlyph>
    <TTGlyph name="W.sc" xMin="68" yMin="0" xMax="829" yMax="587">
      <contour>
        <pt x="562" y="0" on="1"/>
        <pt x="466" y="0" on="1"/>
        <pt x="407" y="340" on="1"/>
        <pt x="231" y="0" on="1"/>
        <pt x="125" y="0" on="1"/>
        <pt x="68" y="581" on="1"/>
        <pt x="195" y="581" on="1"/>
        <pt x="233" y="211" on="1"/>
        <pt x="413" y="587" on="1"/>
        <pt x="486" y="587" on="1"/>
        <pt x="544" y="227" on="1"/>
        <pt x="703" y="581" on="1"/>
        <pt x="829" y="581" on="1"/>
      </contour>
    </TTGlyph>
    <TTGlyph name="X" xMin="-49" yMin="0" xMax="641" yMax="700">
      <contour>
        <pt x="384" y="0" on="1"/>
        <pt x="288" y="257" on="1"/>
        <pt x="102" y="0" on="1"/>
        <pt x="-49" y="0" on="1"/>
        <pt x="239" y="349" on="1"/>
        <pt x="89" y="700" on="1"/>
        <pt x="237" y="700" on="1"/>
        <pt x="332" y="454" on="1"/>
        <pt x="491" y="700" on="1"/>
        <pt x="641" y="700" on="1"/>
        <pt x="383" y="363" on="1"/>
        <pt x="535" y="0" on="1"/>
      </contour>
    </TTGlyph>
    <TTGlyph name="X.sc" xMin="-48" yMin="0" xMax="568" yMax="581">
      <contour>
        <pt x="337" y="0" on="1"/>
        <pt x="255" y="200" on="1"/>
        <pt x="98" y="0" on="1"/>
        <pt x="-48" y="0" on="1"/>
        <pt x="209" y="290" on="1"/>
        <pt x="70" y="581" on="1"/>
        <pt x="212" y="581" on="1"/>
        <pt x="297" y="389" on="1"/>
        <pt x="422" y="581" on="1"/>
        <pt x="568" y="581" on="1"/>
        <pt x="346" y="302" on="1"/>
        <pt x="485" y="0" on="1"/>
      </contour>
    </TTGlyph>
    <TTGlyph name="Y" xMin="73" yMin="0" xMax="639" yMax="700">
      <contour>
        <pt x="350" y="310" on="1"/>
        <pt x="296" y="0" on="1"/>
        <pt x="169" y="0" on="1"/>
        <pt x="224" y="310" on="1"/>
        <pt x="73" y="700" on="1"/>
        <pt x="209" y="700" on="1"/>
        <pt x="307" y="424" on="1"/>
        <pt x="503" y="700" on="1"/>
        <pt x="639" y="700" on="1"/>
      </contour>
    </TTGlyph>
    <TTGlyph name="Y.sc" xMin="49" yMin="0" xMax="564" yMax="581">
      <contour>
        <pt x="308" y="251" on="1"/>
        <pt x="263" y="0" on="1"/>
        <pt x="145" y="0" on="1"/>
        <pt x="189" y="251" on="1"/>
        <pt x="49" y="581" on="1"/>
        <pt x="179" y="581" on="1"/>
        <pt x="268" y="359" on="1"/>
        <pt x="434" y="581" on="1"/>
        <pt x="564" y="581" on="1"/>
      </contour>
    </TTGlyph>
    <TTGlyph name="Yacute" xMin="73" yMin="0" xMax="639" yMax="950">
      <component glyphName="Y" x="0" y="0" flags="0x204"/>
      <component glyphName="acute" x="122" y="200" flags="0x4"/>
    </TTGlyph>
    <TTGlyph name="Ydieresis" xMin="73" yMin="0" xMax="639" yMax="900">
      <component glyphName="Y" x="0" y="0" flags="0x204"/>
      <component glyphName="dieresis" x="67" y="200" flags="0x4"/>
    </TTGlyph>
    <TTGlyph name="Z" xMin="-39" yMin="0" xMax="564" yMax="700">
      <contour>
        <pt x="194" y="124" on="1"/>
        <pt x="422" y="124" on="1"/>
        <pt x="400" y="0" on="1"/>
        <pt x="-39" y="0" on="1"/>
        <pt x="331" y="576" on="1"/>
        <pt x="103" y="576" on="1"/>
        <pt x="125" y="700" on="1"/>
        <pt x="564" y="700" on="1"/>
      </contour>
    </TTGlyph>
    <TTGlyph name="Z.sc" xMin="-36" yMin="0" xMax="495" yMax="581">
      <contour>
        <pt x="187" y="120" on="1"/>
        <pt x="377" y="120" on="1"/>
        <pt x="356" y="0" on="1"/>
        <pt x="-36" y="0" on="1"/>
        <pt x="272" y="461" on="1"/>
        <pt x="82" y="461" on="1"/>
        <pt x="103" y="581" on="1"/>
        <pt x="495" y="581" on="1"/>
      </contour>
    </TTGlyph>
    <TTGlyph name="Zcaron" xMin="-39" yMin="0" xMax="564" yMax="950">
      <component glyphName="Z" x="0" y="0" flags="0x204"/>
      <component glyphName="caron" x="26" y="200" flags="0x4"/>
    </TTGlyph>
    <TTGlyph name="a" xMin="18" yMin="-10" xMax="537" yMax="508">
      <contour>
        <pt x="479" y="158" on="1"/>
        <pt x="477" y="145" on="0"/>
        <pt x="475" y="126" on="0"/>
        <pt x="475" y="120" on="1"/>
        <pt x="475" y="99" on="0"/>
        <pt x="496" y="92" on="0"/>
        <pt x="524" y="92" on="1"/>
        <pt x="496" y="-10" on="1"/>
        <pt x="458" y="-10" on="0"/>
        <pt x="410" y="-5" on="0"/>
        <pt x="379" y="7" on="0"/>
        <pt x="359" y="30" on="0"/>
        <pt x="350" y="48" on="1"/>
        <pt x="328" y="28" on="0"/>
        <pt x="260" y="-10" on="0"/>
        <pt x="207" y="-10" on="1"/>
        <pt x="162" y="-10" on="0"/>
        <pt x="92" y="22" on="0"/>
        <pt x="44" y="79" on="0"/>
        <pt x="18" y="158" on="0"/>
        <pt x="18" y="204" on="1"/>
        <pt x="18" y="261" on="0"/>
        <pt x="57" y="371" on="0"/>
        <pt x="132" y="456" on="0"/>
        <pt x="239" y="508" on="0"/>
        <pt x="307" y="508" on="1"/>
        <pt x="345" y="508" on="0"/>
        <pt x="390" y="491" on="0"/>
        <pt x="409" y="475" on="1"/>
        <pt x="423" y="500" on="1"/>
        <pt x="537" y="500" on="1"/>
      </contour>
      <contour>
        <pt x="296" y="406" on="1"/>
        <pt x="263" y="406" on="0"/>
        <pt x="208" y="376" on="0"/>
        <pt x="169" y="323" on="0"/>
        <pt x="147" y="253" on="0"/>
        <pt x="147" y="214" on="1"/>
        <pt x="147" y="159" on="0"/>
        <pt x="193" y="92" on="0"/>
        <pt x="245" y="92" on="1"/>
        <pt x="287" y="92" on="0"/>
        <pt x="339" y="133" on="0"/>
        <pt x="369" y="194" on="0"/>
        <pt x="380" y="263" on="0"/>
        <pt x="380" y="292" on="1"/>
        <pt x="380" y="345" on="0"/>
        <pt x="344" y="406" on="0"/>
      </contour>
    </TTGlyph>
    <TTGlyph name="aacute" xMin="18" yMin="-10" xMax="537" yMax="750">
      <component glyphName="a" x="0" y="0" flags="0x204"/>
      <component glyphName="acute" x="129" y="0" flags="0x4"/>
    </TTGlyph>
    <TTGlyph name="acircumflex" xMin="18" yMin="-10" xMax="537" yMax="750">
      <component glyphName="a" x="0" y="0" flags="0x204"/>
      <component glyphName="circumflex" x="60" y="0" flags="0x4"/>
    </TTGlyph>
    <TTGlyph name="acute" xMin="159" yMin="585" xMax="356" yMax="750">
      <contour>
        <pt x="159" y="585" on="1"/>
        <pt x="172" y="659" on="1"/>
        <pt x="356" y="750" on="1"/>
        <pt x="338" y="646" on="1"/>
      </contour>
    </TTGlyph>
    <TTGlyph name="adieresis" xMin="18" yMin="-10" xMax="537" yMax="700">
      <component glyphName="a" x="0" y="0" flags="0x204"/>
      <component glyphName="dieresis" x="72" y="0" flags="0x4"/>
    </TTGlyph>
    <TTGlyph name="ae" xMin="-9" yMin="-15" xMax="699" yMax="508">
      <contour>
        <pt x="395" y="223" on="1"/>
        <pt x="396" y="188" on="0"/>
        <pt x="413" y="138" on="0"/>
        <pt x="440" y="107" on="0"/>
        <pt x="475" y="92" on="0"/>
        <pt x="493" y="92" on="1"/>
        <pt x="508" y="92" on="0"/>
        <pt x="550" y="99" on="0"/>
        <pt x="593" y="110" on="0"/>
        <pt x="632" y="125" on="0"/>
        <pt x="646" y="133" on="1"/>
        <pt x="629" y="28" on="1"/>
        <pt x="603" y="13" on="0"/>
        <pt x="520" y="-10" on="0"/>
        <pt x="471" y="-10" on="1"/>
        <pt x="401" y="-10" on="0"/>
        <pt x="320" y="42" on="0"/>
        <pt x="308" y="84" on="1"/>
        <pt x="288" y="63" on="0"/>
        <pt x="249" y="27" on="0"/>
        <pt x="205" y="0" on="0"/>
        <pt x="153" y="-15" on="0"/>
        <pt x="122" y="-15" on="1"/>
        <pt x="59" y="-15" on="0"/>
        <pt x="-9" y="48" on="0"/>
        <pt x="-9" y="102" on="1"/>
        <pt x="-9" y="146" on="0"/>
        <pt x="21" y="210" on="0"/>
        <pt x="69" y="257" on="0"/>
        <pt x="129" y="287" on="0"/>
        <pt x="192" y="305" on="0"/>
        <pt x="251" y="313" on="0"/>
        <pt x="273" y="314" on="1"/>
        <pt x="277" y="333" on="0"/>
        <pt x="277" y="350" on="1"/>
        <pt x="277" y="376" on="0"/>
        <pt x="249" y="401" on="0"/>
        <pt x="217" y="401" on="1"/>
        <pt x="185" y="401" on="0"/>
        <pt x="123" y="383" on="0"/>
        <pt x="81" y="363" on="1"/>
        <pt x="88" y="464" on="1"/>
        <pt x="181" y="508" on="0"/>
        <pt x="268" y="508" on="1"/>
        <pt x="298" y="508" on="0"/>
        <pt x="339" y="500" on="0"/>
        <pt x="366" y="479" on="0"/>
        <pt x="381" y="445" on="0"/>
        <pt x="386" y="419" on="1"/>
        <pt x="392" y="435" on="0"/>
        <pt x="422" y="467" on="0"/>
        <pt x="466" y="492" on="0"/>
        <pt x="521" y="508" on="0"/>
        <pt x="552" y="508" on="1"/>
        <pt x="620" y="508" on="0"/>
        <pt x="699" y="415" on="0"/>
        <pt x="699" y="336" on="1"/>
        <pt x="699" y="310" on="0"/>
        <pt x="689" y="261" on="0"/>
        <pt x="673" y="223" on="1"/>
      </contour>
      <contour>
        <pt x="530" y="406" on="1"/>
        <pt x="491" y="406" on="0"/>
        <pt x="425" y="351" on="0"/>
        <pt x="411" y="307" on="1"/>
        <pt x="587" y="307" on="1"/>
        <pt x="590" y="323" on="0"/>
        <pt x="590" y="340" on="1"/>
        <pt x="590" y="366" on="0"/>
        <pt x="565" y="406" on="0"/>
      </contour>
      <contour>
        <pt x="266" y="230" on="1"/>
        <pt x="245" y="230" on="0"/>
        <pt x="196" y="218" on="0"/>
        <pt x="154" y="194" on="0"/>
        <pt x="126" y="155" on="0"/>
        <pt x="126" y="127" on="1"/>
        <pt x="126" y="106" on="0"/>
        <pt x="147" y="81" on="0"/>
        <pt x="164" y="81" on="1"/>
        <pt x="178" y="81" on="0"/>
        <pt x="211" y="100" on="0"/>
        <pt x="240" y="137" on="0"/>
        <pt x="263" y="193" on="0"/>
      </contour>
    </TTGlyph>
    <TTGlyph name="agrave" xMin="18" yMin="-10" xMax="537" yMax="750">
      <component glyphName="a" x="0" y="0" flags="0x204"/>
      <component glyphName="grave" x="129" y="0" flags="0x4"/>
    </TTGlyph>
    <TTGlyph name="ampersand" xMin="9" yMin="-24" xMax="529" yMax="703">
      <contour>
        <pt x="379" y="0" on="1"/>
        <pt x="363" y="34" on="1"/>
        <pt x="333" y="8" on="0"/>
        <pt x="245" y="-24" on="0"/>
        <pt x="188" y="-24" on="1"/>
        <pt x="141" y="-24" on="0"/>
        <pt x="73" y="2" on="0"/>
        <pt x="30" y="46" on="0"/>
        <pt x="9" y="105" on="0"/>
        <pt x="9" y="137" on="1"/>
        <pt x="9" y="178" on="0"/>
        <pt x="36" y="245" on="0"/>
        <pt x="79" y="300" on="0"/>
        <pt x="131" y="346" on="0"/>
        <pt x="156" y="367" on="1"/>
        <pt x="142" y="399" on="0"/>
        <pt x="116" y="474" on="0"/>
        <pt x="116" y="514" on="1"/>
        <pt x="116" y="558" on="0"/>
        <pt x="155" y="628" on="0"/>
        <pt x="216" y="677" on="0"/>
        <pt x="294" y="703" on="0"/>
        <pt x="333" y="703" on="1"/>
        <pt x="394" y="703" on="0"/>
        <pt x="460" y="638" on="0"/>
        <pt x="460" y="585" on="1"/>
        <pt x="460" y="547" on="0"/>
        <pt x="434" y="487" on="0"/>
        <pt x="390" y="436" on="0"/>
        <pt x="335" y="393" on="0"/>
        <pt x="305" y="371" on="1"/>
        <pt x="383" y="211" on="1"/>
        <pt x="390" y="246" on="0"/>
        <pt x="400" y="320" on="0"/>
        <pt x="406" y="352" on="1"/>
        <pt x="528" y="352" on="1"/>
        <pt x="524" y="331" on="0"/>
        <pt x="512" y="275" on="0"/>
        <pt x="493" y="214" on="0"/>
        <pt x="467" y="150" on="0"/>
        <pt x="449" y="120" on="1"/>
        <pt x="529" y="0" on="1"/>
      </contour>
      <contour>
        <pt x="313" y="604" on="1"/>
        <pt x="281" y="604" on="0"/>
        <pt x="242" y="558" on="0"/>
        <pt x="242" y="518" on="1"/>
        <pt x="242" y="498" on="0"/>
        <pt x="254" y="455" on="0"/>
        <pt x="263" y="432" on="1"/>
        <pt x="296" y="461" on="0"/>
        <pt x="346" y="521" on="0"/>
        <pt x="346" y="563" on="1"/>
        <pt x="346" y="586" on="0"/>
        <pt x="328" y="604" on="0"/>
      </contour>
      <contour>
        <pt x="204" y="300" on="1"/>
        <pt x="175" y="266" on="0"/>
        <pt x="143" y="194" on="0"/>
        <pt x="143" y="150" on="1"/>
        <pt x="143" y="135" on="0"/>
        <pt x="150" y="107" on="0"/>
        <pt x="169" y="84" on="0"/>
        <pt x="201" y="71" on="0"/>
        <pt x="226" y="71" on="1"/>
        <pt x="252" y="71" on="0"/>
        <pt x="294" y="89" on="0"/>
        <pt x="311" y="105" on="1"/>
      </contour>
    </TTGlyph>
    <TTGlyph name="aring" xMin="18" yMin="-10" xMax="537" yMax="755">
      <component glyphName="a" x="0" y="0" flags="0x204"/>
      <component glyphName="ring" x="136" y="0" flags="0x4"/>
    </TTGlyph>
    <TTGlyph name="asciicircum" xMin="118" yMin="400" xMax="515" yMax="759">
      <contour>
        <pt x="341" y="612" on="1"/>
        <pt x="118" y="400" on="1"/>
        <pt x="144" y="547" on="1"/>
        <pt x="367" y="759" on="1"/>
        <pt x="515" y="547" on="1"/>
        <pt x="489" y="400" on="1"/>
      </contour>
    </TTGlyph>
    <TTGlyph name="asciitilde" xMin="30" yMin="171" xMax="395" yMax="298">
      <contour>
        <pt x="267" y="176" on="1"/>
        <pt x="246" y="176" on="0"/>
        <pt x="219" y="189" on="0"/>
        <pt x="196" y="205" on="0"/>
        <pt x="175" y="218" on="0"/>
        <pt x="162" y="218" on="1"/>
        <pt x="144" y="218" on="0"/>
        <pt x="123" y="186" on="0"/>
        <pt x="119" y="171" on="1"/>
        <pt x="30" y="191" on="1"/>
        <pt x="36" y="216" on="0"/>
        <pt x="64" y="254" on="0"/>
        <pt x="103" y="280" on="0"/>
        <pt x="148" y="293" on="0"/>
        <pt x="169" y="293" on="1"/>
        <pt x="192" y="293" on="0"/>
        <pt x="216" y="280" on="0"/>
        <pt x="232" y="264" on="0"/>
        <pt x="246" y="251" on="0"/>
        <pt x="259" y="251" on="1"/>
        <pt x="280" y="251" on="0"/>
        <pt x="312" y="283" on="0"/>
        <pt x="314" y="298" on="1"/>
        <pt x="395" y="278" on="1"/>
        <pt x="390" y="259" on="0"/>
        <pt x="368" y="223" on="0"/>
        <pt x="335" y="194" on="0"/>
        <pt x="292" y="176" on="0"/>
      </contour>
    </TTGlyph>
    <TTGlyph name="asterisk" xMin="88" yMin="409" xMax="443" yMax="749">
      <contour>
        <pt x="256" y="549" on="1"/>
        <pt x="159" y="409" on="1"/>
        <pt x="97" y="474" on="1"/>
        <pt x="227" y="565" on="1"/>
        <pt x="88" y="617" on="1"/>
        <pt x="154" y="699" on="1"/>
        <pt x="249" y="592" on="1"/>
        <pt x="237" y="749" on="1"/>
        <pt x="340" y="749" on="1"/>
        <pt x="272" y="592" on="1"/>
        <pt x="406" y="699" on="1"/>
        <pt x="443" y="617" on="1"/>
        <pt x="291" y="567" on="1"/>
        <pt x="385" y="477" on="1"/>
        <pt x="301" y="412" on="1"/>
      </contour>
    </TTGlyph>
    <TTGlyph name="at" xMin="21" yMin="-87" xMax="620" yMax="553">
      <contour>
        <pt x="511" y="379" on="1"/>
        <pt x="497" y="399" on="0"/>
        <pt x="449" y="432" on="0"/>
        <pt x="411" y="432" on="1"/>
        <pt x="365" y="432" on="0"/>
        <pt x="265" y="376" on="0"/>
        <pt x="183" y="287" on="0"/>
        <pt x="129" y="178" on="0"/>
        <pt x="129" y="124" on="1"/>
        <pt x="129" y="91" on="0"/>
        <pt x="158" y="40" on="0"/>
        <pt x="194" y="40" on="1"/>
        <pt x="214" y="40" on="0"/>
        <pt x="261" y="55" on="0"/>
        <pt x="310" y="85" on="0"/>
        <pt x="357" y="128" on="0"/>
        <pt x="377" y="156" on="1"/>
        <pt x="375" y="148" on="0"/>
        <pt x="366" y="122" on="0"/>
        <pt x="366" y="102" on="1"/>
        <pt x="366" y="81" on="0"/>
        <pt x="383" y="42" on="0"/>
        <pt x="406" y="42" on="1"/>
        <pt x="418" y="42" on="0"/>
        <pt x="452" y="53" on="0"/>
        <pt x="487" y="71" on="0"/>
        <pt x="521" y="94" on="0"/>
        <pt x="534" y="106" on="1"/>
        <pt x="505" y="63" on="0"/>
        <pt x="431" y="-8" on="0"/>
        <pt x="345" y="-59" on="0"/>
        <pt x="252" y="-87" on="0"/>
        <pt x="205" y="-87" on="1"/>
        <pt x="117" y="-87" on="0"/>
        <pt x="21" y="19" on="0"/>
        <pt x="21" y="114" on="1"/>
        <pt x="21" y="174" on="0"/>
        <pt x="54" y="287" on="0"/>
        <pt x="112" y="384" on="0"/>
        <pt x="190" y="464" on="0"/>
        <pt x="282" y="522" on="0"/>
        <pt x="383" y="553" on="0"/>
        <pt x="434" y="553" on="1"/>
        <pt x="525" y="553" on="0"/>
        <pt x="620" y="445" on="0"/>
        <pt x="620" y="353" on="1"/>
        <pt x="620" y="312" on="0"/>
        <pt x="599" y="221" on="0"/>
        <pt x="557" y="144" on="0"/>
        <pt x="493" y="94" on="0"/>
        <pt x="450" y="94" on="1"/>
        <pt x="436" y="94" on="0"/>
        <pt x="418" y="105" on="0"/>
        <pt x="418" y="128" on="1"/>
        <pt x="418" y="150" on="0"/>
        <pt x="433" y="199" on="0"/>
        <pt x="459" y="259" on="0"/>
        <pt x="493" y="332" on="0"/>
      </contour>
      <contour>
        <pt x="408" y="371" on="1"/>
        <pt x="416" y="371" on="0"/>
        <pt x="442" y="365" on="0"/>
        <pt x="445" y="349" on="1"/>
        <pt x="431" y="309" on="0"/>
        <pt x="380" y="223" on="0"/>
        <pt x="319" y="152" on="0"/>
        <pt x="258" y="106" on="0"/>
        <pt x="236" y="106" on="1"/>
        <pt x="219" y="106" on="0"/>
        <pt x="205" y="132" on="0"/>
        <pt x="205" y="152" on="1"/>
        <pt x="205" y="196" on="0"/>
        <pt x="248" y="275" on="0"/>
        <pt x="311" y="335" on="0"/>
        <pt x="381" y="371" on="0"/>
      </contour>
    </TTGlyph>
    <TTGlyph name="atilde" xMin="18" yMin="-10" xMax="558" yMax="721">
      <component glyphName="a" x="0" y="0" flags="0x204"/>
      <component glyphName="tilde" x="14" y="0" flags="0x4"/>
    </TTGlyph>
    <TTGlyph name="b" xMin="7" yMin="-10" xMax="503" yMax="750">
      <contour>
        <pt x="222" y="-10" on="1"/>
        <pt x="202" y="-10" on="0"/>
        <pt x="174" y="-5" on="0"/>
        <pt x="154" y="5" on="0"/>
        <pt x="138" y="19" on="0"/>
        <pt x="129" y="28" on="1"/>
        <pt x="125" y="0" on="1"/>
        <pt x="7" y="0" on="1"/>
        <pt x="139" y="750" on="1"/>
        <pt x="264" y="750" on="1"/>
        <pt x="216" y="475" on="1"/>
        <pt x="226" y="483" on="0"/>
        <pt x="245" y="495" on="0"/>
        <pt x="267" y="504" on="0"/>
        <pt x="294" y="508" on="0"/>
        <pt x="313" y="508" on="1"/>
        <pt x="362" y="508" on="0"/>
        <pt x="433" y="475" on="0"/>
        <pt x="480" y="418" on="0"/>
        <pt x="503" y="342" on="0"/>
        <pt x="503" y="299" on="1"/>
        <pt x="503" y="241" on="0"/>
        <pt x="467" y="130" on="0"/>
        <pt x="397" y="43" on="0"/>
        <pt x="292" y="-10" on="0"/>
      </contour>
      <contour>
        <pt x="289" y="406" on="1"/>
        <pt x="233" y="406" on="0"/>
        <pt x="162" y="304" on="0"/>
        <pt x="162" y="190" on="1"/>
        <pt x="162" y="146" on="0"/>
        <pt x="193" y="92" on="0"/>
        <pt x="234" y="92" on="1"/>
        <pt x="266" y="92" on="0"/>
        <pt x="318" y="123" on="0"/>
        <pt x="354" y="177" on="0"/>
        <pt x="374" y="249" on="0"/>
        <pt x="374" y="290" on="1"/>
        <pt x="374" y="342" on="0"/>
        <pt x="332" y="406" on="0"/>
      </contour>
    </TTGlyph>
    <TTGlyph name="backslash" xMin="104" yMin="-85" xMax="426" yMax="700">
      <contour>
        <pt x="289" y="-85" on="1"/>
        <pt x="104" y="700" on="1"/>
        <pt x="241" y="700" on="1"/>
        <pt x="426" y="-85" on="1"/>
      </contour>
    </TTGlyph>
    <TTGlyph name="bar" xMin="-22" yMin="-210" xMax="242" yMax="750">
      <contour>
        <pt x="-22" y="-210" on="1"/>
        <pt x="147" y="750" on="1"/>
        <pt x="242" y="750" on="1"/>
        <pt x="72" y="-210" on="1"/>
      </contour>
    </TTGlyph>
    <TTGlyph name="braceleft" xMin="17" yMin="-136" xMax="365" yMax="750">
      <contour>
        <pt x="35" y="-8" on="1"/>
        <pt x="35" y="16" on="0"/>
        <pt x="47" y="69" on="0"/>
        <pt x="62" y="124" on="0"/>
        <pt x="75" y="178" on="0"/>
        <pt x="75" y="204" on="1"/>
        <pt x="75" y="239" on="0"/>
        <pt x="49" y="288" on="0"/>
        <pt x="17" y="307" on="1"/>
        <pt x="41" y="319" on="0"/>
        <pt x="75" y="345" on="0"/>
        <pt x="99" y="378" on="0"/>
        <pt x="115" y="420" on="0"/>
        <pt x="120" y="449" on="1"/>
        <pt x="126" y="482" on="0"/>
        <pt x="133" y="556" on="0"/>
        <pt x="138" y="585" on="1"/>
        <pt x="145" y="625" on="0"/>
        <pt x="176" y="686" on="0"/>
        <pt x="229" y="728" on="0"/>
        <pt x="309" y="750" on="0"/>
        <pt x="365" y="750" on="1"/>
        <pt x="345" y="641" on="1"/>
        <pt x="307" y="641" on="0"/>
        <pt x="266" y="632" on="0"/>
        <pt x="242" y="602" on="0"/>
        <pt x="229" y="546" on="0"/>
        <pt x="221" y="500" on="1"/>
        <pt x="217" y="480" on="0"/>
        <pt x="213" y="438" on="0"/>
        <pt x="209" y="418" on="1"/>
        <pt x="203" y="386" on="0"/>
        <pt x="179" y="327" on="0"/>
        <pt x="156" y="307" on="1"/>
        <pt x="167" y="294" on="0"/>
        <pt x="175" y="258" on="0"/>
        <pt x="175" y="238" on="1"/>
        <pt x="175" y="213" on="0"/>
        <pt x="164" y="170" on="0"/>
        <pt x="151" y="125" on="0"/>
        <pt x="140" y="73" on="0"/>
        <pt x="140" y="39" on="1"/>
        <pt x="140" y="-3" on="0"/>
        <pt x="178" y="-27" on="0"/>
        <pt x="228" y="-27" on="1"/>
        <pt x="208" y="-136" on="1"/>
        <pt x="116" y="-136" on="0"/>
        <pt x="35" y="-72" on="0"/>
      </contour>
    </TTGlyph>
    <TTGlyph name="braceright" xMin="-59" yMin="-136" xMax="289" yMax="750">
      <contour>
        <pt x="168" y="29" on="1"/>
        <pt x="153" y="-54" on="0"/>
        <pt x="48" y="-136" on="0"/>
        <pt x="-59" y="-136" on="1"/>
        <pt x="-40" y="-27" on="1"/>
        <pt x="-2" y="-27" on="0"/>
        <pt x="40" y="-18" on="0"/>
        <pt x="64" y="12" on="0"/>
        <pt x="77" y="68" on="0"/>
        <pt x="85" y="115" on="1"/>
        <pt x="90" y="139" on="0"/>
        <pt x="94" y="184" on="0"/>
        <pt x="98" y="204" on="1"/>
        <pt x="103" y="236" on="0"/>
        <pt x="127" y="287" on="0"/>
        <pt x="150" y="307" on="1"/>
        <pt x="139" y="320" on="0"/>
        <pt x="131" y="360" on="0"/>
        <pt x="131" y="380" on="1"/>
        <pt x="131" y="401" on="0"/>
        <pt x="142" y="439" on="0"/>
        <pt x="155" y="484" on="0"/>
        <pt x="166" y="539" on="0"/>
        <pt x="166" y="576" on="1"/>
        <pt x="166" y="617" on="0"/>
        <pt x="128" y="641" on="0"/>
        <pt x="78" y="641" on="1"/>
        <pt x="97" y="750" on="1"/>
        <pt x="192" y="750" on="0"/>
        <pt x="270" y="683" on="0"/>
        <pt x="270" y="622" on="1"/>
        <pt x="270" y="598" on="0"/>
        <pt x="258" y="546" on="0"/>
        <pt x="243" y="491" on="0"/>
        <pt x="231" y="436" on="0"/>
        <pt x="231" y="410" on="1"/>
        <pt x="231" y="372" on="0"/>
        <pt x="259" y="326" on="0"/>
        <pt x="289" y="307" on="1"/>
        <pt x="264" y="295" on="0"/>
        <pt x="229" y="267" on="0"/>
        <pt x="205" y="234" on="0"/>
        <pt x="191" y="193" on="0"/>
        <pt x="186" y="166" on="1"/>
        <pt x="180" y="132" on="0"/>
        <pt x="173" y="58" on="0"/>
      </contour>
    </TTGlyph>
    <TTGlyph name="bracketleft" xMin="-8" yMin="-136" xMax="380" yMax="750">
      <contour>
        <pt x="-8" y="-136" on="1"/>
        <pt x="148" y="750" on="1"/>
        <pt x="380" y="750" on="1"/>
        <pt x="360" y="641" on="1"/>
        <pt x="242" y="641" on="1"/>
        <pt x="125" y="-27" on="1"/>
        <pt x="243" y="-27" on="1"/>
        <pt x="223" y="-136" on="1"/>
        <pt x="108" y="-136" on="1"/>
      </contour>
    </TTGlyph>
    <TTGlyph name="bracketright" xMin="-86" yMin="-135" xMax="302" yMax="751">
      <contour>
        <pt x="186" y="751" on="1"/>
        <pt x="302" y="751" on="1"/>
        <pt x="146" y="-135" on="1"/>
        <pt x="-86" y="-135" on="1"/>
        <pt x="-66" y="-26" on="1"/>
        <pt x="52" y="-26" on="1"/>
        <pt x="169" y="642" on="1"/>
        <pt x="51" y="642" on="1"/>
        <pt x="71" y="751" on="1"/>
      </contour>
    </TTGlyph>
    <TTGlyph name="brokenbar" xMin="-21" yMin="-210" xMax="227" yMax="750">
      <contour>
        <pt x="66" y="284" on="1"/>
        <pt x="148" y="750" on="1"/>
        <pt x="227" y="750" on="1"/>
        <pt x="145" y="284" on="1"/>
      </contour>
      <contour>
        <pt x="-21" y="-210" on="1"/>
        <pt x="50" y="190" on="1"/>
        <pt x="129" y="190" on="1"/>
        <pt x="58" y="-210" on="1"/>
      </contour>
    </TTGlyph>
    <TTGlyph name="bullet" xMin="36" yMin="169" xMax="236" yMax="387">
      <contour>
        <pt x="117" y="169" on="1"/>
        <pt x="81" y="169" on="0"/>
        <pt x="36" y="223" on="0"/>
        <pt x="36" y="261" on="1"/>
        <pt x="36" y="286" on="0"/>
        <pt x="56" y="332" on="0"/>
        <pt x="90" y="367" on="0"/>
        <pt x="132" y="387" on="0"/>
        <pt x="155" y="387" on="1"/>
        <pt x="191" y="387" on="0"/>
        <pt x="236" y="333" on="0"/>
        <pt x="236" y="295" on="1"/>
        <pt x="236" y="269" on="0"/>
        <pt x="216" y="224" on="0"/>
        <pt x="182" y="189" on="0"/>
        <pt x="139" y="169" on="0"/>
      </contour>
    </TTGlyph>
    <TTGlyph name="c" xMin="18" yMin="-10" xMax="416" yMax="508">
      <contour>
        <pt x="196" y="-10" on="1"/>
        <pt x="151" y="-10" on="0"/>
        <pt x="84" y="23" on="0"/>
        <pt x="40" y="79" on="0"/>
        <pt x="18" y="154" on="0"/>
        <pt x="18" y="197" on="1"/>
        <pt x="18" y="257" on="0"/>
        <pt x="55" y="369" on="0"/>
        <pt x="125" y="456" on="0"/>
        <pt x="225" y="508" on="0"/>
        <pt x="288" y="508" on="1"/>
        <pt x="316" y="508" on="0"/>
        <pt x="355" y="502" on="0"/>
        <pt x="385" y="492" on="0"/>
        <pt x="406" y="478" on="0"/>
        <pt x="416" y="471" on="1"/>
        <pt x="389" y="365" on="1"/>
        <pt x="364" y="385" on="0"/>
        <pt x="312" y="406" on="0"/>
        <pt x="279" y="406" on="1"/>
        <pt x="251" y="406" on="0"/>
        <pt x="203" y="375" on="0"/>
        <pt x="167" y="321" on="0"/>
        <pt x="147" y="249" on="0"/>
        <pt x="147" y="208" on="1"/>
        <pt x="147" y="156" on="0"/>
        <pt x="187" y="92" on="0"/>
        <pt x="224" y="92" on="1"/>
        <pt x="257" y="92" on="0"/>
        <pt x="315" y="113" on="0"/>
        <pt x="347" y="133" on="1"/>
        <pt x="338" y="27" on="1"/>
        <pt x="313" y="12" on="0"/>
        <pt x="251" y="-10" on="0"/>
      </contour>
    </TTGlyph>
    <TTGlyph name="caron" xMin="192" yMin="585" xMax="470" yMax="750">
      <contour>
        <pt x="308" y="585" on="1"/>
        <pt x="192" y="676" on="1"/>
        <pt x="205" y="750" on="1"/>
        <pt x="325" y="679" on="1"/>
        <pt x="470" y="750" on="1"/>
        <pt x="457" y="676" on="1"/>
      </contour>
    </TTGlyph>
    <TTGlyph name="ccaron" xMin="18" yMin="-10" xMax="468" yMax="750">
      <component glyphName="c" x="0" y="0" flags="0x204"/>
      <component glyphName="caron" x="-2" y="0" flags="0x4"/>
    </TTGlyph>
    <TTGlyph name="ccedilla" xMin="18" yMin="-194" xMax="416" yMax="508">
      <component glyphName="c" x="0" y="0" flags="0x204"/>
      <component glyphName="cedilla" x="-24" y="0" flags="0x4"/>
    </TTGlyph>
    <TTGlyph name="cedilla" xMin="87" yMin="-194" xMax="284" yMax="-52">
      <contour>
        <pt x="166" y="-185" on="1"/>
        <pt x="87" y="-194" on="1"/>
        <pt x="174" y="-61" on="1"/>
        <pt x="284" y="-52" on="1"/>
      </contour>
    </TTGlyph>
    <TTGlyph name="cent" xMin="40" yMin="-32" xMax="440" yMax="748">
      <contour>
        <pt x="242" y="-32" on="1"/>
        <pt x="140" y="-32" on="1"/>
        <pt x="175" y="91" on="1"/>
        <pt x="140" y="97" on="0"/>
        <pt x="89" y="132" on="0"/>
        <pt x="56" y="185" on="0"/>
        <pt x="40" y="252" on="0"/>
        <pt x="40" y="290" on="1"/>
        <pt x="40" y="348" on="0"/>
        <pt x="73" y="454" on="0"/>
        <pt x="132" y="540" on="0"/>
        <pt x="215" y="597" on="0"/>
        <pt x="266" y="605" on="1"/>
        <pt x="277" y="748" on="1"/>
        <pt x="380" y="748" on="1"/>
        <pt x="341" y="606" on="1"/>
        <pt x="381" y="604" on="0"/>
        <pt x="423" y="584" on="0"/>
        <pt x="440" y="570" on="1"/>
        <pt x="410" y="464" on="1"/>
        <pt x="360" y="505" on="0"/>
        <pt x="306" y="505" on="1"/>
        <pt x="273" y="505" on="0"/>
        <pt x="222" y="473" on="0"/>
        <pt x="186" y="417" on="0"/>
        <pt x="168" y="344" on="0"/>
        <pt x="168" y="303" on="1"/>
        <pt x="168" y="253" on="0"/>
        <pt x="207" y="191" on="0"/>
        <pt x="250" y="191" on="1"/>
        <pt x="305" y="191" on="0"/>
        <pt x="369" y="232" on="1"/>
        <pt x="361" y="126" on="1"/>
        <pt x="338" y="112" on="0"/>
        <pt x="286" y="92" on="0"/>
        <pt x="245" y="89" on="1"/>
      </contour>
    </TTGlyph>
    <TTGlyph name="circumflex" xMin="176" yMin="585" xMax="454" yMax="750">
      <contour>
        <pt x="321" y="656" on="1"/>
        <pt x="176" y="585" on="1"/>
        <pt x="189" y="659" on="1"/>
        <pt x="337" y="750" on="1"/>
        <pt x="454" y="659" on="1"/>
        <pt x="441" y="585" on="1"/>
      </contour>
    </TTGlyph>
    <TTGlyph name="colon" xMin="3" yMin="0" xMax="205" yMax="440">
      <contour>
        <pt x="58" y="310" on="1"/>
        <pt x="81" y="440" on="1"/>
        <pt x="205" y="440" on="1"/>
        <pt x="182" y="310" on="1"/>
      </contour>
      <contour>
        <pt x="3" y="0" on="1"/>
        <pt x="26" y="130" on="1"/>
        <pt x="151" y="130" on="1"/>
        <pt x="128" y="0" on="1"/>
      </contour>
    </TTGlyph>
    <TTGlyph name="comma" xMin="-13" yMin="-110" xMax="147" yMax="130">
      <contour>
        <pt x="9" y="-110" on="1"/>
        <pt x="-13" y="-96" on="1"/>
        <pt x="31" y="-10" on="1"/>
        <pt x="4" y="0" on="1"/>
        <pt x="26" y="130" on="1"/>
        <pt x="147" y="130" on="1"/>
        <pt x="124" y="0" on="1"/>
      </contour>
    </TTGlyph>
    <TTGlyph name="copyright" xMin="55" yMin="37" xMax="628" yMax="693">
      <contour>
        <pt x="284" y="37" on="1"/>
        <pt x="232" y="37" on="0"/>
        <pt x="147" y="75" on="0"/>
        <pt x="87" y="144" on="0"/>
        <pt x="55" y="241" on="0"/>
        <pt x="55" y="301" on="1"/>
        <pt x="55" y="387" on="0"/>
        <pt x="110" y="531" on="0"/>
        <pt x="205" y="635" on="0"/>
        <pt x="330" y="693" on="0"/>
        <pt x="400" y="693" on="1"/>
        <pt x="452" y="693" on="0"/>
        <pt x="536" y="656" on="0"/>
        <pt x="596" y="587" on="0"/>
        <pt x="628" y="490" on="0"/>
        <pt x="628" y="430" on="1"/>
        <pt x="628" y="344" on="0"/>
        <pt x="573" y="200" on="0"/>
        <pt x="479" y="95" on="0"/>
        <pt x="354" y="37" on="0"/>
      </contour>
      <contour>
        <pt x="388" y="623" on="1"/>
        <pt x="326" y="623" on="0"/>
        <pt x="232" y="571" on="0"/>
        <pt x="167" y="483" on="0"/>
        <pt x="134" y="367" on="0"/>
        <pt x="134" y="304" on="1"/>
        <pt x="134" y="261" on="0"/>
        <pt x="153" y="189" on="0"/>
        <pt x="193" y="136" on="0"/>
        <pt x="254" y="106" on="0"/>
        <pt x="296" y="106" on="1"/>
        <pt x="357" y="106" on="0"/>
        <pt x="451" y="158" on="0"/>
        <pt x="515" y="247" on="0"/>
        <pt x="549" y="363" on="0"/>
        <pt x="549" y="426" on="1"/>
        <pt x="549" y="469" on="0"/>
        <pt x="530" y="541" on="0"/>
        <pt x="490" y="593" on="0"/>
        <pt x="429" y="623" on="0"/>
      </contour>
      <contour>
        <pt x="318" y="190" on="1"/>
        <pt x="261" y="190" on="0"/>
        <pt x="195" y="267" on="0"/>
        <pt x="195" y="330" on="1"/>
        <pt x="195" y="375" on="0"/>
        <pt x="224" y="451" on="0"/>
        <pt x="274" y="506" on="0"/>
        <pt x="341" y="537" on="0"/>
        <pt x="379" y="537" on="1"/>
        <pt x="405" y="537" on="0"/>
        <pt x="454" y="524" on="0"/>
        <pt x="472" y="514" on="1"/>
        <pt x="446" y="429" on="1"/>
        <pt x="426" y="439" on="0"/>
        <pt x="387" y="452" on="0"/>
        <pt x="364" y="452" on="1"/>
        <pt x="329" y="452" on="0"/>
        <pt x="287" y="388" on="0"/>
        <pt x="287" y="340" on="1"/>
        <pt x="287" y="311" on="0"/>
        <pt x="310" y="274" on="0"/>
        <pt x="333" y="274" on="1"/>
        <pt x="356" y="274" on="0"/>
        <pt x="399" y="288" on="0"/>
        <pt x="424" y="299" on="1"/>
        <pt x="419" y="215" on="1"/>
        <pt x="397" y="203" on="0"/>
        <pt x="343" y="190" on="0"/>
      </contour>
    </TTGlyph>
    <TTGlyph name="currency" xMin="16" yMin="19" xMax="588" yMax="677">
      <contour>
        <pt x="415" y="19" on="1"/>
        <pt x="367" y="118" on="1"/>
        <pt x="323" y="89" on="0"/>
        <pt x="256" y="89" on="1"/>
        <pt x="224" y="89" on="0"/>
        <pt x="172" y="104" on="0"/>
        <pt x="156" y="118" on="1"/>
        <pt x="74" y="19" on="1"/>
        <pt x="16" y="69" on="1"/>
        <pt x="96" y="166" on="1"/>
        <pt x="82" y="191" on="0"/>
        <pt x="68" y="262" on="0"/>
        <pt x="68" y="298" on="1"/>
        <pt x="68" y="366" on="0"/>
        <pt x="119" y="484" on="0"/>
        <pt x="161" y="530" on="1"/>
        <pt x="114" y="627" on="1"/>
        <pt x="190" y="677" on="1"/>
        <pt x="237" y="578" on="1"/>
        <pt x="258" y="592" on="0"/>
        <pt x="315" y="607" on="0"/>
        <pt x="347" y="607" on="1"/>
        <pt x="413" y="607" on="0"/>
        <pt x="448" y="577" on="1"/>
        <pt x="531" y="677" on="1"/>
        <pt x="588" y="627" on="1"/>
        <pt x="507" y="529" on="1"/>
        <pt x="521" y="504" on="0"/>
        <pt x="535" y="433" on="0"/>
        <pt x="535" y="397" on="1"/>
        <pt x="535" y="328" on="0"/>
        <pt x="483" y="211" on="0"/>
        <pt x="443" y="166" on="1"/>
        <pt x="490" y="69" on="1"/>
      </contour>
      <contour>
        <pt x="329" y="505" on="1"/>
        <pt x="300" y="505" on="0"/>
        <pt x="252" y="473" on="0"/>
        <pt x="217" y="419" on="0"/>
        <pt x="198" y="347" on="0"/>
        <pt x="198" y="306" on="1"/>
        <pt x="198" y="255" on="0"/>
        <pt x="236" y="191" on="0"/>
        <pt x="274" y="191" on="1"/>
        <pt x="303" y="191" on="0"/>
        <pt x="351" y="223" on="0"/>
        <pt x="386" y="277" on="0"/>
        <pt x="406" y="349" on="0"/>
        <pt x="406" y="390" on="1"/>
        <pt x="406" y="441" on="0"/>
        <pt x="367" y="505" on="0"/>
      </contour>
    </TTGlyph>
    <TTGlyph name="d" xMin="18" yMin="-10" xMax="559" yMax="750">
      <contour>
        <pt x="307" y="0" on="1"/>
        <pt x="313" y="28" on="1"/>
        <pt x="301" y="19" on="0"/>
        <pt x="279" y="5" on="0"/>
        <pt x="256" y="-5" on="0"/>
        <pt x="227" y="-10" on="0"/>
        <pt x="207" y="-10" on="1"/>
        <pt x="157" y="-10" on="0"/>
        <pt x="86" y="23" on="0"/>
        <pt x="40" y="79" on="0"/>
        <pt x="18" y="154" on="0"/>
        <pt x="18" y="196" on="1"/>
        <pt x="18" y="256" on="0"/>
        <pt x="56" y="368" on="0"/>
        <pt x="128" y="455" on="0"/>
        <pt x="232" y="508" on="0"/>
        <pt x="299" y="508" on="1"/>
        <pt x="336" y="508" on="0"/>
        <pt x="369" y="491" on="0"/>
        <pt x="385" y="475" on="1"/>
        <pt x="434" y="750" on="1"/>
        <pt x="559" y="750" on="1"/>
        <pt x="426" y="0" on="1"/>
      </contour>
      <contour>
        <pt x="288" y="406" on="1"/>
        <pt x="256" y="406" on="0"/>
        <pt x="204" y="375" on="0"/>
        <pt x="167" y="321" on="0"/>
        <pt x="147" y="249" on="0"/>
        <pt x="147" y="209" on="1"/>
        <pt x="147" y="157" on="0"/>
        <pt x="190" y="92" on="0"/>
        <pt x="233" y="92" on="1"/>
        <pt x="289" y="92" on="0"/>
        <pt x="358" y="195" on="0"/>
        <pt x="358" y="311" on="1"/>
        <pt x="358" y="353" on="0"/>
        <pt x="328" y="406" on="0"/>
      </contour>
    </TTGlyph>
    <TTGlyph name="dagger" xMin="46" yMin="0" xMax="388" yMax="607">
      <contour>
        <pt x="262" y="375" on="1"/>
        <pt x="262" y="257" on="1"/>
        <pt x="190" y="0" on="1"/>
        <pt x="97" y="0" on="1"/>
        <pt x="116" y="257" on="1"/>
        <pt x="158" y="375" on="1"/>
        <pt x="46" y="349" on="1"/>
        <pt x="69" y="481" on="1"/>
        <pt x="176" y="454" on="1"/>
        <pt x="176" y="607" on="1"/>
        <pt x="326" y="607" on="1"/>
        <pt x="275" y="454" on="1"/>
        <pt x="388" y="481" on="1"/>
        <pt x="365" y="349" on="1"/>
      </contour>
    </TTGlyph>
    <TTGlyph name="daggerdbl" xMin="21" yMin="-59" xMax="413" yMax="607">
      <contour>
        <pt x="233" y="94" on="1"/>
        <pt x="233" y="-59" on="1"/>
        <pt x="83" y="-59" on="1"/>
        <pt x="134" y="94" on="1"/>
        <pt x="21" y="67" on="1"/>
        <pt x="44" y="199" on="1"/>
        <pt x="143" y="173" on="1"/>
        <pt x="143" y="274" on="1"/>
        <pt x="182" y="375" on="1"/>
        <pt x="71" y="349" on="1"/>
        <pt x="94" y="481" on="1"/>
        <pt x="200" y="454" on="1"/>
        <pt x="200" y="607" on="1"/>
        <pt x="351" y="607" on="1"/>
        <pt x="300" y="454" on="1"/>
        <pt x="413" y="481" on="1"/>
        <pt x="389" y="349" on="1"/>
        <pt x="290" y="375" on="1"/>
        <pt x="290" y="274" on="1"/>
        <pt x="252" y="173" on="1"/>
        <pt x="363" y="199" on="1"/>
        <pt x="340" y="67" on="1"/>
      </contour>
    </TTGlyph>
    <TTGlyph name="degree" xMin="85" yMin="482" xMax="329" yMax="755">
      <contour>
        <pt x="183" y="482" on="1"/>
        <pt x="135" y="482" on="0"/>
        <pt x="85" y="547" on="0"/>
        <pt x="85" y="593" on="1"/>
        <pt x="85" y="624" on="0"/>
        <pt x="106" y="683" on="0"/>
        <pt x="145" y="728" on="0"/>
        <pt x="199" y="755" on="0"/>
        <pt x="231" y="755" on="1"/>
        <pt x="280" y="755" on="0"/>
        <pt x="329" y="690" on="0"/>
        <pt x="329" y="643" on="1"/>
        <pt x="329" y="611" on="0"/>
        <pt x="308" y="553" on="0"/>
        <pt x="269" y="509" on="0"/>
        <pt x="216" y="482" on="0"/>
      </contour>
      <contour>
        <pt x="222" y="704" on="1"/>
        <pt x="208" y="704" on="0"/>
        <pt x="184" y="686" on="0"/>
        <pt x="166" y="656" on="0"/>
        <pt x="155" y="616" on="0"/>
        <pt x="155" y="594" on="1"/>
        <pt x="155" y="566" on="0"/>
        <pt x="174" y="533" on="0"/>
        <pt x="192" y="533" on="1"/>
        <pt x="207" y="533" on="0"/>
        <pt x="231" y="551" on="0"/>
        <pt x="248" y="581" on="0"/>
        <pt x="258" y="621" on="0"/>
        <pt x="258" y="644" on="1"/>
        <pt x="258" y="671" on="0"/>
        <pt x="240" y="704" on="0"/>
      </contour>
    </TTGlyph>
    <TTGlyph name="dieresis" xMin="188" yMin="594" xMax="430" yMax="700">
      <contour>
        <pt x="313" y="594" on="1"/>
        <pt x="332" y="700" on="1"/>
        <pt x="430" y="700" on="1"/>
        <pt x="411" y="594" on="1"/>
      </contour>
      <contour>
        <pt x="188" y="594" on="1"/>
        <pt x="207" y="700" on="1"/>
        <pt x="305" y="700" on="1"/>
        <pt x="286" y="594" on="1"/>
      </contour>
    </TTGlyph>
    <TTGlyph name="divide" xMin="38" yMin="20" xMax="469" yMax="534">
      <contour>
        <pt x="210" y="404" on="1"/>
        <pt x="233" y="534" on="1"/>
        <pt x="358" y="534" on="1"/>
        <pt x="335" y="404" on="1"/>
      </contour>
      <contour>
        <pt x="38" y="230" on="1"/>
        <pt x="55" y="324" on="1"/>
        <pt x="469" y="324" on="1"/>
        <pt x="452" y="230" on="1"/>
      </contour>
      <contour>
        <pt x="142" y="20" on="1"/>
        <pt x="165" y="150" on="1"/>
        <pt x="290" y="150" on="1"/>
        <pt x="267" y="20" on="1"/>
      </contour>
    </TTGlyph>
    <TTGlyph name="dollar" xMin="18" yMin="-32" xMax="476" yMax="748">
      <contour>
        <pt x="237" y="-32" on="1"/>
        <pt x="134" y="-32" on="1"/>
        <pt x="168" y="79" on="1"/>
        <pt x="117" y="82" on="0"/>
        <pt x="38" y="105" on="0"/>
        <pt x="18" y="119" on="1"/>
        <pt x="58" y="246" on="1"/>
        <pt x="75" y="222" on="0"/>
        <pt x="156" y="183" on="0"/>
        <pt x="217" y="183" on="1"/>
        <pt x="267" y="183" on="0"/>
        <pt x="315" y="211" on="0"/>
        <pt x="315" y="244" on="1"/>
        <pt x="315" y="266" on="0"/>
        <pt x="279" y="295" on="0"/>
        <pt x="225" y="318" on="0"/>
        <pt x="162" y="340" on="0"/>
        <pt x="108" y="372" on="0"/>
        <pt x="72" y="418" on="0"/>
        <pt x="72" y="454" on="1"/>
        <pt x="72" y="479" on="0"/>
        <pt x="93" y="538" on="0"/>
        <pt x="139" y="589" on="0"/>
        <pt x="213" y="627" on="0"/>
        <pt x="266" y="633" on="1"/>
        <pt x="272" y="748" on="1"/>
        <pt x="375" y="748" on="1"/>
        <pt x="340" y="633" on="1"/>
        <pt x="383" y="630" on="0"/>
        <pt x="459" y="606" on="0"/>
        <pt x="476" y="594" on="1"/>
        <pt x="445" y="481" on="1"/>
        <pt x="410" y="503" on="0"/>
        <pt x="331" y="533" on="0"/>
        <pt x="298" y="533" on="1"/>
        <pt x="280" y="533" on="0"/>
        <pt x="242" y="529" on="0"/>
        <pt x="211" y="517" on="0"/>
        <pt x="191" y="496" on="0"/>
        <pt x="191" y="479" on="1"/>
        <pt x="191" y="458" on="0"/>
        <pt x="228" y="433" on="0"/>
        <pt x="285" y="412" on="0"/>
        <pt x="350" y="391" on="0"/>
        <pt x="407" y="357" on="0"/>
        <pt x="444" y="304" on="0"/>
        <pt x="444" y="263" on="1"/>
        <pt x="444" y="242" on="0"/>
        <pt x="430" y="185" on="0"/>
        <pt x="388" y="130" on="0"/>
        <pt x="309" y="86" on="0"/>
        <pt x="243" y="80" on="1"/>
      </contour>
    </TTGlyph>
    <TTGlyph name="dotlessi" xMin="7" yMin="0" xMax="220" yMax="500">
      <contour>
        <pt x="7" y="0" on="1"/>
        <pt x="95" y="500" on="1"/>
        <pt x="220" y="500" on="1"/>
        <pt x="132" y="0" on="1"/>
      </contour>
    </TTGlyph>
    <TTGlyph name="e" xMin="18" yMin="-10" xMax="463" yMax="508">
      <contour>
        <pt x="463" y="363" on="1"/>
        <pt x="463" y="317" on="0"/>
        <pt x="423" y="255" on="0"/>
        <pt x="357" y="216" on="0"/>
        <pt x="271" y="199" on="0"/>
        <pt x="224" y="199" on="1"/>
        <pt x="199" y="199" on="0"/>
        <pt x="158" y="203" on="0"/>
        <pt x="148" y="205" on="1"/>
        <pt x="150" y="174" on="0"/>
        <pt x="171" y="131" on="0"/>
        <pt x="203" y="104" on="0"/>
        <pt x="242" y="92" on="0"/>
        <pt x="263" y="92" on="1"/>
        <pt x="280" y="92" on="0"/>
        <pt x="321" y="99" on="0"/>
        <pt x="363" y="110" on="0"/>
        <pt x="404" y="125" on="0"/>
        <pt x="420" y="133" on="1"/>
        <pt x="406" y="28" on="1"/>
        <pt x="376" y="13" on="0"/>
        <pt x="289" y="-10" on="0"/>
        <pt x="239" y="-10" on="1"/>
        <pt x="182" y="-10" on="0"/>
        <pt x="99" y="23" on="0"/>
        <pt x="44" y="82" on="0"/>
        <pt x="18" y="160" on="0"/>
        <pt x="18" y="205" on="1"/>
        <pt x="18" y="262" on="0"/>
        <pt x="58" y="371" on="0"/>
        <pt x="132" y="456" on="0"/>
        <pt x="236" y="508" on="0"/>
        <pt x="300" y="508" on="1"/>
        <pt x="380" y="508" on="0"/>
        <pt x="463" y="429" on="0"/>
      </contour>
      <contour>
        <pt x="295" y="406" on="1"/>
        <pt x="266" y="406" on="0"/>
        <pt x="219" y="381" on="0"/>
        <pt x="185" y="344" on="0"/>
        <pt x="163" y="301" on="0"/>
        <pt x="158" y="284" on="1"/>
        <pt x="174" y="280" on="0"/>
        <pt x="204" y="280" on="1"/>
        <pt x="250" y="280" on="0"/>
        <pt x="310" y="293" on="0"/>
        <pt x="345" y="315" on="0"/>
        <pt x="359" y="343" on="0"/>
        <pt x="359" y="357" on="1"/>
        <pt x="359" y="374" on="0"/>
        <pt x="344" y="393" on="0"/>
        <pt x="323" y="403" on="0"/>
        <pt x="302" y="406" on="0"/>
      </contour>
    </TTGlyph>
    <TTGlyph name="eacute" xMin="18" yMin="-10" xMax="463" yMax="750">
      <component glyphName="e" x="0" y="0" flags="0x204"/>
      <component glyphName="acute" x="45" y="0" flags="0x4"/>
    </TTGlyph>
    <TTGlyph name="ecircumflex" xMin="18" yMin="-10" xMax="463" yMax="750">
      <component glyphName="e" x="0" y="0" flags="0x204"/>
      <component glyphName="circumflex" x="-20" y="0" flags="0x4"/>
    </TTGlyph>
    <TTGlyph name="edieresis" xMin="18" yMin="-10" xMax="463" yMax="700">
      <component glyphName="e" x="0" y="0" flags="0x204"/>
      <component glyphName="dieresis" x="-10" y="0" flags="0x4"/>
    </TTGlyph>
    <TTGlyph name="egrave" xMin="18" yMin="-10" xMax="463" yMax="750">
      <component glyphName="e" x="0" y="0" flags="0x204"/>
      <component glyphName="grave" x="45" y="0" flags="0x4"/>
    </TTGlyph>
    <TTGlyph name="eight" xMin="36" yMin="-14" xMax="515" yMax="714">
      <contour>
        <pt x="215" y="-14" on="1"/>
        <pt x="168" y="-14" on="0"/>
        <pt x="100" y="13" on="0"/>
        <pt x="57" y="60" on="0"/>
        <pt x="36" y="120" on="0"/>
        <pt x="36" y="153" on="1"/>
        <pt x="36" y="207" on="0"/>
        <pt x="94" y="323" on="0"/>
        <pt x="160" y="377" on="1"/>
        <pt x="145" y="398" on="0"/>
        <pt x="131" y="463" on="0"/>
        <pt x="131" y="494" on="1"/>
        <pt x="131" y="534" on="0"/>
        <pt x="154" y="612" on="0"/>
        <pt x="206" y="675" on="0"/>
        <pt x="293" y="714" on="0"/>
        <pt x="357" y="714" on="1"/>
        <pt x="400" y="714" on="0"/>
        <pt x="461" y="693" on="0"/>
        <pt x="498" y="656" on="0"/>
        <pt x="515" y="608" on="0"/>
        <pt x="515" y="581" on="1"/>
        <pt x="515" y="521" on="0"/>
        <pt x="457" y="427" on="0"/>
        <pt x="417" y="386" on="1"/>
        <pt x="446" y="365" on="0"/>
        <pt x="487" y="285" on="0"/>
        <pt x="487" y="234" on="1"/>
        <pt x="487" y="194" on="0"/>
        <pt x="453" y="106" on="0"/>
        <pt x="385" y="33" on="0"/>
        <pt x="283" y="-14" on="0"/>
      </contour>
      <contour>
        <pt x="335" y="614" on="1"/>
        <pt x="289" y="614" on="0"/>
        <pt x="241" y="555" on="0"/>
        <pt x="241" y="498" on="1"/>
        <pt x="241" y="477" on="0"/>
        <pt x="262" y="436" on="0"/>
        <pt x="297" y="425" on="1"/>
        <pt x="395" y="455" on="0"/>
        <pt x="395" y="553" on="1"/>
        <pt x="395" y="578" on="0"/>
        <pt x="370" y="614" on="0"/>
      </contour>
      <contour>
        <pt x="289" y="332" on="1"/>
        <pt x="268" y="328" on="0"/>
        <pt x="221" y="304" on="0"/>
        <pt x="182" y="264" on="0"/>
        <pt x="156" y="208" on="0"/>
        <pt x="156" y="173" on="1"/>
        <pt x="156" y="132" on="0"/>
        <pt x="199" y="88" on="0"/>
        <pt x="238" y="88" on="1"/>
        <pt x="301" y="88" on="0"/>
        <pt x="363" y="167" on="0"/>
        <pt x="363" y="224" on="1"/>
        <pt x="363" y="269" on="0"/>
        <pt x="319" y="323" on="0"/>
      </contour>
    </TTGlyph>
    <TTGlyph name="ellipsis" xMin="4" yMin="0" xMax="577" yMax="130">
      <contour>
        <pt x="4" y="0" on="1"/>
        <pt x="27" y="130" on="1"/>
        <pt x="152" y="130" on="1"/>
        <pt x="129" y="0" on="1"/>
      </contour>
      <contour>
        <pt x="216" y="0" on="1"/>
        <pt x="239" y="130" on="1"/>
        <pt x="364" y="130" on="1"/>
        <pt x="341" y="0" on="1"/>
      </contour>
      <contour>
        <pt x="429" y="0" on="1"/>
        <pt x="452" y="130" on="1"/>
        <pt x="577" y="130" on="1"/>
        <pt x="554" y="0" on="1"/>
      </contour>
    </TTGlyph>
    <TTGlyph name="emdash" xMin="44" yMin="230" xMax="493" yMax="324">
      <contour>
        <pt x="44" y="230" on="1"/>
        <pt x="61" y="324" on="1"/>
        <pt x="493" y="324" on="1"/>
        <pt x="476" y="230" on="1"/>
      </contour>
    </TTGlyph>
    <TTGlyph name="endash" xMin="44" yMin="230" xMax="410" yMax="324">
      <contour>
        <pt x="44" y="230" on="1"/>
        <pt x="61" y="324" on="1"/>
        <pt x="410" y="324" on="1"/>
        <pt x="393" y="230" on="1"/>
      </contour>
    </TTGlyph>
    <TTGlyph name="equal" xMin="39" yMin="150" xMax="417" yMax="404">
      <contour>
        <pt x="67" y="310" on="1"/>
        <pt x="84" y="404" on="1"/>
        <pt x="417" y="404" on="1"/>
        <pt x="400" y="310" on="1"/>
      </contour>
      <contour>
        <pt x="39" y="150" on="1"/>
        <pt x="56" y="244" on="1"/>
        <pt x="389" y="244" on="1"/>
        <pt x="372" y="150" on="1"/>
      </contour>
    </TTGlyph>
    <TTGlyph name="eth" xMin="2" yMin="-13" xMax="454" yMax="711">
      <contour>
        <pt x="173" y="-13" on="1"/>
        <pt x="135" y="-13" on="0"/>
        <pt x="72" y="14" on="0"/>
        <pt x="27" y="62" on="0"/>
        <pt x="2" y="129" on="0"/>
        <pt x="2" y="169" on="1"/>
        <pt x="2" y="214" on="0"/>
        <pt x="35" y="305" on="0"/>
        <pt x="96" y="379" on="0"/>
        <pt x="183" y="426" on="0"/>
        <pt x="236" y="426" on="1"/>
        <pt x="271" y="426" on="0"/>
        <pt x="311" y="403" on="0"/>
        <pt x="328" y="387" on="1"/>
        <pt x="328" y="392" on="0"/>
        <pt x="329" y="402" on="0"/>
        <pt x="329" y="407" on="1"/>
        <pt x="329" y="423" on="0"/>
        <pt x="325" y="463" on="0"/>
        <pt x="318" y="500" on="0"/>
        <pt x="307" y="531" on="0"/>
        <pt x="300" y="538" on="1"/>
        <pt x="271" y="515" on="0"/>
        <pt x="204" y="485" on="0"/>
        <pt x="168" y="481" on="1"/>
        <pt x="143" y="554" on="1"/>
        <pt x="166" y="554" on="0"/>
        <pt x="226" y="578" on="0"/>
        <pt x="255" y="598" on="1"/>
        <pt x="237" y="621" on="0"/>
        <pt x="186" y="643" on="0"/>
        <pt x="159" y="648" on="1"/>
        <pt x="209" y="701" on="1"/>
        <pt x="279" y="700" on="0"/>
        <pt x="328" y="649" on="1"/>
        <pt x="344" y="664" on="0"/>
        <pt x="377" y="695" on="0"/>
        <pt x="389" y="711" on="1"/>
        <pt x="454" y="695" on="1"/>
        <pt x="434" y="669" on="0"/>
        <pt x="395" y="622" on="0"/>
        <pt x="376" y="601" on="1"/>
        <pt x="403" y="556" on="0"/>
        <pt x="435" y="420" on="0"/>
        <pt x="435" y="345" on="1"/>
        <pt x="435" y="240" on="0"/>
        <pt x="385" y="101" on="0"/>
        <pt x="308" y="20" on="0"/>
        <pt x="216" y="-13" on="0"/>
      </contour>
      <contour>
        <pt x="230" y="329" on="1"/>
        <pt x="202" y="329" on="0"/>
        <pt x="160" y="303" on="0"/>
        <pt x="132" y="263" on="0"/>
        <pt x="118" y="212" on="0"/>
        <pt x="118" y="187" on="1"/>
        <pt x="118" y="147" on="0"/>
        <pt x="152" y="88" on="0"/>
        <pt x="192" y="88" on="1"/>
        <pt x="210" y="88" on="0"/>
        <pt x="251" y="105" on="0"/>
        <pt x="286" y="141" on="0"/>
        <pt x="309" y="198" on="0"/>
        <pt x="309" y="238" on="1"/>
        <pt x="309" y="281" on="0"/>
        <pt x="271" y="329" on="0"/>
      </contour>
    </TTGlyph>
    <TTGlyph name="exclam" xMin="9" yMin="0" xMax="261" yMax="750">
      <contour>
        <pt x="150" y="200" on="1"/>
        <pt x="66" y="200" on="1"/>
        <pt x="149" y="750" on="1"/>
        <pt x="261" y="750" on="1"/>
      </contour>
      <contour>
        <pt x="9" y="0" on="1"/>
        <pt x="31" y="124" on="1"/>
        <pt x="158" y="124" on="1"/>
        <pt x="136" y="0" on="1"/>
      </contour>
    </TTGlyph>
    <TTGlyph name="exclamdown" xMin="-33" yMin="-250" xMax="219" yMax="500">
      <contour>
        <pt x="78" y="300" on="1"/>
        <pt x="161" y="300" on="1"/>
        <pt x="79" y="-250" on="1"/>
        <pt x="-33" y="-250" on="1"/>
      </contour>
      <contour>
        <pt x="219" y="500" on="1"/>
        <pt x="197" y="376" on="1"/>
        <pt x="70" y="376" on="1"/>
        <pt x="91" y="500" on="1"/>
      </contour>
    </TTGlyph>
    <TTGlyph name="f" xMin="35" yMin="0" xMax="382" yMax="750">
      <contour>
        <pt x="230" y="398" on="1"/>
        <pt x="160" y="0" on="1"/>
        <pt x="35" y="0" on="1"/>
        <pt x="105" y="398" on="1"/>
        <pt x="47" y="398" on="1"/>
        <pt x="74" y="500" on="1"/>
        <pt x="123" y="500" on="1"/>
        <pt x="144" y="619" on="1"/>
        <pt x="148" y="643" on="0"/>
        <pt x="170" y="690" on="0"/>
        <pt x="204" y="727" on="0"/>
        <pt x="249" y="750" on="0"/>
        <pt x="278" y="750" on="1"/>
        <pt x="301" y="750" on="0"/>
        <pt x="331" y="749" on="0"/>
        <pt x="352" y="747" on="0"/>
        <pt x="370" y="745" on="0"/>
        <pt x="382" y="744" on="1"/>
        <pt x="356" y="641" on="1"/>
        <pt x="342" y="645" on="0"/>
        <pt x="313" y="646" on="0"/>
        <pt x="311" y="646" on="1"/>
        <pt x="289" y="646" on="0"/>
        <pt x="268" y="614" on="0"/>
        <pt x="260" y="568" on="1"/>
        <pt x="248" y="500" on="1"/>
        <pt x="338" y="500" on="1"/>
        <pt x="320" y="398" on="1"/>
      </contour>
    </TTGlyph>
    <TTGlyph name="five" xMin="9" yMin="-13" xMax="487" yMax="700">
      <contour>
        <pt x="169" y="-13" on="1"/>
        <pt x="136" y="-13" on="0"/>
        <pt x="78" y="0" on="0"/>
        <pt x="34" y="18" on="0"/>
        <pt x="9" y="37" on="0"/>
        <pt x="9" y="43" on="1"/>
        <pt x="59" y="159" on="1"/>
        <pt x="73" y="138" on="0"/>
        <pt x="139" y="107" on="0"/>
        <pt x="185" y="107" on="1"/>
        <pt x="209" y="107" on="0"/>
        <pt x="256" y="122" on="0"/>
        <pt x="295" y="157" on="0"/>
        <pt x="319" y="213" on="0"/>
        <pt x="319" y="254" on="1"/>
        <pt x="319" y="270" on="0"/>
        <pt x="309" y="299" on="0"/>
        <pt x="282" y="320" on="0"/>
        <pt x="234" y="332" on="0"/>
        <pt x="196" y="332" on="1"/>
        <pt x="91" y="332" on="1"/>
        <pt x="197" y="700" on="1"/>
        <pt x="487" y="700" on="1"/>
        <pt x="451" y="576" on="1"/>
        <pt x="269" y="576" on="1"/>
        <pt x="231" y="439" on="1"/>
        <pt x="337" y="437" on="0"/>
        <pt x="441" y="359" on="0"/>
        <pt x="441" y="276" on="1"/>
        <pt x="441" y="205" on="0"/>
        <pt x="392" y="97" on="0"/>
        <pt x="314" y="24" on="0"/>
        <pt x="217" y="-13" on="0"/>
      </contour>
    </TTGlyph>
    <TTGlyph name="florin" xMin="-105" yMin="-242" xMax="419" yMax="714">
      <contour>
        <pt x="391" y="608" on="1"/>
        <pt x="377" y="611" on="0"/>
        <pt x="354" y="615" on="0"/>
        <pt x="343" y="615" on="1"/>
        <pt x="327" y="615" on="0"/>
        <pt x="303" y="603" on="0"/>
        <pt x="284" y="576" on="0"/>
        <pt x="266" y="532" on="0"/>
        <pt x="256" y="500" on="1"/>
        <pt x="363" y="500" on="1"/>
        <pt x="340" y="418" on="1"/>
        <pt x="229" y="418" on="1"/>
        <pt x="74" y="-81" on="1"/>
        <pt x="60" y="-126" on="0"/>
        <pt x="23" y="-188" on="0"/>
        <pt x="-15" y="-226" on="0"/>
        <pt x="-52" y="-242" on="0"/>
        <pt x="-66" y="-242" on="1"/>
        <pt x="-101" y="-242" on="1"/>
        <pt x="-105" y="-140" on="1"/>
        <pt x="-92" y="-140" on="0"/>
        <pt x="-71" y="-134" on="0"/>
        <pt x="-53" y="-117" on="0"/>
        <pt x="-37" y="-86" on="0"/>
        <pt x="-29" y="-60" on="1"/>
        <pt x="115" y="418" on="1"/>
        <pt x="51" y="418" on="1"/>
        <pt x="74" y="500" on="1"/>
        <pt x="141" y="500" on="1"/>
        <pt x="153" y="539" on="1"/>
        <pt x="179" y="621" on="0"/>
        <pt x="287" y="714" on="0"/>
        <pt x="351" y="714" on="1"/>
        <pt x="386" y="714" on="0"/>
        <pt x="419" y="702" on="1"/>
      </contour>
    </TTGlyph>
    <TTGlyph name="four" xMin="-5" yMin="0" xMax="487" yMax="700">
      <contour>
        <pt x="392" y="190" on="1"/>
        <pt x="358" y="0" on="1"/>
        <pt x="232" y="0" on="1"/>
        <pt x="266" y="190" on="1"/>
        <pt x="-5" y="190" on="1"/>
        <pt x="375" y="700" on="1"/>
        <pt x="482" y="700" on="1"/>
        <pt x="410" y="294" on="1"/>
        <pt x="487" y="294" on="1"/>
        <pt x="468" y="190" on="1"/>
      </contour>
      <contour>
        <pt x="321" y="504" on="1"/>
        <pt x="180" y="294" on="1"/>
        <pt x="284" y="294" on="1"/>
      </contour>
    </TTGlyph>
    <TTGlyph name="g" xMin="-46" yMin="-250" xMax="483" yMax="508">
      <contour>
        <pt x="145" y="-250" on="1"/>
        <pt x="95" y="-250" on="0"/>
        <pt x="22" y="-228" on="0"/>
        <pt x="-24" y="-191" on="0"/>
        <pt x="-46" y="-144" on="0"/>
        <pt x="-46" y="-119" on="1"/>
        <pt x="-46" y="-76" on="0"/>
        <pt x="11" y="-14" on="0"/>
        <pt x="47" y="10" on="1"/>
        <pt x="37" y="21" on="0"/>
        <pt x="20" y="51" on="0"/>
        <pt x="20" y="71" on="1"/>
        <pt x="20" y="99" on="0"/>
        <pt x="52" y="136" on="0"/>
        <pt x="76" y="150" on="1"/>
        <pt x="57" y="172" on="0"/>
        <pt x="34" y="240" on="0"/>
        <pt x="34" y="279" on="1"/>
        <pt x="34" y="323" on="0"/>
        <pt x="65" y="406" on="0"/>
        <pt x="123" y="470" on="0"/>
        <pt x="205" y="508" on="0"/>
        <pt x="256" y="508" on="1"/>
        <pt x="286" y="508" on="0"/>
        <pt x="335" y="492" on="0"/>
        <pt x="349" y="478" on="1"/>
        <pt x="361" y="486" on="0"/>
        <pt x="413" y="500" on="0"/>
        <pt x="445" y="500" on="1"/>
        <pt x="483" y="500" on="1"/>
        <pt x="463" y="422" on="1"/>
        <pt x="414" y="422" on="1"/>
        <pt x="410" y="422" on="0"/>
        <pt x="405" y="422" on="0"/>
        <pt x="400" y="421" on="1"/>
        <pt x="403" y="407" on="0"/>
        <pt x="406" y="369" on="0"/>
        <pt x="406" y="352" on="1"/>
        <pt x="406" y="305" on="0"/>
        <pt x="375" y="219" on="0"/>
        <pt x="318" y="153" on="0"/>
        <pt x="235" y="114" on="0"/>
        <pt x="184" y="114" on="1"/>
        <pt x="172" y="114" on="0"/>
        <pt x="154" y="117" on="0"/>
        <pt x="144" y="119" on="1"/>
        <pt x="139" y="115" on="0"/>
        <pt x="136" y="102" on="0"/>
        <pt x="136" y="100" on="1"/>
        <pt x="136" y="83" on="0"/>
        <pt x="189" y="69" on="0"/>
        <pt x="231" y="62" on="1"/>
        <pt x="252" y="59" on="0"/>
        <pt x="306" y="46" on="0"/>
        <pt x="354" y="19" on="0"/>
        <pt x="388" y="-28" on="0"/>
        <pt x="388" y="-66" on="1"/>
        <pt x="388" y="-107" on="0"/>
        <pt x="355" y="-174" on="0"/>
        <pt x="292" y="-223" on="0"/>
        <pt x="202" y="-250" on="0"/>
      </contour>
      <contour>
        <pt x="240" y="417" on="1"/>
        <pt x="216" y="417" on="0"/>
        <pt x="180" y="395" on="0"/>
        <pt x="156" y="358" on="0"/>
        <pt x="144" y="308" on="0"/>
        <pt x="144" y="280" on="1"/>
        <pt x="144" y="246" on="0"/>
        <pt x="171" y="205" on="0"/>
        <pt x="202" y="205" on="1"/>
        <pt x="225" y="205" on="0"/>
        <pt x="260" y="227" on="0"/>
        <pt x="284" y="264" on="0"/>
        <pt x="296" y="314" on="0"/>
        <pt x="296" y="342" on="1"/>
        <pt x="296" y="376" on="0"/>
        <pt x="269" y="417" on="0"/>
      </contour>
      <contour>
        <pt x="169" y="-30" on="1"/>
        <pt x="161" y="-29" on="0"/>
        <pt x="152" y="-27" on="0"/>
        <pt x="145" y="-25" on="0"/>
        <pt x="137" y="-23" on="0"/>
        <pt x="128" y="-21" on="1"/>
        <pt x="115" y="-26" on="0"/>
        <pt x="89" y="-39" on="0"/>
        <pt x="69" y="-58" on="0"/>
        <pt x="56" y="-84" on="0"/>
        <pt x="56" y="-100" on="1"/>
        <pt x="56" y="-129" on="0"/>
        <pt x="105" y="-162" on="0"/>
        <pt x="151" y="-162" on="1"/>
        <pt x="175" y="-162" on="0"/>
        <pt x="221" y="-152" on="0"/>
        <pt x="257" y="-133" on="0"/>
        <pt x="279" y="-105" on="0"/>
        <pt x="279" y="-88" on="1"/>
        <pt x="279" y="-72" on="0"/>
        <pt x="257" y="-51" on="0"/>
        <pt x="224" y="-39" on="0"/>
        <pt x="185" y="-32" on="0"/>
      </contour>
    </TTGlyph>
    <TTGlyph name="germandbls" xMin="12" yMin="-136" xMax="500" yMax="750">
      <contour>
        <pt x="249" y="-10" on="1"/>
        <pt x="238" y="-10" on="0"/>
        <pt x="208" y="-8" on="0"/>
        <pt x="192" y="-5" on="1"/>
        <pt x="209" y="92" on="1"/>
        <pt x="248" y="92" on="0"/>
        <pt x="303" y="95" on="0"/>
        <pt x="336" y="110" on="0"/>
        <pt x="351" y="144" on="0"/>
        <pt x="351" y="176" on="1"/>
        <pt x="351" y="208" on="0"/>
        <pt x="326" y="254" on="0"/>
        <pt x="295" y="293" on="0"/>
        <pt x="270" y="330" on="0"/>
        <pt x="270" y="351" on="1"/>
        <pt x="270" y="376" on="0"/>
        <pt x="304" y="420" on="0"/>
        <pt x="346" y="470" on="0"/>
        <pt x="380" y="533" on="0"/>
        <pt x="380" y="578" on="1"/>
        <pt x="380" y="615" on="0"/>
        <pt x="349" y="646" on="0"/>
        <pt x="330" y="646" on="1"/>
        <pt x="301" y="646" on="0"/>
        <pt x="268" y="604" on="0"/>
        <pt x="260" y="560" on="1"/>
        <pt x="137" y="-136" on="1"/>
        <pt x="12" y="-136" on="1"/>
        <pt x="106" y="398" on="1"/>
        <pt x="48" y="398" on="1"/>
        <pt x="75" y="500" on="1"/>
        <pt x="124" y="500" on="1"/>
        <pt x="134" y="555" on="1"/>
        <pt x="151" y="646" on="0"/>
        <pt x="258" y="750" on="0"/>
        <pt x="349" y="750" on="1"/>
        <pt x="371" y="750" on="0"/>
        <pt x="424" y="732" on="0"/>
        <pt x="469" y="694" on="0"/>
        <pt x="500" y="635" on="0"/>
        <pt x="500" y="593" on="1"/>
        <pt x="500" y="544" on="0"/>
        <pt x="469" y="470" on="0"/>
        <pt x="433" y="415" on="0"/>
        <pt x="402" y="377" on="0"/>
        <pt x="402" y="364" on="1"/>
        <pt x="402" y="351" on="0"/>
        <pt x="426" y="323" on="0"/>
        <pt x="456" y="284" on="0"/>
        <pt x="480" y="228" on="0"/>
        <pt x="480" y="188" on="1"/>
        <pt x="480" y="133" on="0"/>
        <pt x="442" y="58" on="0"/>
        <pt x="378" y="11" on="0"/>
        <pt x="295" y="-10" on="0"/>
      </contour>
    </TTGlyph>
    <TTGlyph name="grave" xMin="170" yMin="585" xMax="341" yMax="750">
      <contour>
        <pt x="170" y="646" on="1"/>
        <pt x="188" y="750" on="1"/>
        <pt x="341" y="659" on="1"/>
        <pt x="328" y="585" on="1"/>
      </contour>
    </TTGlyph>
    <TTGlyph name="greater" xMin="21" yMin="78" xMax="399" yMax="490">
      <contour>
        <pt x="173" y="78" on="1"/>
        <pt x="21" y="78" on="1"/>
        <pt x="247" y="284" on="1"/>
        <pt x="94" y="490" on="1"/>
        <pt x="246" y="490" on="1"/>
        <pt x="399" y="284" on="1"/>
      </contour>
    </TTGlyph>
    <TTGlyph name="guillemotleft" xMin="11" yMin="78" xMax="570" yMax="490">
      <contour>
        <pt x="347" y="78" on="1"/>
        <pt x="245" y="284" on="1"/>
        <pt x="420" y="490" on="1"/>
        <pt x="570" y="490" on="1"/>
        <pt x="396" y="284" on="1"/>
        <pt x="498" y="78" on="1"/>
      </contour>
      <contour>
        <pt x="113" y="78" on="1"/>
        <pt x="11" y="284" on="1"/>
        <pt x="186" y="490" on="1"/>
        <pt x="337" y="490" on="1"/>
        <pt x="162" y="284" on="1"/>
        <pt x="264" y="78" on="1"/>
      </contour>
    </TTGlyph>
    <TTGlyph name="guillemotright" xMin="-1" yMin="78" xMax="559" yMax="490">
      <contour>
        <pt x="384" y="78" on="1"/>
        <pt x="233" y="78" on="1"/>
        <pt x="408" y="284" on="1"/>
        <pt x="306" y="490" on="1"/>
        <pt x="456" y="490" on="1"/>
        <pt x="559" y="284" on="1"/>
      </contour>
      <contour>
        <pt x="149" y="78" on="1"/>
        <pt x="-1" y="78" on="1"/>
        <pt x="174" y="284" on="1"/>
        <pt x="72" y="490" on="1"/>
        <pt x="222" y="490" on="1"/>
        <pt x="324" y="284" on="1"/>
      </contour>
    </TTGlyph>
    <TTGlyph name="guilsinglleft" xMin="12" yMin="78" xMax="329" yMax="490">
      <contour>
        <pt x="110" y="78" on="1"/>
        <pt x="12" y="284" on="1"/>
        <pt x="182" y="490" on="1"/>
        <pt x="329" y="490" on="1"/>
        <pt x="159" y="284" on="1"/>
        <pt x="257" y="78" on="1"/>
      </contour>
    </TTGlyph>
    <TTGlyph name="guilsinglright" xMin="-1" yMin="78" xMax="316" yMax="490">
      <contour>
        <pt x="146" y="78" on="1"/>
        <pt x="-1" y="78" on="1"/>
        <pt x="169" y="284" on="1"/>
        <pt x="72" y="490" on="1"/>
        <pt x="219" y="490" on="1"/>
        <pt x="316" y="284" on="1"/>
      </contour>
    </TTGlyph>
    <TTGlyph name="h" xMin="7" yMin="0" xMax="464" yMax="750">
      <contour>
        <pt x="285" y="0" on="1"/>
        <pt x="332" y="269" on="1"/>
        <pt x="338" y="302" on="0"/>
        <pt x="338" y="327" on="1"/>
        <pt x="338" y="406" on="0"/>
        <pt x="274" y="406" on="1"/>
        <pt x="251" y="406" on="0"/>
        <pt x="213" y="383" on="0"/>
        <pt x="195" y="363" on="1"/>
        <pt x="131" y="0" on="1"/>
        <pt x="7" y="0" on="1"/>
        <pt x="139" y="750" on="1"/>
        <pt x="264" y="750" on="1"/>
        <pt x="215" y="474" on="1"/>
        <pt x="235" y="488" on="0"/>
        <pt x="283" y="508" on="0"/>
        <pt x="300" y="508" on="1"/>
        <pt x="388" y="508" on="0"/>
        <pt x="464" y="419" on="0"/>
        <pt x="464" y="344" on="1"/>
        <pt x="464" y="307" on="0"/>
        <pt x="457" y="269" on="1"/>
        <pt x="410" y="0" on="1"/>
      </contour>
    </TTGlyph>
    <TTGlyph name="hyphen" xMin="44" yMin="230" xMax="340" yMax="324">
      <contour>
        <pt x="44" y="230" on="1"/>
        <pt x="61" y="324" on="1"/>
        <pt x="340" y="324" on="1"/>
        <pt x="323" y="230" on="1"/>
      </contour>
    </TTGlyph>
    <TTGlyph name="i" xMin="7" yMin="0" xMax="255" yMax="700">
      <contour>
        <pt x="109" y="576" on="1"/>
        <pt x="130" y="700" on="1"/>
        <pt x="255" y="700" on="1"/>
        <pt x="233" y="576" on="1"/>
      </contour>
      <contour>
        <pt x="7" y="0" on="1"/>
        <pt x="95" y="500" on="1"/>
        <pt x="220" y="500" on="1"/>
        <pt x="132" y="0" on="1"/>
      </contour>
    </TTGlyph>
    <TTGlyph name="iacute" xMin="7" yMin="0" xMax="286" yMax="750">
      <component glyphName="dotlessi" x="0" y="0" flags="0x204"/>
      <component glyphName="acute" x="-70" y="0" flags="0x4"/>
    </TTGlyph>
    <TTGlyph name="icircumflex" xMin="7" yMin="0" xMax="319" yMax="750">
      <component glyphName="dotlessi" x="0" y="0" flags="0x204"/>
      <component glyphName="circumflex" x="-135" y="0" flags="0x4"/>
    </TTGlyph>
    <TTGlyph name="idieresis" xMin="7" yMin="0" xMax="305" yMax="700">
      <component glyphName="dotlessi" x="0" y="0" flags="0x204"/>
      <component glyphName="dieresis" x="-125" y="0" flags="0x4"/>
    </TTGlyph>
    <TTGlyph name="igrave" xMin="7" yMin="0" xMax="271" yMax="750">
      <component glyphName="dotlessi" x="0" y="0" flags="0x204"/>
      <component glyphName="grave" x="-70" y="0" flags="0x4"/>
    </TTGlyph>
    <TTGlyph name="j" xMin="-80" yMin="-242" xMax="250" yMax="700">
      <contour>
        <pt x="-80" y="-242" on="1"/>
        <pt x="-72" y="-140" on="1"/>
        <pt x="-55" y="-140" on="0"/>
        <pt x="-35" y="-137" on="0"/>
        <pt x="-23" y="-122" on="0"/>
        <pt x="-14" y="-90" on="0"/>
        <pt x="-9" y="-60" on="1"/>
        <pt x="90" y="500" on="1"/>
        <pt x="215" y="500" on="1"/>
        <pt x="107" y="-111" on="1"/>
        <pt x="102" y="-138" on="0"/>
        <pt x="84" y="-186" on="0"/>
        <pt x="51" y="-221" on="0"/>
        <pt x="2" y="-242" on="0"/>
        <pt x="-34" y="-242" on="1"/>
      </contour>
      <contour>
        <pt x="103" y="576" on="1"/>
        <pt x="125" y="700" on="1"/>
        <pt x="250" y="700" on="1"/>
        <pt x="228" y="576" on="1"/>
      </contour>
    </TTGlyph>
    <TTGlyph name="k" xMin="7" yMin="0" xMax="493" yMax="750">
      <contour>
        <pt x="7" y="0" on="1"/>
        <pt x="139" y="750" on="1"/>
        <pt x="264" y="750" on="1"/>
        <pt x="184" y="295" on="1"/>
        <pt x="355" y="500" on="1"/>
        <pt x="493" y="500" on="1"/>
        <pt x="293" y="260" on="1"/>
        <pt x="402" y="0" on="1"/>
        <pt x="265" y="0" on="1"/>
        <pt x="171" y="222" on="1"/>
        <pt x="132" y="0" on="1"/>
      </contour>
    </TTGlyph>
    <TTGlyph name="l" xMin="24" yMin="-10" xMax="262" yMax="750">
      <contour>
        <pt x="166" y="-10" on="1"/>
        <pt x="119" y="-10" on="1"/>
        <pt x="69" y="-10" on="0"/>
        <pt x="24" y="46" on="0"/>
        <pt x="24" y="88" on="1"/>
        <pt x="24" y="103" on="0"/>
        <pt x="27" y="121" on="1"/>
        <pt x="138" y="750" on="1"/>
        <pt x="262" y="750" on="1"/>
        <pt x="160" y="172" on="1"/>
        <pt x="154" y="137" on="0"/>
        <pt x="154" y="122" on="1"/>
        <pt x="154" y="99" on="0"/>
        <pt x="173" y="92" on="0"/>
        <pt x="193" y="92" on="1"/>
      </contour>
    </TTGlyph>
    <TTGlyph name="less" xMin="28" yMin="78" xMax="406" yMax="490">
      <contour>
        <pt x="181" y="78" on="1"/>
        <pt x="28" y="284" on="1"/>
        <pt x="254" y="490" on="1"/>
        <pt x="406" y="490" on="1"/>
        <pt x="180" y="284" on="1"/>
        <pt x="333" y="78" on="1"/>
      </contour>
    </TTGlyph>
    <TTGlyph name="logicalnot" xMin="61" yMin="151" xMax="492" yMax="406">
      <contour>
        <pt x="347" y="151" on="1"/>
        <pt x="375" y="312" on="1"/>
        <pt x="61" y="312" on="1"/>
        <pt x="78" y="406" on="1"/>
        <pt x="492" y="406" on="1"/>
        <pt x="447" y="151" on="1"/>
      </contour>
    </TTGlyph>
    <TTGlyph name="m" xMin="7" yMin="0" xMax="739" yMax="508">
      <contour>
        <pt x="560" y="0" on="1"/>
        <pt x="607" y="269" on="1"/>
        <pt x="610" y="289" on="0"/>
        <pt x="614" y="322" on="0"/>
        <pt x="614" y="336" on="1"/>
        <pt x="614" y="371" on="0"/>
        <pt x="588" y="406" on="0"/>
        <pt x="556" y="406" on="1"/>
        <pt x="533" y="406" on="0"/>
        <pt x="501" y="390" on="0"/>
        <pt x="478" y="363" on="0"/>
        <pt x="465" y="328" on="0"/>
        <pt x="462" y="309" on="1"/>
        <pt x="408" y="0" on="1"/>
        <pt x="284" y="0" on="1"/>
        <pt x="331" y="269" on="1"/>
        <pt x="335" y="290" on="0"/>
        <pt x="339" y="325" on="0"/>
        <pt x="339" y="339" on="1"/>
        <pt x="339" y="377" on="0"/>
        <pt x="306" y="406" on="0"/>
        <pt x="271" y="406" on="1"/>
        <pt x="249" y="406" on="0"/>
        <pt x="213" y="385" on="0"/>
        <pt x="196" y="365" on="1"/>
        <pt x="132" y="0" on="1"/>
        <pt x="7" y="0" on="1"/>
        <pt x="95" y="500" on="1"/>
        <pt x="198" y="500" on="1"/>
        <pt x="198" y="461" on="1"/>
        <pt x="212" y="479" on="0"/>
        <pt x="278" y="508" on="0"/>
        <pt x="314" y="508" on="1"/>
        <pt x="353" y="508" on="0"/>
        <pt x="419" y="471" on="0"/>
        <pt x="433" y="432" on="1"/>
        <pt x="439" y="444" on="0"/>
        <pt x="467" y="471" on="0"/>
        <pt x="508" y="493" on="0"/>
        <pt x="561" y="508" on="0"/>
        <pt x="591" y="508" on="1"/>
        <pt x="668" y="508" on="0"/>
        <pt x="739" y="418" on="0"/>
        <pt x="739" y="343" on="1"/>
        <pt x="739" y="326" on="0"/>
        <pt x="735" y="289" on="0"/>
        <pt x="732" y="269" on="1"/>
        <pt x="685" y="0" on="1"/>
      </contour>
    </TTGlyph>
    <TTGlyph name="mu" xMin="-22" yMin="-242" xMax="516" yMax="500">
      <contour>
        <pt x="469" y="-10" on="1"/>
        <pt x="421" y="-10" on="1"/>
        <pt x="385" y="-10" on="0"/>
        <pt x="342" y="18" on="0"/>
        <pt x="333" y="42" on="1"/>
        <pt x="323" y="32" on="0"/>
        <pt x="293" y="14" on="0"/>
        <pt x="261" y="0" on="0"/>
        <pt x="229" y="-8" on="0"/>
        <pt x="216" y="-8" on="1"/>
        <pt x="193" y="-8" on="0"/>
        <pt x="157" y="-1" on="0"/>
        <pt x="147" y="6" on="1"/>
        <pt x="104" y="-242" on="1"/>
        <pt x="-22" y="-242" on="1"/>
        <pt x="109" y="500" on="1"/>
        <pt x="234" y="500" on="1"/>
        <pt x="187" y="231" on="1"/>
        <pt x="181" y="199" on="0"/>
        <pt x="181" y="175" on="1"/>
        <pt x="181" y="94" on="0"/>
        <pt x="243" y="94" on="1"/>
        <pt x="267" y="94" on="0"/>
        <pt x="311" y="116" on="0"/>
        <pt x="326" y="136" on="1"/>
        <pt x="390" y="500" on="1"/>
        <pt x="516" y="500" on="1"/>
        <pt x="458" y="172" on="1"/>
        <pt x="455" y="153" on="0"/>
        <pt x="451" y="128" on="0"/>
        <pt x="451" y="119" on="1"/>
        <pt x="451" y="100" on="0"/>
        <pt x="466" y="92" on="0"/>
        <pt x="483" y="92" on="1"/>
        <pt x="495" y="92" on="1"/>
      </contour>
    </TTGlyph>
    <TTGlyph name="multiply" xMin="36" yMin="109" xMax="384" yMax="445">
      <contour>
        <pt x="270" y="109" on="1"/>
        <pt x="199" y="216" on="1"/>
        <pt x="90" y="109" on="1"/>
        <pt x="36" y="170" on="1"/>
        <pt x="145" y="277" on="1"/>
        <pt x="74" y="384" on="1"/>
        <pt x="149" y="445" on="1"/>
        <pt x="221" y="338" on="1"/>
        <pt x="330" y="445" on="1"/>
        <pt x="384" y="384" on="1"/>
        <pt x="275" y="277" on="1"/>
        <pt x="346" y="170" on="1"/>
      </contour>
    </TTGlyph>
    <TTGlyph name="n" xMin="7" yMin="0" xMax="458" yMax="508">
      <contour>
        <pt x="279" y="0" on="1"/>
        <pt x="326" y="269" on="1"/>
        <pt x="332" y="303" on="0"/>
        <pt x="332" y="329" on="1"/>
        <pt x="332" y="406" on="0"/>
        <pt x="272" y="406" on="1"/>
        <pt x="248" y="406" on="0"/>
        <pt x="214" y="383" on="0"/>
        <pt x="196" y="363" on="1"/>
        <pt x="132" y="0" on="1"/>
        <pt x="7" y="0" on="1"/>
        <pt x="95" y="500" on="1"/>
        <pt x="217" y="500" on="1"/>
        <pt x="211" y="470" on="1"/>
        <pt x="225" y="486" on="0"/>
        <pt x="273" y="508" on="0"/>
        <pt x="296" y="508" on="1"/>
        <pt x="340" y="508" on="0"/>
        <pt x="401" y="485" on="0"/>
        <pt x="440" y="443" on="0"/>
        <pt x="458" y="383" on="0"/>
        <pt x="458" y="346" on="1"/>
        <pt x="458" y="328" on="0"/>
        <pt x="455" y="289" on="0"/>
        <pt x="451" y="269" on="1"/>
        <pt x="404" y="0" on="1"/>
      </contour>
    </TTGlyph>
    <TTGlyph name="nine" xMin="73" yMin="0" xMax="502" yMax="714">
      <contour>
        <pt x="344" y="714" on="1"/>
        <pt x="379" y="714" on="0"/>
        <pt x="437" y="692" on="0"/>
        <pt x="479" y="645" on="0"/>
        <pt x="502" y="572" on="0"/>
        <pt x="502" y="520" on="1"/>
        <pt x="502" y="449" on="0"/>
        <pt x="468" y="317" on="0"/>
        <pt x="411" y="201" on="0"/>
        <pt x="337" y="106" on="0"/>
        <pt x="256" y="38" on="0"/>
        <pt x="175" y="0" on="0"/>
        <pt x="140" y="0" on="1"/>
        <pt x="73" y="50" on="1"/>
        <pt x="84" y="50" on="0"/>
        <pt x="129" y="69" on="0"/>
        <pt x="186" y="105" on="0"/>
        <pt x="247" y="154" on="0"/>
        <pt x="300" y="213" on="0"/>
        <pt x="339" y="281" on="0"/>
        <pt x="346" y="317" on="1"/>
        <pt x="335" y="306" on="0"/>
        <pt x="297" y="291" on="0"/>
        <pt x="261" y="282" on="0"/>
        <pt x="236" y="279" on="0"/>
        <pt x="237" y="279" on="1"/>
        <pt x="165" y="279" on="0"/>
        <pt x="78" y="360" on="0"/>
        <pt x="78" y="438" on="1"/>
        <pt x="78" y="492" on="0"/>
        <pt x="118" y="592" on="0"/>
        <pt x="189" y="669" on="0"/>
        <pt x="286" y="714" on="0"/>
      </contour>
      <contour>
        <pt x="267" y="383" on="1"/>
        <pt x="291" y="383" on="0"/>
        <pt x="335" y="401" on="0"/>
        <pt x="368" y="435" on="0"/>
        <pt x="388" y="486" on="0"/>
        <pt x="388" y="519" on="1"/>
        <pt x="388" y="542" on="0"/>
        <pt x="375" y="573" on="0"/>
        <pt x="354" y="592" on="0"/>
        <pt x="330" y="600" on="0"/>
        <pt x="319" y="600" on="1"/>
        <pt x="294" y="600" on="0"/>
        <pt x="252" y="575" on="0"/>
        <pt x="221" y="535" on="0"/>
        <pt x="204" y="487" on="0"/>
        <pt x="204" y="463" on="1"/>
        <pt x="204" y="432" on="0"/>
        <pt x="234" y="383" on="0"/>
      </contour>
    </TTGlyph>
    <TTGlyph name="ntilde" xMin="7" yMin="0" xMax="502" yMax="721">
      <component glyphName="n" x="0" y="0" flags="0x204"/>
      <component glyphName="tilde" x="-42" y="0" flags="0x4"/>
    </TTGlyph>
    <TTGlyph name="numbersign" xMin="11" yMin="-11" xMax="658" yMax="700">
      <contour>
        <pt x="608" y="414" on="1"/>
        <pt x="506" y="414" on="1"/>
        <pt x="455" y="309" on="1"/>
        <pt x="567" y="309" on="1"/>
        <pt x="506" y="211" on="1"/>
        <pt x="402" y="211" on="1"/>
        <pt x="288" y="-11" on="1"/>
        <pt x="197" y="-11" on="1"/>
        <pt x="307" y="211" on="1"/>
        <pt x="218" y="211" on="1"/>
        <pt x="102" y="-11" on="1"/>
        <pt x="11" y="-11" on="1"/>
        <pt x="125" y="211" on="1"/>
        <pt x="20" y="211" on="1"/>
        <pt x="78" y="309" on="1"/>
        <pt x="177" y="309" on="1"/>
        <pt x="229" y="414" on="1"/>
        <pt x="122" y="414" on="1"/>
        <pt x="169" y="512" on="1"/>
        <pt x="281" y="512" on="1"/>
        <pt x="381" y="700" on="1"/>
        <pt x="472" y="700" on="1"/>
        <pt x="374" y="512" on="1"/>
        <pt x="467" y="512" on="1"/>
        <pt x="564" y="700" on="1"/>
        <pt x="655" y="700" on="1"/>
        <pt x="559" y="512" on="1"/>
        <pt x="658" y="512" on="1"/>
      </contour>
      <contour>
        <pt x="322" y="414" on="1"/>
        <pt x="268" y="309" on="1"/>
        <pt x="360" y="309" on="1"/>
        <pt x="414" y="414" on="1"/>
      </contour>
    </TTGlyph>
    <TTGlyph name="o" xMin="17" yMin="-10" xMax="490" yMax="508">
      <contour>
        <pt x="208" y="-10" on="1"/>
        <pt x="161" y="-10" on="0"/>
        <pt x="89" y="24" on="0"/>
        <pt x="41" y="81" on="0"/>
        <pt x="17" y="158" on="0"/>
        <pt x="17" y="202" on="1"/>
        <pt x="17" y="262" on="0"/>
        <pt x="58" y="372" on="0"/>
        <pt x="133" y="457" on="0"/>
        <pt x="236" y="508" on="0"/>
        <pt x="299" y="508" on="1"/>
        <pt x="347" y="508" on="0"/>
        <pt x="418" y="475" on="0"/>
        <pt x="466" y="417" on="0"/>
        <pt x="490" y="340" on="0"/>
        <pt x="490" y="296" on="1"/>
        <pt x="490" y="236" on="0"/>
        <pt x="449" y="126" on="0"/>
        <pt x="375" y="41" on="0"/>
        <pt x="271" y="-10" on="0"/>
      </contour>
      <contour>
        <pt x="281" y="406" on="1"/>
        <pt x="251" y="406" on="0"/>
        <pt x="201" y="375" on="0"/>
        <pt x="165" y="321" on="0"/>
        <pt x="145" y="249" on="0"/>
        <pt x="145" y="208" on="1"/>
        <pt x="145" y="156" on="0"/>
        <pt x="186" y="92" on="0"/>
        <pt x="226" y="92" on="1"/>
        <pt x="256" y="92" on="0"/>
        <pt x="306" y="123" on="0"/>
        <pt x="342" y="177" on="0"/>
        <pt x="362" y="249" on="0"/>
        <pt x="362" y="290" on="1"/>
        <pt x="362" y="342" on="0"/>
        <pt x="321" y="406" on="0"/>
      </contour>
    </TTGlyph>
    <TTGlyph name="oacute" xMin="17" yMin="-10" xMax="490" yMax="750">
      <component glyphName="o" x="0" y="0" flags="0x204"/>
      <component glyphName="acute" x="69" y="0" flags="0x4"/>
    </TTGlyph>
    <TTGlyph name="ocircumflex" xMin="17" yMin="-10" xMax="490" yMax="750">
      <component glyphName="o" x="0" y="0" flags="0x204"/>
      <component glyphName="circumflex" x="5" y="0" flags="0x4"/>
    </TTGlyph>
    <TTGlyph name="odieresis" xMin="17" yMin="-10" xMax="490" yMax="700">
      <component glyphName="o" x="0" y="0" flags="0x204"/>
      <component glyphName="dieresis" x="16" y="0" flags="0x4"/>
    </TTGlyph>
    <TTGlyph name="oe" xMin="17" yMin="-10" xMax="790" yMax="508">
      <contour>
        <pt x="482" y="223" on="1"/>
        <pt x="484" y="153" on="0"/>
        <pt x="542" y="92" on="0"/>
        <pt x="589" y="92" on="1"/>
        <pt x="604" y="92" on="0"/>
        <pt x="641" y="99" on="0"/>
        <pt x="681" y="110" on="0"/>
        <pt x="720" y="125" on="0"/>
        <pt x="735" y="133" on="1"/>
        <pt x="720" y="28" on="1"/>
        <pt x="691" y="13" on="0"/>
        <pt x="608" y="-10" on="0"/>
        <pt x="558" y="-10" on="1"/>
        <pt x="504" y="-10" on="0"/>
        <pt x="417" y="33" on="0"/>
        <pt x="389" y="71" on="1"/>
        <pt x="349" y="33" on="0"/>
        <pt x="262" y="-10" on="0"/>
        <pt x="207" y="-10" on="1"/>
        <pt x="160" y="-10" on="0"/>
        <pt x="89" y="23" on="0"/>
        <pt x="41" y="81" on="0"/>
        <pt x="17" y="158" on="0"/>
        <pt x="17" y="202" on="1"/>
        <pt x="17" y="261" on="0"/>
        <pt x="58" y="372" on="0"/>
        <pt x="132" y="457" on="0"/>
        <pt x="235" y="508" on="0"/>
        <pt x="297" y="508" on="1"/>
        <pt x="354" y="508" on="0"/>
        <pt x="425" y="465" on="0"/>
        <pt x="451" y="429" on="1"/>
        <pt x="486" y="465" on="0"/>
        <pt x="566" y="508" on="0"/>
        <pt x="623" y="508" on="1"/>
        <pt x="660" y="508" on="0"/>
        <pt x="722" y="483" on="0"/>
        <pt x="766" y="436" on="0"/>
        <pt x="790" y="370" on="0"/>
        <pt x="790" y="330" on="1"/>
        <pt x="790" y="297" on="0"/>
        <pt x="776" y="250" on="0"/>
        <pt x="765" y="223" on="1"/>
      </contour>
      <contour>
        <pt x="611" y="406" on="1"/>
        <pt x="569" y="406" on="0"/>
        <pt x="514" y="350" on="0"/>
        <pt x="500" y="307" on="1"/>
        <pt x="662" y="307" on="1"/>
        <pt x="666" y="323" on="0"/>
        <pt x="666" y="345" on="1"/>
        <pt x="666" y="369" on="0"/>
        <pt x="643" y="406" on="0"/>
      </contour>
      <contour>
        <pt x="279" y="406" on="1"/>
        <pt x="250" y="406" on="0"/>
        <pt x="201" y="375" on="0"/>
        <pt x="165" y="321" on="0"/>
        <pt x="145" y="249" on="0"/>
        <pt x="145" y="208" on="1"/>
        <pt x="145" y="156" on="0"/>
        <pt x="186" y="92" on="0"/>
        <pt x="224" y="92" on="1"/>
        <pt x="252" y="92" on="0"/>
        <pt x="302" y="123" on="0"/>
        <pt x="338" y="176" on="0"/>
        <pt x="359" y="248" on="0"/>
        <pt x="359" y="290" on="1"/>
        <pt x="359" y="342" on="0"/>
        <pt x="319" y="406" on="0"/>
      </contour>
    </TTGlyph>
    <TTGlyph name="ograve" xMin="17" yMin="-10" xMax="490" yMax="750">
      <component glyphName="o" x="0" y="0" flags="0x204"/>
      <component glyphName="grave" x="69" y="0" flags="0x4"/>
    </TTGlyph>
    <TTGlyph name="one" xMin="89" yMin="0" xMax="338" yMax="700">
      <contour>
        <pt x="89" y="0" on="1"/>
        <pt x="181" y="519" on="1"/>
        <pt x="153" y="492" on="0"/>
        <pt x="101" y="483" on="1"/>
        <pt x="112" y="591" on="1"/>
        <pt x="125" y="594" on="0"/>
        <pt x="163" y="616" on="0"/>
        <pt x="200" y="646" on="0"/>
        <pt x="233" y="682" on="0"/>
        <pt x="241" y="700" on="1"/>
        <pt x="338" y="700" on="1"/>
        <pt x="215" y="0" on="1"/>
      </contour>
    </TTGlyph>
    <TTGlyph name="onehalf" xMin="-7" yMin="-85" xMax="629" yMax="700">
      <component glyphName="onesuperior" x="9" y="0" flags="0x4"/>
      <component glyphName="slash" x="39" y="0" flags="0x4"/>
      <component glyphName="twosuperior" x="327" y="-319" flags="0x4"/>
    </TTGlyph>
    <TTGlyph name="onequarter" xMin="-5" yMin="-85" xMax="628" yMax="700">
      <component glyphName="onesuperior" x="11" y="0" flags="0x4"/>
      <component glyphName="slash" x="41" y="0" flags="0x4"/>
      <component glyphName="uni2074" x="292" y="-319" flags="0x4"/>
    </TTGlyph>
    <TTGlyph name="onesuperior" xMin="70" yMin="320" xMax="231" yMax="698">
      <contour>
        <pt x="70" y="320" on="1"/>
        <pt x="115" y="568" on="1"/>
        <pt x="106" y="565" on="0"/>
        <pt x="83" y="565" on="1"/>
        <pt x="96" y="639" on="1"/>
        <pt x="100" y="639" on="0"/>
        <pt x="118" y="650" on="0"/>
        <pt x="137" y="667" on="0"/>
        <pt x="153" y="688" on="0"/>
        <pt x="155" y="698" on="1"/>
        <pt x="231" y="698" on="1"/>
        <pt x="165" y="320" on="1"/>
      </contour>
    </TTGlyph>
    <TTGlyph name="ordfeminine" xMin="69" yMin="433" xMax="341" yMax="732">
      <contour>
        <pt x="324" y="434" on="1"/>
        <pt x="268" y="434" on="1"/>
        <pt x="263" y="434" on="0"/>
        <pt x="248" y="438" on="0"/>
        <pt x="233" y="444" on="0"/>
        <pt x="219" y="451" on="0"/>
        <pt x="216" y="454" on="1"/>
        <pt x="199" y="444" on="0"/>
        <pt x="161" y="433" on="0"/>
        <pt x="142" y="433" on="1"/>
        <pt x="113" y="433" on="0"/>
        <pt x="69" y="467" on="0"/>
        <pt x="69" y="505" on="1"/>
        <pt x="69" y="533" on="0"/>
        <pt x="93" y="572" on="0"/>
        <pt x="129" y="599" on="0"/>
        <pt x="170" y="616" on="0"/>
        <pt x="206" y="626" on="0"/>
        <pt x="230" y="631" on="0"/>
        <pt x="230" y="634" on="1"/>
        <pt x="230" y="639" on="0"/>
        <pt x="218" y="647" on="0"/>
        <pt x="200" y="647" on="1"/>
        <pt x="177" y="647" on="0"/>
        <pt x="139" y="636" on="0"/>
        <pt x="116" y="632" on="1"/>
        <pt x="126" y="713" on="1"/>
        <pt x="169" y="725" on="0"/>
        <pt x="223" y="732" on="0"/>
        <pt x="237" y="732" on="1"/>
        <pt x="280" y="732" on="0"/>
        <pt x="338" y="694" on="0"/>
        <pt x="338" y="659" on="1"/>
        <pt x="338" y="654" on="0"/>
        <pt x="337" y="652" on="0"/>
        <pt x="337" y="650" on="1"/>
        <pt x="318" y="543" on="1"/>
        <pt x="317" y="538" on="0"/>
        <pt x="316" y="532" on="0"/>
        <pt x="316" y="529" on="1"/>
        <pt x="316" y="519" on="0"/>
        <pt x="325" y="519" on="1"/>
        <pt x="341" y="519" on="1"/>
      </contour>
      <contour>
        <pt x="218" y="563" on="1"/>
        <pt x="214" y="563" on="0"/>
        <pt x="201" y="560" on="0"/>
        <pt x="188" y="552" on="0"/>
        <pt x="179" y="536" on="0"/>
        <pt x="179" y="523" on="1"/>
        <pt x="179" y="515" on="0"/>
        <pt x="184" y="497" on="0"/>
        <pt x="190" y="497" on="1"/>
        <pt x="200" y="497" on="0"/>
        <pt x="207" y="501" on="1"/>
      </contour>
    </TTGlyph>
    <TTGlyph name="ordmasculine" xMin="77" yMin="434" xMax="376" yMax="732">
      <contour>
        <pt x="200" y="434" on="1"/>
        <pt x="170" y="434" on="0"/>
        <pt x="124" y="455" on="0"/>
        <pt x="93" y="489" on="0"/>
        <pt x="77" y="535" on="0"/>
        <pt x="77" y="560" on="1"/>
        <pt x="77" y="592" on="0"/>
        <pt x="103" y="654" on="0"/>
        <pt x="149" y="702" on="0"/>
        <pt x="214" y="732" on="0"/>
        <pt x="253" y="732" on="1"/>
        <pt x="284" y="732" on="0"/>
        <pt x="330" y="711" on="0"/>
        <pt x="361" y="677" on="0"/>
        <pt x="376" y="632" on="0"/>
        <pt x="376" y="607" on="1"/>
        <pt x="376" y="575" on="0"/>
        <pt x="351" y="513" on="0"/>
        <pt x="305" y="464" on="0"/>
        <pt x="240" y="434" on="0"/>
      </contour>
      <contour>
        <pt x="239" y="655" on="1"/>
        <pt x="228" y="655" on="0"/>
        <pt x="207" y="639" on="0"/>
        <pt x="192" y="614" on="0"/>
        <pt x="183" y="582" on="0"/>
        <pt x="183" y="566" on="1"/>
        <pt x="183" y="544" on="0"/>
        <pt x="199" y="511" on="0"/>
        <pt x="214" y="511" on="1"/>
        <pt x="225" y="511" on="0"/>
        <pt x="246" y="527" on="0"/>
        <pt x="261" y="552" on="0"/>
        <pt x="270" y="584" on="0"/>
        <pt x="270" y="600" on="1"/>
        <pt x="270" y="622" on="0"/>
        <pt x="255" y="655" on="0"/>
      </contour>
    </TTGlyph>
    <TTGlyph name="oslash" xMin="17" yMin="-36" xMax="483" yMax="534">
      <contour>
        <pt x="204" y="-10" on="1"/>
        <pt x="170" y="-10" on="0"/>
        <pt x="149" y="-2" on="1"/>
        <pt x="130" y="-36" on="1"/>
        <pt x="21" y="-36" on="1"/>
        <pt x="68" y="39" on="1"/>
        <pt x="43" y="66" on="0"/>
        <pt x="17" y="152" on="0"/>
        <pt x="17" y="200" on="1"/>
        <pt x="17" y="260" on="0"/>
        <pt x="57" y="371" on="0"/>
        <pt x="131" y="457" on="0"/>
        <pt x="234" y="508" on="0"/>
        <pt x="296" y="508" on="1"/>
        <pt x="329" y="508" on="0"/>
        <pt x="348" y="500" on="1"/>
        <pt x="368" y="534" on="1"/>
        <pt x="479" y="534" on="1"/>
        <pt x="432" y="459" on="1"/>
        <pt x="457" y="431" on="0"/>
        <pt x="483" y="345" on="0"/>
        <pt x="483" y="297" on="1"/>
        <pt x="483" y="237" on="0"/>
        <pt x="442" y="127" on="0"/>
        <pt x="369" y="41" on="0"/>
        <pt x="266" y="-10" on="0"/>
      </contour>
      <contour>
        <pt x="214" y="94" on="1"/>
        <pt x="216" y="92" on="0"/>
        <pt x="222" y="92" on="1"/>
        <pt x="252" y="92" on="0"/>
        <pt x="302" y="124" on="0"/>
        <pt x="338" y="181" on="0"/>
        <pt x="358" y="259" on="0"/>
        <pt x="358" y="306" on="1"/>
        <pt x="358" y="316" on="0"/>
        <pt x="357" y="341" on="0"/>
        <pt x="357" y="349" on="1"/>
      </contour>
      <contour>
        <pt x="279" y="406" on="1"/>
        <pt x="249" y="406" on="0"/>
        <pt x="198" y="374" on="0"/>
        <pt x="162" y="315" on="0"/>
        <pt x="141" y="233" on="0"/>
        <pt x="141" y="184" on="1"/>
        <pt x="141" y="176" on="0"/>
        <pt x="142" y="154" on="0"/>
        <pt x="142" y="149" on="1"/>
        <pt x="283" y="404" on="1"/>
        <pt x="283" y="406" on="0"/>
      </contour>
    </TTGlyph>
    <TTGlyph name="otilde" xMin="17" yMin="-10" xMax="509" yMax="721">
      <component glyphName="o" x="0" y="0" flags="0x204"/>
      <component glyphName="tilde" x="-35" y="0" flags="0x4"/>
    </TTGlyph>
    <TTGlyph name="p" xMin="-36" yMin="-242" xMax="502" yMax="508">
      <contour>
        <pt x="221" y="-10" on="1"/>
        <pt x="202" y="-10" on="0"/>
        <pt x="177" y="-6" on="0"/>
        <pt x="159" y="3" on="0"/>
        <pt x="145" y="16" on="0"/>
        <pt x="136" y="24" on="1"/>
        <pt x="89" y="-242" on="1"/>
        <pt x="-36" y="-242" on="1"/>
        <pt x="95" y="500" on="1"/>
        <pt x="207" y="500" on="1"/>
        <pt x="211" y="471" on="1"/>
        <pt x="234" y="488" on="0"/>
        <pt x="282" y="508" on="0"/>
        <pt x="312" y="508" on="1"/>
        <pt x="361" y="508" on="0"/>
        <pt x="432" y="475" on="0"/>
        <pt x="479" y="418" on="0"/>
        <pt x="502" y="342" on="0"/>
        <pt x="502" y="299" on="1"/>
        <pt x="502" y="239" on="0"/>
        <pt x="463" y="127" on="0"/>
        <pt x="390" y="42" on="0"/>
        <pt x="286" y="-10" on="0"/>
      </contour>
      <contour>
        <pt x="288" y="406" on="1"/>
        <pt x="231" y="406" on="0"/>
        <pt x="162" y="304" on="0"/>
        <pt x="162" y="188" on="1"/>
        <pt x="162" y="146" on="0"/>
        <pt x="192" y="92" on="0"/>
        <pt x="232" y="92" on="1"/>
        <pt x="264" y="92" on="0"/>
        <pt x="316" y="123" on="0"/>
        <pt x="354" y="177" on="0"/>
        <pt x="374" y="248" on="0"/>
        <pt x="374" y="289" on="1"/>
        <pt x="374" y="341" on="0"/>
        <pt x="330" y="406" on="0"/>
      </contour>
    </TTGlyph>
    <TTGlyph name="paragraph" xMin="61" yMin="0" xMax="598" yMax="700">
      <contour>
        <pt x="520" y="593" on="1"/>
        <pt x="415" y="0" on="1"/>
        <pt x="320" y="0" on="1"/>
        <pt x="425" y="593" on="1"/>
        <pt x="384" y="593" on="1"/>
        <pt x="280" y="0" on="1"/>
        <pt x="207" y="0" on="1"/>
        <pt x="247" y="229" on="1"/>
        <pt x="200" y="232" on="0"/>
        <pt x="130" y="269" on="0"/>
        <pt x="84" y="324" on="0"/>
        <pt x="61" y="394" on="0"/>
        <pt x="61" y="431" on="1"/>
        <pt x="61" y="480" on="0"/>
        <pt x="102" y="576" on="0"/>
        <pt x="179" y="652" on="0"/>
        <pt x="292" y="700" on="0"/>
        <pt x="364" y="700" on="1"/>
        <pt x="598" y="700" on="1"/>
        <pt x="579" y="593" on="1"/>
      </contour>
    </TTGlyph>
    <TTGlyph name="parenleft" xMin="28" yMin="-136" xMax="329" yMax="750">
      <contour>
        <pt x="58" y="-136" on="1"/>
        <pt x="44" y="-90" on="0"/>
        <pt x="28" y="41" on="0"/>
        <pt x="28" y="116" on="1"/>
        <pt x="28" y="187" on="0"/>
        <pt x="44" y="339" on="0"/>
        <pt x="86" y="499" on="0"/>
        <pt x="158" y="665" on="0"/>
        <pt x="214" y="750" on="1"/>
        <pt x="329" y="750" on="1"/>
        <pt x="291" y="692" on="0"/>
        <pt x="221" y="563" on="0"/>
        <pt x="168" y="416" on="0"/>
        <pt x="136" y="247" on="0"/>
        <pt x="136" y="149" on="1"/>
        <pt x="136" y="64" on="0"/>
        <pt x="157" y="-84" on="0"/>
        <pt x="173" y="-136" on="1"/>
      </contour>
    </TTGlyph>
    <TTGlyph name="parenright" xMin="-53" yMin="-136" xMax="248" yMax="750">
      <contour>
        <pt x="-53" y="-136" on="1"/>
        <pt x="-14" y="-78" on="0"/>
        <pt x="56" y="51" on="0"/>
        <pt x="109" y="198" on="0"/>
        <pt x="141" y="367" on="0"/>
        <pt x="141" y="465" on="1"/>
        <pt x="141" y="550" on="0"/>
        <pt x="120" y="698" on="0"/>
        <pt x="103" y="750" on="1"/>
        <pt x="218" y="750" on="1"/>
        <pt x="232" y="704" on="0"/>
        <pt x="248" y="573" on="0"/>
        <pt x="248" y="498" on="1"/>
        <pt x="248" y="427" on="0"/>
        <pt x="231" y="275" on="0"/>
        <pt x="189" y="115" on="0"/>
        <pt x="117" y="-51" on="0"/>
        <pt x="62" y="-136" on="1"/>
      </contour>
    </TTGlyph>
    <TTGlyph name="percent" xMin="71" yMin="-12" xMax="720" yMax="704">
      <contour>
        <pt x="184" y="-12" on="1"/>
        <pt x="79" y="-12" on="1"/>
        <pt x="585" y="700" on="1"/>
        <pt x="690" y="700" on="1"/>
      </contour>
      <contour>
        <pt x="180" y="335" on="1"/>
        <pt x="128" y="335" on="0"/>
        <pt x="71" y="411" on="0"/>
        <pt x="71" y="474" on="1"/>
        <pt x="71" y="525" on="0"/>
        <pt x="100" y="610" on="0"/>
        <pt x="150" y="670" on="0"/>
        <pt x="214" y="704" on="0"/>
        <pt x="250" y="704" on="1"/>
        <pt x="301" y="704" on="0"/>
        <pt x="359" y="629" on="0"/>
        <pt x="359" y="564" on="1"/>
        <pt x="359" y="515" on="0"/>
        <pt x="332" y="431" on="0"/>
        <pt x="285" y="370" on="0"/>
        <pt x="219" y="335" on="0"/>
      </contour>
      <contour>
        <pt x="236" y="632" on="1"/>
        <pt x="223" y="632" on="0"/>
        <pt x="194" y="613" on="0"/>
        <pt x="169" y="575" on="0"/>
        <pt x="152" y="518" on="0"/>
        <pt x="152" y="479" on="1"/>
        <pt x="152" y="442" on="0"/>
        <pt x="175" y="407" on="0"/>
        <pt x="194" y="407" on="1"/>
        <pt x="231" y="407" on="0"/>
        <pt x="278" y="487" on="0"/>
        <pt x="278" y="558" on="1"/>
        <pt x="278" y="596" on="0"/>
        <pt x="253" y="632" on="0"/>
      </contour>
      <contour>
        <pt x="542" y="-9" on="1"/>
        <pt x="489" y="-9" on="0"/>
        <pt x="432" y="67" on="0"/>
        <pt x="432" y="130" on="1"/>
        <pt x="432" y="181" on="0"/>
        <pt x="461" y="266" on="0"/>
        <pt x="511" y="326" on="0"/>
        <pt x="575" y="360" on="0"/>
        <pt x="611" y="360" on="1"/>
        <pt x="662" y="360" on="0"/>
        <pt x="720" y="285" on="0"/>
        <pt x="720" y="220" on="1"/>
        <pt x="720" y="171" on="0"/>
        <pt x="693" y="87" on="0"/>
        <pt x="646" y="26" on="0"/>
        <pt x="581" y="-9" on="0"/>
      </contour>
      <contour>
        <pt x="598" y="288" on="1"/>
        <pt x="584" y="288" on="0"/>
        <pt x="555" y="269" on="0"/>
        <pt x="530" y="231" on="0"/>
        <pt x="513" y="174" on="0"/>
        <pt x="513" y="135" on="1"/>
        <pt x="513" y="98" on="0"/>
        <pt x="537" y="63" on="0"/>
        <pt x="556" y="63" on="1"/>
        <pt x="593" y="63" on="0"/>
        <pt x="640" y="143" on="0"/>
        <pt x="640" y="214" on="1"/>
        <pt x="640" y="252" on="0"/>
        <pt x="615" y="288" on="0"/>
      </contour>
    </TTGlyph>
    <TTGlyph name="period" xMin="4" yMin="0" xMax="152" yMax="130">
      <contour>
        <pt x="4" y="0" on="1"/>
        <pt x="27" y="130" on="1"/>
        <pt x="152" y="130" on="1"/>
        <pt x="129" y="0" on="1"/>
      </contour>
    </TTGlyph>
    <TTGlyph name="periodcentered" xMin="41" yMin="213" xMax="176" yMax="343">
      <contour>
        <pt x="41" y="213" on="1"/>
        <pt x="64" y="343" on="1"/>
        <pt x="176" y="343" on="1"/>
        <pt x="153" y="213" on="1"/>
      </contour>
    </TTGlyph>
    <TTGlyph name="perthousand" xMin="72" yMin="-12" xMax="1046" yMax="704">
      <contour>
        <pt x="185" y="-12" on="1"/>
        <pt x="80" y="-12" on="1"/>
        <pt x="586" y="700" on="1"/>
        <pt x="691" y="700" on="1"/>
      </contour>
      <contour>
        <pt x="181" y="335" on="1"/>
        <pt x="129" y="335" on="0"/>
        <pt x="72" y="411" on="0"/>
        <pt x="72" y="474" on="1"/>
        <pt x="72" y="525" on="0"/>
        <pt x="101" y="610" on="0"/>
        <pt x="151" y="670" on="0"/>
        <pt x="215" y="704" on="0"/>
        <pt x="251" y="704" on="1"/>
        <pt x="302" y="704" on="0"/>
        <pt x="360" y="629" on="0"/>
        <pt x="360" y="564" on="1"/>
        <pt x="360" y="515" on="0"/>
        <pt x="333" y="431" on="0"/>
        <pt x="286" y="370" on="0"/>
        <pt x="220" y="335" on="0"/>
      </contour>
      <contour>
        <pt x="237" y="632" on="1"/>
        <pt x="224" y="632" on="0"/>
        <pt x="195" y="613" on="0"/>
        <pt x="170" y="575" on="0"/>
        <pt x="153" y="518" on="0"/>
        <pt x="153" y="479" on="1"/>
        <pt x="153" y="442" on="0"/>
        <pt x="176" y="407" on="0"/>
        <pt x="195" y="407" on="1"/>
        <pt x="232" y="407" on="0"/>
        <pt x="279" y="487" on="0"/>
        <pt x="279" y="558" on="1"/>
        <pt x="279" y="596" on="0"/>
        <pt x="254" y="632" on="0"/>
      </contour>
      <contour>
        <pt x="543" y="-9" on="1"/>
        <pt x="490" y="-9" on="0"/>
        <pt x="433" y="67" on="0"/>
        <pt x="433" y="130" on="1"/>
        <pt x="433" y="181" on="0"/>
        <pt x="462" y="266" on="0"/>
        <pt x="512" y="326" on="0"/>
        <pt x="576" y="360" on="0"/>
        <pt x="612" y="360" on="1"/>
        <pt x="663" y="360" on="0"/>
        <pt x="721" y="285" on="0"/>
        <pt x="721" y="220" on="1"/>
        <pt x="721" y="171" on="0"/>
        <pt x="694" y="87" on="0"/>
        <pt x="647" y="26" on="0"/>
        <pt x="582" y="-9" on="0"/>
      </contour>
      <contour>
        <pt x="599" y="288" on="1"/>
        <pt x="585" y="288" on="0"/>
        <pt x="556" y="269" on="0"/>
        <pt x="531" y="231" on="0"/>
        <pt x="514" y="174" on="0"/>
        <pt x="514" y="135" on="1"/>
        <pt x="514" y="98" on="0"/>
        <pt x="538" y="63" on="0"/>
        <pt x="557" y="63" on="1"/>
        <pt x="594" y="63" on="0"/>
        <pt x="641" y="143" on="0"/>
        <pt x="641" y="214" on="1"/>
        <pt x="641" y="252" on="0"/>
        <pt x="616" y="288" on="0"/>
      </contour>
      <contour>
        <pt x="867" y="-9" on="1"/>
        <pt x="815" y="-9" on="0"/>
        <pt x="758" y="67" on="0"/>
        <pt x="758" y="130" on="1"/>
        <pt x="758" y="181" on="0"/>
        <pt x="787" y="266" on="0"/>
        <pt x="837" y="326" on="0"/>
        <pt x="901" y="360" on="0"/>
        <pt x="937" y="360" on="1"/>
        <pt x="988" y="360" on="0"/>
        <pt x="1046" y="285" on="0"/>
        <pt x="1046" y="220" on="1"/>
        <pt x="1046" y="171" on="0"/>
        <pt x="1019" y="87" on="0"/>
        <pt x="971" y="26" on="0"/>
        <pt x="906" y="-9" on="0"/>
      </contour>
      <contour>
        <pt x="923" y="288" on="1"/>
        <pt x="910" y="288" on="0"/>
        <pt x="880" y="269" on="0"/>
        <pt x="855" y="231" on="0"/>
        <pt x="838" y="174" on="0"/>
        <pt x="838" y="135" on="1"/>
        <pt x="838" y="98" on="0"/>
        <pt x="862" y="63" on="0"/>
        <pt x="881" y="63" on="1"/>
        <pt x="918" y="63" on="0"/>
        <pt x="965" y="143" on="0"/>
        <pt x="965" y="214" on="1"/>
        <pt x="965" y="252" on="0"/>
        <pt x="940" y="288" on="0"/>
      </contour>
    </TTGlyph>
    <TTGlyph name="plus" xMin="32" yMin="102" xMax="382" yMax="452">
      <contour>
        <pt x="244" y="230" on="1"/>
        <pt x="221" y="102" on="1"/>
        <pt x="131" y="102" on="1"/>
        <pt x="153" y="230" on="1"/>
        <pt x="32" y="230" on="1"/>
        <pt x="49" y="324" on="1"/>
        <pt x="170" y="324" on="1"/>
        <pt x="193" y="452" on="1"/>
        <pt x="283" y="452" on="1"/>
        <pt x="260" y="324" on="1"/>
        <pt x="382" y="324" on="1"/>
        <pt x="365" y="230" on="1"/>
      </contour>
    </TTGlyph>
    <TTGlyph name="plusminus" xMin="14" yMin="30" xMax="413" yMax="532">
      <contour>
        <pt x="278" y="310" on="1"/>
        <pt x="255" y="182" on="1"/>
        <pt x="159" y="182" on="1"/>
        <pt x="182" y="310" on="1"/>
        <pt x="63" y="310" on="1"/>
        <pt x="80" y="404" on="1"/>
        <pt x="198" y="404" on="1"/>
        <pt x="221" y="532" on="1"/>
        <pt x="317" y="532" on="1"/>
        <pt x="295" y="404" on="1"/>
        <pt x="413" y="404" on="1"/>
        <pt x="396" y="310" on="1"/>
      </contour>
      <contour>
        <pt x="14" y="30" on="1"/>
        <pt x="31" y="124" on="1"/>
        <pt x="364" y="124" on="1"/>
        <pt x="347" y="30" on="1"/>
      </contour>
    </TTGlyph>
    <TTGlyph name="q" xMin="18" yMin="-242" xMax="514" yMax="508">
      <contour>
        <pt x="208" y="-10" on="1"/>
        <pt x="160" y="-10" on="0"/>
        <pt x="89" y="23" on="0"/>
        <pt x="41" y="80" on="0"/>
        <pt x="18" y="157" on="0"/>
        <pt x="18" y="200" on="1"/>
        <pt x="18" y="259" on="0"/>
        <pt x="56" y="370" on="0"/>
        <pt x="128" y="456" on="0"/>
        <pt x="233" y="508" on="0"/>
        <pt x="300" y="508" on="1"/>
        <pt x="330" y="508" on="0"/>
        <pt x="370" y="488" on="0"/>
        <pt x="388" y="471" on="1"/>
        <pt x="402" y="500" on="1"/>
        <pt x="514" y="500" on="1"/>
        <pt x="383" y="-242" on="1"/>
        <pt x="258" y="-242" on="1"/>
        <pt x="305" y="24" on="1"/>
        <pt x="293" y="16" on="0"/>
        <pt x="274" y="3" on="0"/>
        <pt x="253" y="-6" on="0"/>
        <pt x="227" y="-10" on="0"/>
      </contour>
      <contour>
        <pt x="288" y="406" on="1"/>
        <pt x="256" y="406" on="0"/>
        <pt x="204" y="375" on="0"/>
        <pt x="167" y="321" on="0"/>
        <pt x="147" y="249" on="0"/>
        <pt x="147" y="209" on="1"/>
        <pt x="147" y="157" on="0"/>
        <pt x="190" y="92" on="0"/>
        <pt x="233" y="92" on="1"/>
        <pt x="261" y="92" on="0"/>
        <pt x="308" y="117" on="0"/>
        <pt x="341" y="170" on="0"/>
        <pt x="359" y="252" on="0"/>
        <pt x="359" y="310" on="1"/>
        <pt x="359" y="352" on="0"/>
        <pt x="328" y="406" on="0"/>
      </contour>
    </TTGlyph>
    <TTGlyph name="question" xMin="83" yMin="0" xMax="423" yMax="750">
      <contour>
        <pt x="139" y="200" on="1"/>
        <pt x="140" y="217" on="0"/>
        <pt x="142" y="237" on="0"/>
        <pt x="144" y="247" on="0"/>
        <pt x="145" y="251" on="0"/>
        <pt x="145" y="253" on="1"/>
        <pt x="154" y="304" on="0"/>
        <pt x="206" y="385" on="0"/>
        <pt x="262" y="460" on="0"/>
        <pt x="305" y="536" on="0"/>
        <pt x="305" y="581" on="1"/>
        <pt x="305" y="617" on="0"/>
        <pt x="270" y="652" on="0"/>
        <pt x="238" y="652" on="1"/>
        <pt x="202" y="652" on="0"/>
        <pt x="143" y="613" on="0"/>
        <pt x="118" y="587" on="1"/>
        <pt x="107" y="679" on="1"/>
        <pt x="139" y="716" on="0"/>
        <pt x="223" y="750" on="0"/>
        <pt x="264" y="750" on="1"/>
        <pt x="307" y="750" on="0"/>
        <pt x="368" y="720" on="0"/>
        <pt x="406" y="672" on="0"/>
        <pt x="423" y="614" on="0"/>
        <pt x="423" y="586" on="1"/>
        <pt x="423" y="552" on="0"/>
        <pt x="397" y="491" on="0"/>
        <pt x="358" y="434" on="0"/>
        <pt x="310" y="378" on="0"/>
        <pt x="266" y="318" on="0"/>
        <pt x="232" y="252" on="0"/>
        <pt x="226" y="213" on="1"/>
        <pt x="224" y="200" on="1"/>
      </contour>
      <contour>
        <pt x="83" y="0" on="1"/>
        <pt x="105" y="124" on="1"/>
        <pt x="229" y="124" on="1"/>
        <pt x="207" y="0" on="1"/>
      </contour>
    </TTGlyph>
    <TTGlyph name="questiondown" xMin="-17" yMin="-250" xMax="323" yMax="500">
      <contour>
        <pt x="268" y="300" on="1"/>
        <pt x="266" y="283" on="0"/>
        <pt x="264" y="263" on="0"/>
        <pt x="262" y="253" on="0"/>
        <pt x="261" y="248" on="0"/>
        <pt x="261" y="247" on="1"/>
        <pt x="252" y="196" on="0"/>
        <pt x="200" y="114" on="0"/>
        <pt x="145" y="39" on="0"/>
        <pt x="102" y="-36" on="0"/>
        <pt x="102" y="-81" on="1"/>
        <pt x="102" y="-117" on="0"/>
        <pt x="137" y="-152" on="0"/>
        <pt x="168" y="-152" on="1"/>
        <pt x="204" y="-152" on="0"/>
        <pt x="263" y="-113" on="0"/>
        <pt x="289" y="-87" on="1"/>
        <pt x="299" y="-179" on="1"/>
        <pt x="267" y="-216" on="0"/>
        <pt x="183" y="-250" on="0"/>
        <pt x="142" y="-250" on="1"/>
        <pt x="99" y="-250" on="0"/>
        <pt x="38" y="-220" on="0"/>
        <pt x="0" y="-172" on="0"/>
        <pt x="-17" y="-114" on="0"/>
        <pt x="-17" y="-86" on="1"/>
        <pt x="-17" y="-52" on="0"/>
        <pt x="9" y="9" on="0"/>
        <pt x="48" y="66" on="0"/>
        <pt x="96" y="122" on="0"/>
        <pt x="140" y="182" on="0"/>
        <pt x="174" y="248" on="0"/>
        <pt x="180" y="287" on="1"/>
        <pt x="182" y="300" on="1"/>
      </contour>
      <contour>
        <pt x="323" y="500" on="1"/>
        <pt x="302" y="376" on="1"/>
        <pt x="177" y="376" on="1"/>
        <pt x="199" y="500" on="1"/>
      </contour>
    </TTGlyph>
    <TTGlyph name="quotedbl" xMin="83" yMin="450" xMax="410" yMax="750">
      <contour>
        <pt x="339" y="450" on="1"/>
        <pt x="251" y="450" on="1"/>
        <pt x="286" y="750" on="1"/>
        <pt x="410" y="750" on="1"/>
      </contour>
      <contour>
        <pt x="170" y="450" on="1"/>
        <pt x="83" y="450" on="1"/>
        <pt x="118" y="750" on="1"/>
        <pt x="241" y="750" on="1"/>
      </contour>
    </TTGlyph>
    <TTGlyph name="quotedblbase" xMin="-13" yMin="-110" xMax="354" yMax="130">
      <contour>
        <pt x="9" y="-110" on="1"/>
        <pt x="-13" y="-96" on="1"/>
        <pt x="31" y="-10" on="1"/>
        <pt x="4" y="0" on="1"/>
        <pt x="26" y="130" on="1"/>
        <pt x="147" y="130" on="1"/>
        <pt x="124" y="0" on="1"/>
      </contour>
      <contour>
        <pt x="216" y="-110" on="1"/>
        <pt x="194" y="-96" on="1"/>
        <pt x="238" y="-10" on="1"/>
        <pt x="211" y="0" on="1"/>
        <pt x="233" y="130" on="1"/>
        <pt x="354" y="130" on="1"/>
        <pt x="331" y="0" on="1"/>
      </contour>
    </TTGlyph>
    <TTGlyph name="quotedblleft" xMin="81" yMin="510" xMax="430" yMax="750">
      <contour>
        <pt x="219" y="750" on="1"/>
        <pt x="241" y="736" on="1"/>
        <pt x="197" y="650" on="1"/>
        <pt x="225" y="640" on="1"/>
        <pt x="202" y="510" on="1"/>
        <pt x="81" y="510" on="1"/>
        <pt x="104" y="640" on="1"/>
      </contour>
      <contour>
        <pt x="408" y="750" on="1"/>
        <pt x="430" y="736" on="1"/>
        <pt x="386" y="650" on="1"/>
        <pt x="414" y="640" on="1"/>
        <pt x="391" y="510" on="1"/>
        <pt x="270" y="510" on="1"/>
        <pt x="293" y="640" on="1"/>
      </contour>
    </TTGlyph>
    <TTGlyph name="quotedblright" xMin="82" yMin="510" xMax="431" yMax="750">
      <contour>
        <pt x="293" y="510" on="1"/>
        <pt x="271" y="524" on="1"/>
        <pt x="315" y="610" on="1"/>
        <pt x="288" y="620" on="1"/>
        <pt x="310" y="750" on="1"/>
        <pt x="431" y="750" on="1"/>
        <pt x="408" y="620" on="1"/>
      </contour>
      <contour>
        <pt x="104" y="510" on="1"/>
        <pt x="82" y="524" on="1"/>
        <pt x="126" y="610" on="1"/>
        <pt x="99" y="620" on="1"/>
        <pt x="121" y="750" on="1"/>
        <pt x="242" y="750" on="1"/>
        <pt x="219" y="620" on="1"/>
      </contour>
    </TTGlyph>
    <TTGlyph name="quoteleft" xMin="81" yMin="510" xMax="241" yMax="750">
      <contour>
        <pt x="219" y="750" on="1"/>
        <pt x="241" y="736" on="1"/>
        <pt x="197" y="650" on="1"/>
        <pt x="225" y="640" on="1"/>
        <pt x="202" y="510" on="1"/>
        <pt x="81" y="510" on="1"/>
        <pt x="104" y="640" on="1"/>
      </contour>
    </TTGlyph>
    <TTGlyph name="quoteright" xMin="82" yMin="510" xMax="242" yMax="750">
      <contour>
        <pt x="104" y="510" on="1"/>
        <pt x="82" y="524" on="1"/>
        <pt x="126" y="610" on="1"/>
        <pt x="99" y="620" on="1"/>
        <pt x="121" y="750" on="1"/>
        <pt x="242" y="750" on="1"/>
        <pt x="219" y="620" on="1"/>
      </contour>
    </TTGlyph>
    <TTGlyph name="quotesinglbase" xMin="-13" yMin="-110" xMax="147" yMax="130">
      <contour>
        <pt x="9" y="-110" on="1"/>
        <pt x="-13" y="-96" on="1"/>
        <pt x="31" y="-10" on="1"/>
        <pt x="4" y="0" on="1"/>
        <pt x="26" y="130" on="1"/>
        <pt x="147" y="130" on="1"/>
        <pt x="124" y="0" on="1"/>
      </contour>
    </TTGlyph>
    <TTGlyph name="quotesingle" xMin="84" yMin="450" xMax="239" yMax="750">
      <contour>
        <pt x="167" y="450" on="1"/>
        <pt x="84" y="450" on="1"/>
        <pt x="118" y="750" on="1"/>
        <pt x="239" y="750" on="1"/>
      </contour>
    </TTGlyph>
    <TTGlyph name="r" xMin="7" yMin="0" xMax="363" yMax="508">
      <contour>
        <pt x="319" y="391" on="1"/>
        <pt x="272" y="391" on="1"/>
        <pt x="244" y="391" on="0"/>
        <pt x="202" y="362" on="0"/>
        <pt x="190" y="341" on="1"/>
        <pt x="129" y="0" on="1"/>
        <pt x="7" y="0" on="1"/>
        <pt x="95" y="500" on="1"/>
        <pt x="216" y="500" on="1"/>
        <pt x="206" y="447" on="1"/>
        <pt x="212" y="457" on="0"/>
        <pt x="236" y="479" on="0"/>
        <pt x="268" y="497" on="0"/>
        <pt x="305" y="508" on="0"/>
        <pt x="324" y="508" on="1"/>
        <pt x="363" y="508" on="1"/>
      </contour>
    </TTGlyph>
    <TTGlyph name="registered" xMin="55" yMin="37" xMax="628" yMax="693">
      <contour>
        <pt x="284" y="37" on="1"/>
        <pt x="232" y="37" on="0"/>
        <pt x="147" y="75" on="0"/>
        <pt x="87" y="144" on="0"/>
        <pt x="55" y="241" on="0"/>
        <pt x="55" y="301" on="1"/>
        <pt x="55" y="387" on="0"/>
        <pt x="110" y="531" on="0"/>
        <pt x="205" y="635" on="0"/>
        <pt x="330" y="693" on="0"/>
        <pt x="400" y="693" on="1"/>
        <pt x="452" y="693" on="0"/>
        <pt x="536" y="656" on="0"/>
        <pt x="596" y="587" on="0"/>
        <pt x="628" y="490" on="0"/>
        <pt x="628" y="430" on="1"/>
        <pt x="628" y="344" on="0"/>
        <pt x="573" y="200" on="0"/>
        <pt x="479" y="95" on="0"/>
        <pt x="354" y="37" on="0"/>
      </contour>
      <contour>
        <pt x="387" y="622" on="1"/>
        <pt x="326" y="622" on="0"/>
        <pt x="233" y="570" on="0"/>
        <pt x="169" y="483" on="0"/>
        <pt x="136" y="367" on="0"/>
        <pt x="136" y="304" on="1"/>
        <pt x="136" y="262" on="0"/>
        <pt x="155" y="189" on="0"/>
        <pt x="195" y="137" on="0"/>
        <pt x="256" y="107" on="0"/>
        <pt x="297" y="107" on="1"/>
        <pt x="358" y="107" on="0"/>
        <pt x="452" y="160" on="0"/>
        <pt x="515" y="248" on="0"/>
        <pt x="547" y="364" on="0"/>
        <pt x="547" y="427" on="1"/>
        <pt x="547" y="469" on="0"/>
        <pt x="528" y="541" on="0"/>
        <pt x="489" y="593" on="0"/>
        <pt x="428" y="622" on="0"/>
      </contour>
      <contour>
        <pt x="357" y="203" on="1"/>
        <pt x="323" y="315" on="1"/>
        <pt x="305" y="315" on="1"/>
        <pt x="285" y="203" on="1"/>
        <pt x="196" y="203" on="1"/>
        <pt x="255" y="538" on="1"/>
        <pt x="373" y="538" on="1"/>
        <pt x="414" y="538" on="0"/>
        <pt x="467" y="502" on="0"/>
        <pt x="467" y="454" on="1"/>
        <pt x="467" y="411" on="0"/>
        <pt x="427" y="354" on="0"/>
        <pt x="409" y="341" on="1"/>
        <pt x="453" y="203" on="1"/>
      </contour>
      <contour>
        <pt x="331" y="463" on="1"/>
        <pt x="320" y="396" on="1"/>
        <pt x="335" y="396" on="1"/>
        <pt x="358" y="396" on="0"/>
        <pt x="376" y="419" on="0"/>
        <pt x="376" y="442" on="1"/>
        <pt x="376" y="452" on="0"/>
        <pt x="366" y="463" on="0"/>
        <pt x="349" y="463" on="1"/>
      </contour>
    </TTGlyph>
    <TTGlyph name="ring" xMin="156" yMin="576" xMax="346" yMax="755">
      <contour>
        <pt x="236" y="576" on="1"/>
        <pt x="199" y="576" on="0"/>
        <pt x="156" y="620" on="0"/>
        <pt x="156" y="652" on="1"/>
        <pt x="156" y="672" on="0"/>
        <pt x="173" y="709" on="0"/>
        <pt x="203" y="738" on="0"/>
        <pt x="244" y="755" on="0"/>
        <pt x="267" y="755" on="1"/>
        <pt x="305" y="755" on="0"/>
        <pt x="346" y="711" on="0"/>
        <pt x="346" y="679" on="1"/>
        <pt x="346" y="658" on="0"/>
        <pt x="329" y="621" on="0"/>
        <pt x="300" y="593" on="0"/>
        <pt x="260" y="576" on="0"/>
      </contour>
      <contour>
        <pt x="258" y="706" on="1"/>
        <pt x="241" y="706" on="0"/>
        <pt x="217" y="677" on="0"/>
        <pt x="217" y="656" on="1"/>
        <pt x="217" y="642" on="0"/>
        <pt x="231" y="624" on="0"/>
        <pt x="244" y="624" on="1"/>
        <pt x="262" y="624" on="0"/>
        <pt x="286" y="652" on="0"/>
        <pt x="286" y="673" on="1"/>
        <pt x="286" y="688" on="0"/>
        <pt x="271" y="706" on="0"/>
      </contour>
    </TTGlyph>
    <TTGlyph name="s" xMin="-13" yMin="-10" xMax="383" yMax="508">
      <contour>
        <pt x="133" y="-10" on="1"/>
        <pt x="82" y="-10" on="0"/>
        <pt x="6" y="13" on="0"/>
        <pt x="-13" y="27" on="1"/>
        <pt x="16" y="133" on="1"/>
        <pt x="26" y="124" on="0"/>
        <pt x="57" y="106" on="0"/>
        <pt x="93" y="92" on="0"/>
        <pt x="130" y="83" on="0"/>
        <pt x="146" y="83" on="1"/>
        <pt x="186" y="83" on="0"/>
        <pt x="216" y="122" on="0"/>
        <pt x="216" y="148" on="1"/>
        <pt x="216" y="174" on="0"/>
        <pt x="177" y="198" on="0"/>
        <pt x="147" y="209" on="1"/>
        <pt x="127" y="216" on="0"/>
        <pt x="90" y="232" on="0"/>
        <pt x="61" y="258" on="0"/>
        <pt x="43" y="295" on="0"/>
        <pt x="43" y="323" on="1"/>
        <pt x="43" y="349" on="0"/>
        <pt x="61" y="414" on="0"/>
        <pt x="106" y="470" on="0"/>
        <pt x="182" y="508" on="0"/>
        <pt x="239" y="508" on="1"/>
        <pt x="261" y="508" on="0"/>
        <pt x="306" y="501" on="0"/>
        <pt x="345" y="491" on="0"/>
        <pt x="375" y="478" on="0"/>
        <pt x="383" y="471" on="1"/>
        <pt x="354" y="365" on="1"/>
        <pt x="348" y="374" on="0"/>
        <pt x="322" y="394" on="0"/>
        <pt x="289" y="409" on="0"/>
        <pt x="252" y="419" on="0"/>
        <pt x="234" y="419" on="1"/>
        <pt x="220" y="419" on="0"/>
        <pt x="191" y="412" on="0"/>
        <pt x="168" y="397" on="0"/>
        <pt x="153" y="373" on="0"/>
        <pt x="153" y="356" on="1"/>
        <pt x="153" y="341" on="0"/>
        <pt x="169" y="321" on="0"/>
        <pt x="194" y="307" on="0"/>
        <pt x="227" y="297" on="0"/>
        <pt x="244" y="291" on="1"/>
        <pt x="265" y="284" on="0"/>
        <pt x="301" y="266" on="0"/>
        <pt x="328" y="239" on="0"/>
        <pt x="343" y="199" on="0"/>
        <pt x="343" y="170" on="1"/>
        <pt x="343" y="135" on="0"/>
        <pt x="323" y="70" on="0"/>
        <pt x="275" y="20" on="0"/>
        <pt x="194" y="-10" on="0"/>
      </contour>
    </TTGlyph>
    <TTGlyph name="scaron" xMin="-13" yMin="-10" xMax="411" yMax="750">
      <component glyphName="s" x="0" y="0" flags="0x204"/>
      <component glyphName="caron" x="-59" y="0" flags="0x4"/>
    </TTGlyph>
    <TTGlyph name="section" xMin="6" yMin="-85" xMax="438" yMax="750">
      <contour>
        <pt x="298" y="186" on="1"/>
        <pt x="304" y="172" on="0"/>
        <pt x="315" y="133" on="0"/>
        <pt x="315" y="108" on="1"/>
        <pt x="315" y="83" on="0"/>
        <pt x="299" y="16" on="0"/>
        <pt x="257" y="-44" on="0"/>
        <pt x="184" y="-85" on="0"/>
        <pt x="127" y="-85" on="1"/>
        <pt x="109" y="-85" on="0"/>
        <pt x="71" y="-78" on="0"/>
        <pt x="37" y="-66" on="0"/>
        <pt x="12" y="-52" on="0"/>
        <pt x="6" y="-44" on="1"/>
        <pt x="31" y="61" on="1"/>
        <pt x="52" y="41" on="0"/>
        <pt x="114" y="11" on="0"/>
        <pt x="138" y="11" on="1"/>
        <pt x="152" y="11" on="0"/>
        <pt x="183" y="17" on="0"/>
        <pt x="208" y="32" on="0"/>
        <pt x="225" y="59" on="0"/>
        <pt x="225" y="80" on="1"/>
        <pt x="225" y="102" on="0"/>
        <pt x="198" y="131" on="0"/>
        <pt x="159" y="153" on="0"/>
        <pt x="112" y="176" on="0"/>
        <pt x="73" y="210" on="0"/>
        <pt x="46" y="260" on="0"/>
        <pt x="46" y="299" on="1"/>
        <pt x="46" y="360" on="0"/>
        <pt x="95" y="456" on="0"/>
        <pt x="143" y="479" on="1"/>
        <pt x="137" y="492" on="0"/>
        <pt x="128" y="530" on="0"/>
        <pt x="128" y="554" on="1"/>
        <pt x="128" y="581" on="0"/>
        <pt x="145" y="649" on="0"/>
        <pt x="188" y="709" on="0"/>
        <pt x="261" y="750" on="0"/>
        <pt x="318" y="750" on="1"/>
        <pt x="335" y="750" on="0"/>
        <pt x="373" y="743" on="0"/>
        <pt x="407" y="731" on="0"/>
        <pt x="433" y="716" on="0"/>
        <pt x="438" y="709" on="1"/>
        <pt x="413" y="604" on="1"/>
        <pt x="391" y="624" on="0"/>
        <pt x="331" y="654" on="0"/>
        <pt x="306" y="654" on="1"/>
        <pt x="292" y="654" on="0"/>
        <pt x="260" y="648" on="0"/>
        <pt x="233" y="633" on="0"/>
        <pt x="216" y="607" on="0"/>
        <pt x="216" y="586" on="1"/>
        <pt x="216" y="563" on="0"/>
        <pt x="243" y="535" on="0"/>
        <pt x="283" y="512" on="0"/>
        <pt x="331" y="489" on="0"/>
        <pt x="371" y="455" on="0"/>
        <pt x="398" y="404" on="0"/>
        <pt x="398" y="365" on="1"/>
        <pt x="398" y="304" on="0"/>
        <pt x="349" y="209" on="0"/>
      </contour>
      <contour>
        <pt x="202" y="408" on="1"/>
        <pt x="185" y="408" on="0"/>
        <pt x="149" y="371" on="0"/>
        <pt x="149" y="342" on="1"/>
        <pt x="149" y="321" on="0"/>
        <pt x="169" y="289" on="0"/>
        <pt x="196" y="267" on="0"/>
        <pt x="226" y="251" on="0"/>
        <pt x="237" y="247" on="1"/>
        <pt x="241" y="247" on="0"/>
        <pt x="263" y="260" on="0"/>
        <pt x="284" y="281" on="0"/>
        <pt x="301" y="309" on="0"/>
        <pt x="301" y="324" on="1"/>
        <pt x="301" y="344" on="0"/>
        <pt x="282" y="372" on="0"/>
        <pt x="254" y="391" on="0"/>
        <pt x="218" y="403" on="0"/>
      </contour>
    </TTGlyph>
    <TTGlyph name="semicolon" xMin="-11" yMin="-110" xMax="221" yMax="440">
      <contour>
        <pt x="60" y="310" on="1"/>
        <pt x="83" y="440" on="1"/>
        <pt x="221" y="440" on="1"/>
        <pt x="198" y="310" on="1"/>
      </contour>
      <contour>
        <pt x="11" y="-110" on="1"/>
        <pt x="-11" y="-96" on="1"/>
        <pt x="33" y="-10" on="1"/>
        <pt x="6" y="0" on="1"/>
        <pt x="28" y="130" on="1"/>
        <pt x="149" y="130" on="1"/>
        <pt x="126" y="0" on="1"/>
      </contour>
    </TTGlyph>
    <TTGlyph name="seven" xMin="23" yMin="0" xMax="539" yMax="700">
      <contour>
        <pt x="157" y="0" on="1"/>
        <pt x="23" y="0" on="1"/>
        <pt x="331" y="576" on="1"/>
        <pt x="100" y="576" on="1"/>
        <pt x="122" y="700" on="1"/>
        <pt x="539" y="700" on="1"/>
      </contour>
    </TTGlyph>
    <TTGlyph name="six" xMin="47" yMin="-14" xMax="478" yMax="700">
      <contour>
        <pt x="204" y="-14" on="1"/>
        <pt x="172" y="-14" on="0"/>
        <pt x="115" y="8" on="0"/>
        <pt x="72" y="56" on="0"/>
        <pt x="47" y="131" on="0"/>
        <pt x="47" y="184" on="1"/>
        <pt x="47" y="258" on="0"/>
        <pt x="90" y="392" on="0"/>
        <pt x="157" y="507" on="0"/>
        <pt x="239" y="600" on="0"/>
        <pt x="318" y="665" on="0"/>
        <pt x="385" y="700" on="0"/>
        <pt x="404" y="700" on="1"/>
        <pt x="478" y="650" on="1"/>
        <pt x="472" y="650" on="0"/>
        <pt x="432" y="627" on="0"/>
        <pt x="377" y="588" on="0"/>
        <pt x="314" y="535" on="0"/>
        <pt x="258" y="476" on="0"/>
        <pt x="216" y="412" on="0"/>
        <pt x="209" y="382" on="1"/>
        <pt x="220" y="395" on="0"/>
        <pt x="250" y="410" on="0"/>
        <pt x="279" y="418" on="0"/>
        <pt x="305" y="421" on="0"/>
        <pt x="311" y="421" on="1"/>
        <pt x="344" y="421" on="0"/>
        <pt x="402" y="400" on="0"/>
        <pt x="445" y="360" on="0"/>
        <pt x="469" y="298" on="0"/>
        <pt x="469" y="258" on="1"/>
        <pt x="469" y="206" on="0"/>
        <pt x="430" y="108" on="0"/>
        <pt x="360" y="32" on="0"/>
        <pt x="262" y="-14" on="0"/>
      </contour>
      <contour>
        <pt x="285" y="317" on="1"/>
        <pt x="261" y="317" on="0"/>
        <pt x="217" y="299" on="0"/>
        <pt x="184" y="266" on="0"/>
        <pt x="165" y="217" on="0"/>
        <pt x="165" y="186" on="1"/>
        <pt x="165" y="165" on="0"/>
        <pt x="179" y="132" on="0"/>
        <pt x="200" y="111" on="0"/>
        <pt x="226" y="100" on="0"/>
        <pt x="237" y="100" on="1"/>
        <pt x="262" y="100" on="0"/>
        <pt x="304" y="125" on="0"/>
        <pt x="335" y="164" on="0"/>
        <pt x="353" y="214" on="0"/>
        <pt x="353" y="240" on="1"/>
        <pt x="353" y="254" on="0"/>
        <pt x="346" y="281" on="0"/>
        <pt x="330" y="303" on="0"/>
        <pt x="304" y="317" on="0"/>
      </contour>
    </TTGlyph>
    <TTGlyph name="slash" xMin="-46" yMin="-85" xMax="550" yMax="700">
      <contour>
        <pt x="88" y="-85" on="1"/>
        <pt x="-46" y="-85" on="1"/>
        <pt x="416" y="700" on="1"/>
        <pt x="550" y="700" on="1"/>
      </contour>
    </TTGlyph>
    <TTGlyph name="sterling" xMin="-19" yMin="0" xMax="520" yMax="706">
      <contour>
        <pt x="435" y="551" on="1"/>
        <pt x="430" y="582" on="0"/>
        <pt x="410" y="607" on="0"/>
        <pt x="381" y="607" on="1"/>
        <pt x="360" y="607" on="0"/>
        <pt x="333" y="591" on="0"/>
        <pt x="316" y="559" on="0"/>
        <pt x="305" y="511" on="0"/>
        <pt x="299" y="480" on="1"/>
        <pt x="286" y="407" on="1"/>
        <pt x="450" y="407" on="1"/>
        <pt x="407" y="303" on="1"/>
        <pt x="264" y="303" on="1"/>
        <pt x="258" y="275" on="0"/>
        <pt x="246" y="232" on="0"/>
        <pt x="233" y="192" on="0"/>
        <pt x="214" y="151" on="0"/>
        <pt x="201" y="124" on="1"/>
        <pt x="401" y="124" on="1"/>
        <pt x="379" y="0" on="1"/>
        <pt x="-19" y="0" on="1"/>
        <pt x="49" y="70" on="0"/>
        <pt x="122" y="218" on="0"/>
        <pt x="144" y="303" on="1"/>
        <pt x="66" y="303" on="1"/>
        <pt x="110" y="407" on="1"/>
        <pt x="168" y="407" on="1"/>
        <pt x="184" y="500" on="1"/>
        <pt x="190" y="537" on="0"/>
        <pt x="215" y="611" on="0"/>
        <pt x="261" y="669" on="0"/>
        <pt x="333" y="706" on="0"/>
        <pt x="386" y="706" on="1"/>
        <pt x="410" y="706" on="0"/>
        <pt x="458" y="695" on="0"/>
        <pt x="496" y="673" on="0"/>
        <pt x="520" y="637" on="0"/>
        <pt x="520" y="612" on="1"/>
      </contour>
    </TTGlyph>
    <TTGlyph name="t" xMin="39" yMin="-10" xMax="333" yMax="623">
      <contour>
        <pt x="232" y="-10" on="1"/>
        <pt x="149" y="-10" on="1"/>
        <pt x="122" y="-10" on="0"/>
        <pt x="83" y="7" on="0"/>
        <pt x="58" y="35" on="0"/>
        <pt x="46" y="72" on="0"/>
        <pt x="46" y="93" on="1"/>
        <pt x="46" y="107" on="0"/>
        <pt x="49" y="121" on="1"/>
        <pt x="98" y="398" on="1"/>
        <pt x="39" y="398" on="1"/>
        <pt x="68" y="500" on="1"/>
        <pt x="116" y="500" on="1"/>
        <pt x="136" y="610" on="1"/>
        <pt x="263" y="623" on="1"/>
        <pt x="241" y="500" on="1"/>
        <pt x="333" y="500" on="1"/>
        <pt x="315" y="398" on="1"/>
        <pt x="223" y="398" on="1"/>
        <pt x="183" y="172" on="1"/>
        <pt x="177" y="139" on="0"/>
        <pt x="177" y="122" on="1"/>
        <pt x="177" y="101" on="0"/>
        <pt x="199" y="92" on="0"/>
        <pt x="227" y="92" on="1"/>
        <pt x="262" y="92" on="1"/>
      </contour>
    </TTGlyph>
    <TTGlyph name="thorn" xMin="-35" yMin="-242" xMax="494" yMax="750">
      <contour>
        <pt x="222" y="-10" on="1"/>
        <pt x="191" y="-10" on="0"/>
        <pt x="157" y="7" on="0"/>
        <pt x="137" y="24" on="1"/>
        <pt x="90" y="-242" on="1"/>
        <pt x="-35" y="-242" on="1"/>
        <pt x="140" y="750" on="1"/>
        <pt x="265" y="750" on="1"/>
        <pt x="216" y="475" on="1"/>
        <pt x="237" y="491" on="0"/>
        <pt x="279" y="508" on="0"/>
        <pt x="311" y="508" on="1"/>
        <pt x="358" y="508" on="0"/>
        <pt x="427" y="475" on="0"/>
        <pt x="472" y="419" on="0"/>
        <pt x="494" y="344" on="0"/>
        <pt x="494" y="301" on="1"/>
        <pt x="494" y="241" on="0"/>
        <pt x="457" y="129" on="0"/>
        <pt x="386" y="42" on="0"/>
        <pt x="285" y="-10" on="0"/>
      </contour>
      <contour>
        <pt x="289" y="406" on="1"/>
        <pt x="259" y="406" on="0"/>
        <pt x="213" y="371" on="0"/>
        <pt x="182" y="313" on="0"/>
        <pt x="166" y="239" on="0"/>
        <pt x="166" y="200" on="1"/>
        <pt x="166" y="152" on="0"/>
        <pt x="198" y="92" on="0"/>
        <pt x="233" y="92" on="1"/>
        <pt x="261" y="92" on="0"/>
        <pt x="310" y="124" on="0"/>
        <pt x="345" y="178" on="0"/>
        <pt x="365" y="250" on="0"/>
        <pt x="365" y="291" on="1"/>
        <pt x="365" y="342" on="0"/>
        <pt x="326" y="406" on="0"/>
      </contour>
    </TTGlyph>
    <TTGlyph name="three" xMin="-6" yMin="-14" xMax="461" yMax="714">
      <contour>
        <pt x="153" y="-14" on="1"/>
        <pt x="124" y="-14" on="0"/>
        <pt x="69" y="-2" on="0"/>
        <pt x="26" y="15" on="0"/>
        <pt x="-3" y="34" on="0"/>
        <pt x="-6" y="40" on="1"/>
        <pt x="46" y="158" on="1"/>
        <pt x="49" y="148" on="0"/>
        <pt x="74" y="130" on="0"/>
        <pt x="109" y="117" on="0"/>
        <pt x="149" y="109" on="0"/>
        <pt x="168" y="109" on="1"/>
        <pt x="196" y="109" on="0"/>
        <pt x="247" y="122" on="0"/>
        <pt x="284" y="153" on="0"/>
        <pt x="306" y="205" on="0"/>
        <pt x="306" y="244" on="1"/>
        <pt x="306" y="262" on="0"/>
        <pt x="298" y="293" on="0"/>
        <pt x="279" y="317" on="0"/>
        <pt x="247" y="331" on="0"/>
        <pt x="223" y="331" on="1"/>
        <pt x="135" y="331" on="1"/>
        <pt x="163" y="430" on="1"/>
        <pt x="208" y="430" on="1"/>
        <pt x="247" y="430" on="0"/>
        <pt x="295" y="451" on="0"/>
        <pt x="322" y="483" on="0"/>
        <pt x="332" y="522" on="0"/>
        <pt x="332" y="541" on="1"/>
        <pt x="332" y="570" on="0"/>
        <pt x="299" y="606" on="0"/>
        <pt x="259" y="606" on="1"/>
        <pt x="235" y="606" on="0"/>
        <pt x="169" y="590" on="0"/>
        <pt x="147" y="572" on="1"/>
        <pt x="143" y="668" on="1"/>
        <pt x="152" y="676" on="0"/>
        <pt x="184" y="692" on="0"/>
        <pt x="225" y="706" on="0"/>
        <pt x="270" y="714" on="0"/>
        <pt x="293" y="714" on="1"/>
        <pt x="344" y="714" on="0"/>
        <pt x="409" y="686" on="0"/>
        <pt x="446" y="642" on="0"/>
        <pt x="461" y="588" on="0"/>
        <pt x="461" y="563" on="1"/>
        <pt x="461" y="505" on="0"/>
        <pt x="414" y="418" on="0"/>
        <pt x="381" y="388" on="1"/>
        <pt x="402" y="366" on="0"/>
        <pt x="429" y="298" on="0"/>
        <pt x="429" y="254" on="1"/>
        <pt x="429" y="188" on="0"/>
        <pt x="380" y="88" on="0"/>
        <pt x="301" y="20" on="0"/>
        <pt x="202" y="-14" on="0"/>
      </contour>
    </TTGlyph>
    <TTGlyph name="threequarters" xMin="41" yMin="-85" xMax="775" yMax="706">
      <component glyphName="threesuperior" x="14" y="0" flags="0x4"/>
      <component glyphName="slash" x="183" y="0" flags="0x4"/>
      <component glyphName="uni2074" x="439" y="-319" flags="0x4"/>
    </TTGlyph>
    <TTGlyph name="threesuperior" xMin="27" yMin="312" xMax="281" yMax="706">
      <contour>
        <pt x="121" y="312" on="1"/>
        <pt x="103" y="312" on="0"/>
        <pt x="71" y="319" on="0"/>
        <pt x="45" y="328" on="0"/>
        <pt x="28" y="338" on="0"/>
        <pt x="27" y="342" on="1"/>
        <pt x="67" y="432" on="1"/>
        <pt x="72" y="425" on="0"/>
        <pt x="106" y="410" on="0"/>
        <pt x="134" y="410" on="1"/>
        <pt x="170" y="410" on="0"/>
        <pt x="189" y="438" on="0"/>
        <pt x="189" y="455" on="1"/>
        <pt x="189" y="469" on="0"/>
        <pt x="180" y="489" on="0"/>
        <pt x="169" y="489" on="1"/>
        <pt x="104" y="489" on="1"/>
        <pt x="123" y="561" on="1"/>
        <pt x="157" y="561" on="1"/>
        <pt x="169" y="561" on="0"/>
        <pt x="186" y="570" on="0"/>
        <pt x="195" y="582" on="0"/>
        <pt x="199" y="596" on="0"/>
        <pt x="199" y="601" on="1"/>
        <pt x="199" y="616" on="0"/>
        <pt x="176" y="630" on="0"/>
        <pt x="159" y="630" on="1"/>
        <pt x="145" y="630" on="0"/>
        <pt x="119" y="622" on="0"/>
        <pt x="111" y="616" on="1"/>
        <pt x="108" y="681" on="1"/>
        <pt x="122" y="692" on="0"/>
        <pt x="172" y="706" on="0"/>
        <pt x="199" y="706" on="1"/>
        <pt x="223" y="706" on="0"/>
        <pt x="254" y="694" on="0"/>
        <pt x="273" y="673" on="0"/>
        <pt x="281" y="647" on="0"/>
        <pt x="281" y="632" on="1"/>
        <pt x="281" y="602" on="0"/>
        <pt x="256" y="544" on="0"/>
        <pt x="239" y="532" on="1"/>
        <pt x="263" y="510" on="0"/>
        <pt x="279" y="469" on="0"/>
        <pt x="279" y="449" on="1"/>
        <pt x="279" y="416" on="0"/>
        <pt x="250" y="364" on="0"/>
        <pt x="205" y="330" on="0"/>
        <pt x="148" y="312" on="0"/>
      </contour>
    </TTGlyph>
    <TTGlyph name="tilde" xMin="179" yMin="594" xMax="544" yMax="721">
      <contour>
        <pt x="416" y="599" on="1"/>
        <pt x="395" y="599" on="0"/>
        <pt x="368" y="612" on="0"/>
        <pt x="345" y="628" on="0"/>
        <pt x="324" y="641" on="0"/>
        <pt x="311" y="641" on="1"/>
        <pt x="293" y="641" on="0"/>
        <pt x="272" y="609" on="0"/>
        <pt x="268" y="594" on="1"/>
        <pt x="179" y="614" on="1"/>
        <pt x="185" y="639" on="0"/>
        <pt x="213" y="677" on="0"/>
        <pt x="252" y="703" on="0"/>
        <pt x="297" y="716" on="0"/>
        <pt x="318" y="716" on="1"/>
        <pt x="341" y="716" on="0"/>
        <pt x="365" y="703" on="0"/>
        <pt x="381" y="687" on="0"/>
        <pt x="395" y="674" on="0"/>
        <pt x="408" y="674" on="1"/>
        <pt x="429" y="674" on="0"/>
        <pt x="461" y="706" on="0"/>
        <pt x="463" y="721" on="1"/>
        <pt x="544" y="701" on="1"/>
        <pt x="539" y="682" on="0"/>
        <pt x="517" y="646" on="0"/>
        <pt x="484" y="617" on="0"/>
        <pt x="441" y="599" on="0"/>
      </contour>
    </TTGlyph>
    <TTGlyph name="trademark" xMin="90" yMin="337" xMax="654" yMax="700">
      <contour>
        <pt x="470" y="425" on="1"/>
        <pt x="431" y="549" on="1"/>
        <pt x="371" y="337" on="1"/>
        <pt x="286" y="337" on="1"/>
        <pt x="395" y="700" on="1"/>
        <pt x="448" y="700" on="1"/>
        <pt x="498" y="552" on="1"/>
        <pt x="600" y="700" on="1"/>
        <pt x="654" y="700" on="1"/>
        <pt x="635" y="337" on="1"/>
        <pt x="549" y="337" on="1"/>
        <pt x="565" y="549" on="1"/>
        <pt x="482" y="425" on="1"/>
      </contour>
      <contour>
        <pt x="341" y="622" on="1"/>
        <pt x="259" y="622" on="1"/>
        <pt x="208" y="337" on="1"/>
        <pt x="125" y="337" on="1"/>
        <pt x="175" y="622" on="1"/>
        <pt x="90" y="622" on="1"/>
        <pt x="104" y="700" on="1"/>
        <pt x="365" y="700" on="1"/>
      </contour>
    </TTGlyph>
    <TTGlyph name="two" xMin="-6" yMin="0" xMax="460" yMax="714">
      <contour>
        <pt x="-6" y="0" on="1"/>
        <pt x="68" y="94" on="0"/>
        <pt x="177" y="235" on="0"/>
        <pt x="253" y="340" on="0"/>
        <pt x="301" y="416" on="0"/>
        <pt x="328" y="471" on="0"/>
        <pt x="337" y="513" on="0"/>
        <pt x="337" y="532" on="1"/>
        <pt x="337" y="567" on="0"/>
        <pt x="305" y="607" on="0"/>
        <pt x="274" y="607" on="1"/>
        <pt x="244" y="607" on="0"/>
        <pt x="192" y="583" on="0"/>
        <pt x="150" y="548" on="0"/>
        <pt x="119" y="512" on="0"/>
        <pt x="111" y="500" on="1"/>
        <pt x="115" y="615" on="1"/>
        <pt x="125" y="628" on="0"/>
        <pt x="162" y="662" on="0"/>
        <pt x="214" y="693" on="0"/>
        <pt x="279" y="714" on="0"/>
        <pt x="317" y="714" on="1"/>
        <pt x="358" y="714" on="0"/>
        <pt x="413" y="687" on="0"/>
        <pt x="446" y="644" on="0"/>
        <pt x="460" y="590" on="0"/>
        <pt x="460" y="563" on="1"/>
        <pt x="460" y="525" on="0"/>
        <pt x="435" y="443" on="0"/>
        <pt x="381" y="340" on="0"/>
        <pt x="294" y="210" on="0"/>
        <pt x="232" y="124" on="1"/>
        <pt x="406" y="124" on="1"/>
        <pt x="385" y="0" on="1"/>
      </contour>
    </TTGlyph>
    <TTGlyph name="twosuperior" xMin="23" yMin="320" xMax="302" yMax="706">
      <contour>
        <pt x="23" y="320" on="1"/>
        <pt x="86" y="396" on="0"/>
        <pt x="160" y="493" on="0"/>
        <pt x="199" y="554" on="0"/>
        <pt x="210" y="591" on="0"/>
        <pt x="210" y="606" on="1"/>
        <pt x="210" y="618" on="0"/>
        <pt x="202" y="633" on="0"/>
        <pt x="191" y="633" on="1"/>
        <pt x="173" y="633" on="0"/>
        <pt x="141" y="614" on="0"/>
        <pt x="115" y="590" on="0"/>
        <pt x="98" y="567" on="0"/>
        <pt x="96" y="563" on="1"/>
        <pt x="100" y="650" on="1"/>
        <pt x="117" y="673" on="0"/>
        <pt x="179" y="706" on="0"/>
        <pt x="220" y="706" on="1"/>
        <pt x="244" y="706" on="0"/>
        <pt x="276" y="691" on="0"/>
        <pt x="294" y="668" on="0"/>
        <pt x="302" y="639" on="0"/>
        <pt x="302" y="625" on="1"/>
        <pt x="302" y="587" on="0"/>
        <pt x="254" y="493" on="0"/>
        <pt x="203" y="419" on="1"/>
        <pt x="278" y="419" on="1"/>
        <pt x="260" y="320" on="1"/>
      </contour>
    </TTGlyph>
</ttFont>
